<svg width="82.426mm" height="20.348mm" version="1.1" viewBox="0 0 82.426 20.348" xmlns="http://www.w3.org/2000/svg" xmlns:xlink="http://www.w3.org/1999/xlink">
 <defs>
  <linearGradient id="b">
   <stop style="stop-color:#fff" offset="0"/>
   <stop style="stop-color:#fff;stop-opacity:0" offset="1"/>
  </linearGradient>
  <linearGradient id="f" x1="-40.325" x2="-40.492" y1="192.84" y2="180.4" gradientTransform="matrix(1.3038 0 0 1 21.403 1e-7)" gradientUnits="userSpaceOnUse">
   <stop style="stop-color:#004e0f" offset="0"/>
   <stop style="stop-color:#0cb02b;stop-opacity:0" offset="1"/>
  </linearGradient>
  <linearGradient id="e" x1="-38.621" x2="-38.621" y1="168.14" y2="176.96" gradientTransform="matrix(1.4317 0 0 1 134.17 -7.4874)" gradientUnits="userSpaceOnUse">
   <stop style="stop-color:#fff" offset="0"/>
   <stop style="stop-color:#fff;stop-opacity:0" offset="1"/>
  </linearGradient>
  <linearGradient id="d" x1="-38.92" x2="-38.92" y1="170.6" y2="178.51" gradientTransform="matrix(1.31 0 0 1.049 21 -8.6978)" gradientUnits="userSpaceOnUse">
   <stop style="stop-color:#fff" offset="0"/>
   <stop style="stop-color:#0baa29;stop-opacity:0" offset="1"/>
  </linearGradient>
  <linearGradient id="a" x1="84.553" x2="84.553" y1="156.73" y2="171.77" gradientUnits="userSpaceOnUse" xlink:href="#b"/>
  <linearGradient id="c" x1="45.32" x2="45.32" y1="166.04" y2="185.96" gradientTransform="translate(.64183 -.1359)" gradientUnits="userSpaceOnUse" xlink:href="#b"/>
  <filter id="h" x="-.028155" y="-.025936" width="1.0563" height="1.0519" style="color-interpolation-filters:sRGB">
   <feGaussianBlur stdDeviation="0.12779268"/>
  </filter>
  <filter id="g" x="-.014161" y="-.13917" width="1.0283" height="1.2783" style="color-interpolation-filters:sRGB">
   <feGaussianBlur stdDeviation="0.37133159"/>
  </filter>
 </defs>
 <g transform="translate(70.458 -170.31)"></g>
 <g transform="translate(-37.014 -162.59)">
  <g transform="translate(107.47 -7.716)">
   <path d="m-64.575 170.36h70.659c3.2593 0 5.8832 2.4439 5.8832 5.4797v9.342c0 3.0358-2.6239 5.4797-5.8832 5.4797h-70.659c-3.2593 0-5.8832-2.4439-5.8832-5.4797v-9.342c0-3.0358 2.6239-5.4797 5.8832-5.4797z" style="fill:#0cb02b;paint-order:stroke markers fill;stop-color:#000000"/>
   <path d="m-64.575 180.72h70.659c3.2593 0 5.8832 2.2158 5.8832 4.9681 0 2.7523-2.6239 4.9681-5.8832 4.9681h-70.659c-3.2593 0-5.8832-2.2158-5.8832-4.9681 0-2.7523 2.6239-4.9681 5.8832-4.9681z" style="fill:url(#f);paint-order:stroke markers fill;stop-color:#000000"/>
   <path d="m-62.304 170.36c12.236-2e-3 52.485-1e-3 64.205-1e-3 2.4632-0.043 4.2343-0.11301 5.5043 0.13006 1.4399 0.27558 2.2549 0.91112 3.052 1.6704 0.54521 0.51931 1.0459 1.3839 1.2938 2.1968 0.29423 0.96484 0.18065 3.0207 0.18065 3.0207l-10.143-3e-3 -72.23 0.29306 0.02426-2.4607s0.06267-1.0744 0.7594-2.1668c0.49061-0.76921 1.4616-1.7512 2.7092-2.244 1.2803-0.50573 2.1728-0.45465 4.6452-0.43464z" style="fill:url(#d);mix-blend-mode:normal;opacity:.76263;paint-order:stroke markers fill;stop-color:#000000"/>
  </g>
  <path d="m47.684 168.04c-0.02898-6e-3 -0.05793-9e-3 -0.08689-0.0105-0.26185-9e-3 -0.48991 0.16893-0.54301 0.42596-0.02898 0.13994-0.0026 0.28235 0.07602 0.40183 0.07843 0.11943 0.1979 0.2003 0.33787 0.22925 1.1234 0.23048 2.09 0.88812 2.7223 1.8486 0.6323 0.96053 0.85312 2.1081 0.62144 3.2315-0.02897 0.13995-0.0026 0.28238 0.07722 0.40063 0.07844 0.11945 0.1991 0.20031 0.33787 0.22926 0.02897 6e-3 0.05912 9e-3 0.08808 0.0105 0.11222 3e-3 0.21962-0.0265 0.31374-0.0881 0.11947-0.0784 0.20031-0.1991 0.22927-0.33788 0.5973-2.8984-1.2755-5.7438-4.1739-6.3411zm0.91828 8.0184c0.03139 0.0205 0.73608 0.47301 1.2767 1.0293 0.20393 0.20995 0.54542 0.56231 0.53577 0.97017-0.0073 0.27874-0.16532 0.55869-0.48146 0.85311-0.07844 0.0772-0.78314 0.73487-1.9102 0.73487-0.30891 0-0.62626-0.0496-0.94242-0.14594-0.33304-0.10132-0.67091-0.25701-1.0052-0.46214-1.3177-0.77832-2.3349-1.7811-3.3003-3.2508-1.6592-2.5256-1.7074-4.6891-1.699-5.097 0.0026-1.8824 1.5699-2.6221 1.7485-2.7005 0.24616-0.11345 0.46095-0.16894 0.65885-0.16894 0.09533 0 0.18583 0.0135 0.26909 0.0386 0.17255 0.0519 0.41268 0.18824 0.57438 0.53697 0.21962 0.47422 0.42837 1.1536 0.56955 1.8643 0.14963 0.73849-0.26426 0.94484-0.66488 1.1451l-0.0157 8e-3s-0.70832 0.29564-0.83261 0.34632c-0.12188 0.0508-0.18583 0.18945-0.14481 0.31495 0.28598 0.86518 0.72159 1.7618 1.261 2.5944 0.52973 0.81932 1.1608 1.5747 1.8233 2.1865 0.04706 0.0434 0.1086 0.0675 0.17256 0.0675l0.0217-1e-3c0.06999-6e-3 0.13514-0.041 0.17859-0.0966 0.10739-0.13874 0.27271-0.33787 0.44647-0.50439 0.33063-0.31373 0.62868-0.46699 0.91346-0.46699 0.07723 0 0.15445 0.0105 0.22927 0.0338 0.0724 0.0229 0.18824 0.0856 0.31736 0.17134zm-2.242-3.6418c-0.13998-0.029-0.25944-0.10986-0.33787-0.22927-0.07843-0.11944-0.10619-0.26185-0.07723-0.40181 0.05309-0.25703 0.28236-0.43563 0.543-0.42476 0.02898 2e-3 0.05793 5e-3 0.08808 0.0105 1.2393 0.2558 2.0393 1.4721 1.7847 2.7114-0.02897 0.13874-0.10982 0.25942-0.22927 0.33785-0.09412 0.0615-0.20272 0.0918-0.31374 0.0882-0.02898-2e-3 -0.05793-5e-3 -0.08689-0.0105-0.13998-0.029-0.26064-0.10986-0.33907-0.22927-0.07844-0.11824-0.10498-0.26064-0.07602-0.40062 0.06637-0.32097 0.0035-0.64798-0.17738-0.9231-0.18221-0.27512-0.45733-0.46216-0.7783-0.52852zm0.55507-1.6724c-0.2884-0.0603-0.47423-0.34269-0.4151-0.62989 0.05309-0.25701 0.28116-0.43682 0.54301-0.42595 0.02897 2e-3 0.05793 5e-3 0.08808 0.0105 1.0027 0.20633 1.8655 0.79278 2.4303 1.6507 0.56352 0.85674 0.76141 1.8812 0.55386 2.884-0.02897 0.13994-0.10982 0.26062-0.22927 0.33786-0.09413 0.0615-0.20152 0.0918-0.31374 0.0882-0.02897-2e-3 -0.05912-5e-3 -0.08808-0.0105-0.28719-0.0591-0.47422-0.34148-0.4151-0.62988 0.14963-0.72401 0.0073-1.4637-0.40062-2.0827-0.40665-0.62023-1.0293-1.0426-1.7533-1.1922z" style="fill:url(#c);filter:url(#h);opacity:.69912;stroke-width:.26458"/>
  <path d="m47.474 167.86c-0.02898-6e-3 -0.05793-9e-3 -0.08689-0.0105-0.26185-9e-3 -0.48991 0.16893-0.54301 0.42596-0.02898 0.13994-0.0026 0.28235 0.07602 0.40183 0.07843 0.11943 0.1979 0.2003 0.33787 0.22925 1.1234 0.23048 2.09 0.88812 2.7223 1.8486 0.6323 0.96053 0.85312 2.1081 0.62144 3.2315-0.02897 0.13995-0.0026 0.28238 0.07722 0.40063 0.07844 0.11945 0.1991 0.20031 0.33787 0.22926 0.02897 6e-3 0.05912 9e-3 0.08808 0.0105 0.11222 3e-3 0.21962-0.0265 0.31374-0.0881 0.11947-0.0784 0.20031-0.1991 0.22927-0.33788 0.5973-2.8984-1.2755-5.7438-4.1739-6.3411zm0.91828 8.0184c0.03139 0.0205 0.73608 0.47301 1.2767 1.0293 0.20393 0.20995 0.54542 0.56231 0.53577 0.97017-0.0073 0.27874-0.16532 0.55869-0.48146 0.85311-0.07844 0.0772-0.78314 0.73487-1.9102 0.73487-0.30891 0-0.62626-0.0496-0.94242-0.14594-0.33304-0.10132-0.67091-0.25701-1.0052-0.46214-1.3177-0.77832-2.3349-1.7811-3.3003-3.2508-1.6592-2.5256-1.7074-4.6891-1.699-5.097 0.0026-1.8824 1.5699-2.6221 1.7485-2.7005 0.24616-0.11345 0.46095-0.16894 0.65885-0.16894 0.09533 0 0.18583 0.0135 0.26909 0.0386 0.17255 0.0519 0.41268 0.18824 0.57438 0.53697 0.21962 0.47422 0.42837 1.1536 0.56955 1.8643 0.14963 0.73849-0.26426 0.94484-0.66488 1.1451l-0.0157 8e-3s-0.70832 0.29564-0.83261 0.34632c-0.12188 0.0508-0.18583 0.18945-0.14481 0.31495 0.28598 0.86518 0.72159 1.7618 1.261 2.5944 0.52973 0.81932 1.1608 1.5747 1.8233 2.1865 0.04706 0.0434 0.1086 0.0675 0.17256 0.0675l0.0217-1e-3c0.06999-6e-3 0.13514-0.041 0.17859-0.0966 0.10739-0.13874 0.27271-0.33787 0.44647-0.50439 0.33063-0.31373 0.62868-0.46699 0.91346-0.46699 0.07723 0 0.15445 0.0105 0.22927 0.0338 0.0724 0.0229 0.18824 0.0856 0.31736 0.17134zm-2.242-3.6418c-0.13998-0.029-0.25944-0.10986-0.33787-0.22927-0.07843-0.11944-0.10619-0.26185-0.07723-0.40181 0.05309-0.25703 0.28236-0.43563 0.543-0.42476 0.02898 2e-3 0.05793 5e-3 0.08808 0.0105 1.2393 0.2558 2.0393 1.4721 1.7847 2.7114-0.02897 0.13874-0.10982 0.25942-0.22927 0.33785-0.09412 0.0615-0.20272 0.0918-0.31374 0.0882-0.02898-2e-3 -0.05793-5e-3 -0.08689-0.0105-0.13998-0.029-0.26064-0.10986-0.33907-0.22927-0.07844-0.11824-0.10498-0.26064-0.07602-0.40062 0.06637-0.32097 0.0035-0.64798-0.17738-0.9231-0.18221-0.27512-0.45733-0.46216-0.7783-0.52852zm0.55507-1.6724c-0.2884-0.0603-0.47423-0.34269-0.4151-0.62989 0.05309-0.25701 0.28116-0.43682 0.54301-0.42595 0.02897 2e-3 0.05793 5e-3 0.08808 0.0105 1.0027 0.20633 1.8655 0.79278 2.4303 1.6507 0.56352 0.85674 0.76141 1.8812 0.55386 2.884-0.02897 0.13994-0.10982 0.26062-0.22927 0.33786-0.09413 0.0615-0.20152 0.0918-0.31374 0.0882-0.02897-2e-3 -0.05912-5e-3 -0.08808-0.0105-0.28719-0.0591-0.47422-0.34148-0.4151-0.62988 0.14963-0.72401 0.0073-1.4637-0.40062-2.0827-0.40665-0.62023-1.0293-1.0426-1.7533-1.1922z" style="mix-blend-mode:normal;stroke-width:.26458"/>
  <g transform="matrix(.9408 0 0 1.0629 1.0782 -.68122)" style="fill:url(#a);filter:url(#g);opacity:.82444;paint-order:stroke markers fill;stop-color:#000000;stroke-linecap:round;stroke-linejoin:round;text-decoration-color:#000000;text-decoration-line:none" aria-label="TAP TO CALL!">
   <path d="m57.16 160.05h5.6885v1.203h-2.0464v4.9692h-1.5916v-4.9692h-2.0505z" style="fill:url(#a);font-variant-caps:normal;font-variant-east-asian:normal;font-variant-ligatures:normal;font-variant-numeric:normal;stroke-width:2.6458"/>
   <path d="m66.759 165.1h-2.4887l-0.39274 1.1245h-1.5999l2.2862-6.1722h1.8976l2.2862 6.1722h-1.5999zm-2.0919-1.1452h1.6909l-0.84336-2.4557z" style="fill:url(#a);font-variant-caps:normal;font-variant-east-asian:normal;font-variant-ligatures:normal;font-variant-numeric:normal;stroke-width:2.6458"/>
   <path d="m69.566 160.05h2.6417q1.1782 0 1.8066 0.52503 0.63252 0.5209 0.63252 1.4883 0 0.97151-0.63252 1.4966-0.62839 0.52089-1.8066 0.52089h-1.0501v2.1415h-1.5916zm1.5916 1.1534v1.7239h0.88057q0.46302 0 0.7152-0.22325 0.25218-0.22737 0.25218-0.64078 0-0.41342-0.25218-0.63666-0.25218-0.22324-0.7152-0.22324z" style="fill:url(#a);font-variant-caps:normal;font-variant-east-asian:normal;font-variant-ligatures:normal;font-variant-numeric:normal;stroke-width:2.6458"/>
   <path d="m77.983 160.05h5.6885v1.203h-2.0464v4.9692h-1.5916v-4.9692h-2.0505z" style="fill:url(#a);font-variant-caps:normal;font-variant-east-asian:normal;font-variant-ligatures:normal;font-variant-numeric:normal;stroke-width:2.6458"/>
   <path d="m87.314 161.09q-0.7276 0-1.1286 0.53743-0.40101 0.53744-0.40101 1.5131 0 0.97152 0.40101 1.509 0.40101 0.53744 1.1286 0.53744 0.73174 0 1.1327-0.53744 0.40101-0.53743 0.40101-1.509 0-0.97565-0.40101-1.5131-0.40101-0.53743-1.1327-0.53743zm0-1.1534q1.4883 0 2.3316 0.85163t0.84336 2.3523q0 1.4966-0.84336 2.3482t-2.3316 0.85163q-1.4841 0-2.3316-0.85163-0.84336-0.85163-0.84336-2.3482 0-1.5007 0.84336-2.3523 0.84749-0.85163 2.3316-0.85163z" style="fill:url(#a);font-variant-caps:normal;font-variant-east-asian:normal;font-variant-ligatures:normal;font-variant-numeric:normal;stroke-width:2.6458"/>
   <path d="m99.534 165.88q-0.43822 0.22737-0.91364 0.34313-0.47542 0.11576-0.99219 0.11576-1.542 0-2.4433-0.8599-0.90124-0.86403-0.90124-2.3399 0-1.48 0.90124-2.3399 0.90124-0.86403 2.4433-0.86403 0.51676 0 0.99219 0.11575 0.47542 0.11576 0.91364 0.34314v1.2774q-0.44235-0.30179-0.8723-0.44235t-0.90537-0.14056q-0.85163 0-1.3395 0.5457-0.48783 0.5457-0.48783 1.5048 0 0.95498 0.48783 1.5007 0.48782 0.54571 1.3395 0.54571 0.47542 0 0.90537-0.14056t0.8723-0.44235z" style="fill:url(#a);font-variant-caps:normal;font-variant-east-asian:normal;font-variant-ligatures:normal;font-variant-numeric:normal;stroke-width:2.6458"/>
   <path d="m104.6 165.1h-2.4887l-0.39274 1.1245h-1.5999l2.2862-6.1722h1.8976l2.2862 6.1722h-1.5999zm-2.0919-1.1452h1.6909l-0.84336-2.4557z" style="fill:url(#a);font-variant-caps:normal;font-variant-east-asian:normal;font-variant-ligatures:normal;font-variant-numeric:normal;stroke-width:2.6458"/>
   <path d="m107.41 160.05h1.5916v4.9692h2.7947v1.203h-4.3863z" style="fill:url(#a);font-variant-caps:normal;font-variant-east-asian:normal;font-variant-ligatures:normal;font-variant-numeric:normal;stroke-width:2.6458"/>
   <path d="m112.8 160.05h1.5916v4.9692h2.7947v1.203h-4.3863z" style="fill:url(#a);font-variant-caps:normal;font-variant-east-asian:normal;font-variant-ligatures:normal;font-variant-numeric:normal;stroke-width:2.6458"/>
   <path d="m118.61 160.05h1.4883v2.3688l-0.21084 1.7281h-1.0666l-0.21084-1.7281zm0 4.7005h1.4883v1.4718h-1.4883z" style="fill:url(#a);font-variant-caps:normal;font-variant-east-asian:normal;font-variant-ligatures:normal;font-variant-numeric:normal;stroke-width:2.6458"/>
  </g>
  <g transform="scale(.9408 1.0629)" style="paint-order:stroke markers fill;stop-color:#000000;stroke-linecap:round;stroke-linejoin:round;text-decoration-color:#000000;text-decoration-line:none" aria-label="TAP TO CALL!">
   <path d="m57.701 159.21h5.6885v1.203h-2.0464v4.9692h-1.5916v-4.9692h-2.0505z" style="font-variant-caps:normal;font-variant-east-asian:normal;font-variant-ligatures:normal;font-variant-numeric:normal;stroke-width:2.6458"/>
   <path d="m67.3 164.26h-2.4887l-0.39274 1.1245h-1.5999l2.2862-6.1722h1.8976l2.2862 6.1722h-1.5999zm-2.0919-1.1452h1.6909l-0.84336-2.4557z" style="font-variant-caps:normal;font-variant-east-asian:normal;font-variant-ligatures:normal;font-variant-numeric:normal;stroke-width:2.6458"/>
   <path d="m70.107 159.21h2.6417q1.1782 0 1.8066 0.52504 0.63252 0.52089 0.63252 1.4883 0 0.97151-0.63252 1.4966-0.62838 0.5209-1.8066 0.5209h-1.0501v2.1415h-1.5916zm1.5916 1.1534v1.7239h0.88057q0.46302 0 0.7152-0.22325 0.25218-0.22737 0.25218-0.64078t-0.25218-0.63666q-0.25218-0.22324-0.7152-0.22324z" style="font-variant-caps:normal;font-variant-east-asian:normal;font-variant-ligatures:normal;font-variant-numeric:normal;stroke-width:2.6458"/>
   <path d="m78.525 159.21h5.6885v1.203h-2.0464v4.9692h-1.5916v-4.9692h-2.0505z" style="font-variant-caps:normal;font-variant-east-asian:normal;font-variant-ligatures:normal;font-variant-numeric:normal;stroke-width:2.6458"/>
   <path d="m87.855 160.26q-0.7276 0-1.1286 0.53743-0.40101 0.53744-0.40101 1.5131 0 0.97152 0.40101 1.509 0.40101 0.53744 1.1286 0.53744 0.73174 0 1.1327-0.53744 0.40101-0.53743 0.40101-1.509 0-0.97565-0.40101-1.5131-0.40101-0.53743-1.1327-0.53743zm0-1.1534q1.4883 0 2.3316 0.85163 0.84336 0.85163 0.84336 2.3523 0 1.4966-0.84336 2.3482-0.84336 0.85163-2.3316 0.85163-1.4841 0-2.3316-0.85163-0.84336-0.85163-0.84336-2.3482 0-1.5007 0.84336-2.3523 0.84749-0.85163 2.3316-0.85163z" style="font-variant-caps:normal;font-variant-east-asian:normal;font-variant-ligatures:normal;font-variant-numeric:normal;stroke-width:2.6458"/>
   <path d="m100.08 165.05q-0.43822 0.22738-0.91364 0.34313-0.47542 0.11576-0.99219 0.11576-1.542 0-2.4433-0.8599-0.90124-0.86403-0.90124-2.3399 0-1.48 0.90124-2.3399 0.90124-0.86403 2.4433-0.86403 0.51676 0 0.99219 0.11576 0.47542 0.11575 0.91364 0.34313v1.2774q-0.44235-0.30179-0.8723-0.44235t-0.90537-0.14056q-0.85163 0-1.3395 0.5457-0.48783 0.54571-0.48783 1.5048 0 0.95498 0.48783 1.5007 0.48783 0.5457 1.3395 0.5457 0.47542 0 0.90537-0.14056t0.8723-0.44235z" style="font-variant-caps:normal;font-variant-east-asian:normal;font-variant-ligatures:normal;font-variant-numeric:normal;stroke-width:2.6458"/>
   <path d="m105.14 164.26h-2.4887l-0.39274 1.1245h-1.5999l2.2862-6.1722h1.8976l2.2862 6.1722h-1.5999zm-2.0919-1.1452h1.6909l-0.84336-2.4557z" style="font-variant-caps:normal;font-variant-east-asian:normal;font-variant-ligatures:normal;font-variant-numeric:normal;stroke-width:2.6458"/>
   <path d="m107.95 159.21h1.5916v4.9692h2.7947v1.203h-4.3863z" style="font-variant-caps:normal;font-variant-east-asian:normal;font-variant-ligatures:normal;font-variant-numeric:normal;stroke-width:2.6458"/>
   <path d="m113.34 159.21h1.5916v4.9692h2.7947v1.203h-4.3863z" style="font-variant-caps:normal;font-variant-east-asian:normal;font-variant-ligatures:normal;font-variant-numeric:normal;stroke-width:2.6458"/>
   <path d="m119.15 159.21h1.4883v2.3688l-0.21084 1.7281h-1.0666l-0.21084-1.7281zm0 4.7005h1.4883v1.4718h-1.4883z" style="font-variant-caps:normal;font-variant-east-asian:normal;font-variant-ligatures:normal;font-variant-numeric:normal;stroke-width:2.6458"/>
  </g>
  <path d="m45.081 163.04h66.291c2.2408 0 4.0447 1.2887 4.0447 2.8894v0.6804c0 1.6007-1.8039 2.8894-4.0447 2.8894h-66.291c-2.2408 0-4.0447-1.2887-4.0447-2.8894v-0.6804c0-1.6007 1.8039-2.8894 4.0447-2.8894z" style="fill:url(#e);opacity:.76263;paint-order:stroke markers fill;stop-color:#000000"/>
 </g>
</svg>
