<svg width="82.426mm" height="26.241mm" version="1.1" viewBox="0 0 82.426 26.241" xmlns="http://www.w3.org/2000/svg" xmlns:osb="http://www.openswatchbook.org/uri/2009/osb" xmlns:xlink="http://www.w3.org/1999/xlink">
 <defs>
  <linearGradient id="d">
   <stop style="stop-color:#fff" offset="0"/>
   <stop style="stop-color:#fff;stop-opacity:0" offset="1"/>
  </linearGradient>
  <linearGradient id="g" x1="-40.325" x2="-40.492" y1="192.84" y2="180.4" gradientTransform="matrix(1.3038 0 0 1.2896 69.168 -211.65)" gradientUnits="userSpaceOnUse">
   <stop style="stop-color:#004e0f" offset="0"/>
   <stop style="stop-color:#0cb02b;stop-opacity:0" offset="1"/>
  </linearGradient>
  <linearGradient id="f" x1="-38.92" x2="-38.92" y1="170.6" y2="178.51" gradientTransform="matrix(1.31 0 0 1.3528 68.766 -222.87)" gradientUnits="userSpaceOnUse">
   <stop style="stop-color:#fff" offset="0"/>
   <stop style="stop-color:#0baa29;stop-opacity:0" offset="1"/>
  </linearGradient>
  <filter id="b" x="-.014161" y="-.13917" width="1.0283" height="1.2783" style="color-interpolation-filters:sRGB">
   <feGaussianBlur stdDeviation="0.37133159"/>
  </filter>
  <filter id="i" x="-.094337" y="-.06249" width="1.1887" height="1.125" style="color-interpolation-filters:sRGB">
   <feGaussianBlur stdDeviation="0.47800579"/>
  </filter>
  <filter id="k" x="-2.5148e-5" y="-2.2006e-6" width="1.0001" height="1">
   <feTurbulence baseFrequency="0.0045977011494252873 0.30252873563218396" result="result1"/>
   <feConvolveMatrix bias="-0.064794816414687206" divisor="7.5127478753541075" kernelMatrix="5 0 0 0 0 0 0 0 -5 " order="3 3"/>
   <feSpecularLighting lighting-color="#ffe1ae" specularConstant="0.87527353" surfaceScale="2">
    <feDistantLight azimuth="79"/>
   </feSpecularLighting>
   <feGaussianBlur stdDeviation="0.00047650868"/>
   <feComposite in2="SourceGraphic"/>
   <feComposite in2="SourceGraphic" operator="in"/>
  </filter>
  <filter id="j" x="-2.2588e-5" y="-3.0166e-6" width="1" height="1">
   <feTurbulence baseFrequency="0.0045977011494252873 0.30252873563218396" result="result1"/>
   <feConvolveMatrix bias="-0.064794816414687206" divisor="7.5127478753541075" kernelMatrix="5 0 0 0 0 0 0 0 -5 " order="3 3"/>
   <feSpecularLighting lighting-color="#ffe1ae" specularConstant="0.87527353" surfaceScale="2">
    <feDistantLight azimuth="79"/>
   </feSpecularLighting>
   <feGaussianBlur stdDeviation="0.0006588556"/>
   <feComposite in2="SourceGraphic"/>
   <feComposite in2="SourceGraphic" operator="in"/>
  </filter>
  <filter id="c" x="-.034817" y="-.0046496" width="1.0696" height="1.0093">
   <feTurbulence baseFrequency="0.0045977011494252873 0.30252873563218396" result="result1"/>
   <feConvolveMatrix bias="-0.064794816414687206" divisor="7.5127478753541075" kernelMatrix="5 0 0 0 0 0 0 0 -5 " order="3 3"/>
   <feSpecularLighting lighting-color="#ffe1ae" specularConstant="0.87527353" surfaceScale="2">
    <feDistantLight azimuth="79"/>
   </feSpecularLighting>
   <feGaussianBlur stdDeviation="1.0155223"/>
   <feComposite in2="SourceGraphic"/>
   <feComposite in2="SourceGraphic" operator="in"/>
  </filter>
  <radialGradient id="e" cx="-159.6" cy="-41.633" r="16.162" gradientTransform="matrix(.015949 0 0 .016094 14.152 6.5046)" gradientUnits="userSpaceOnUse">
   <stop style="stop-color:#fbfbfb" offset="0"/>
   <stop style="stop-color:#1c1c1c" offset="1"/>
  </radialGradient>
  <filter id="l">
   <feGaussianBlur result="result15" stdDeviation="8.5882305630026803"/>
   <feDiffuseLighting diffuseConstant="0" result="result10" surfaceScale="-147.3477478">
    <feDistantLight/>
   </feDiffuseLighting>
   <feSpecularLighting in="result15" result="result14" specularConstant="4.27184486" specularExponent="5.63147783">
    <feDistantLight azimuth="180"/>
   </feSpecularLighting>
   <feComposite in2="result10"/>
   <feBlend blend="normal" in2="SourceGraphic" mode="multiply"/>
   <feComposite in2="SourceGraphic" operator="in"/>
  </filter>
  <linearGradient id="h" x1="-38.621" x2="-38.621" y1="168.14" y2="176.96" gradientTransform="matrix(1.4317 0 0 1 74.463 -162.1)" gradientUnits="userSpaceOnUse" xlink:href="#d"/>
  <linearGradient id="a" x1="84.553" x2="84.553" y1="156.73" y2="171.77" gradientUnits="userSpaceOnUse" xlink:href="#d"/>
 </defs>
 <g transform="translate(22.692 -7.9798)">
  <path d="m-16.809 8.0404h70.659c3.2593 0 5.8832 2.4439 5.8832 5.4797v15.221c0 3.0357-2.6239 5.4797-5.8832 5.4797h-70.659c-3.2593 0-5.8832-2.4439-5.8832-5.4797v-15.221c0-3.0357 2.6239-5.4797 5.8832-5.4797z" style="fill:#0cb02b;paint-order:stroke markers fill;stop-color:#000000"/>
  <path d="m-16.809 21.407h70.659c3.2593 0 5.8832 2.4439 5.8832 5.4797v1.8544c0 3.0357-2.6239 5.4797-5.8832 5.4797h-70.659c-3.2593 0-5.8832-2.4439-5.8832-5.4797v-1.8544c0-3.0357 2.6239-5.4797 5.8832-5.4797z" style="fill:url(#g);paint-order:stroke markers fill;stop-color:#000000"/>
  <path d="m-14.539 8.0372c12.236-0.00258 52.485-0.00129 64.205-0.00129 2.4632-0.055453 4.2343-0.14574 5.5043 0.16773 1.4399 0.35539 2.2549 1.175 3.052 2.1541 0.54521 0.6697 1.0459 1.7847 1.2938 2.833 0.29423 1.2443 0.18065 3.8955 0.18065 3.8955l-10.143-0.0039-72.23 0.37793 0.02426-3.1733s0.06267-1.3856 0.7594-2.7943c0.49061-0.99198 1.4616-2.2584 2.7092-2.8939 1.2803-0.65219 2.1728-0.58632 4.6452-0.56051z" style="fill:url(#f);mix-blend-mode:normal;opacity:.76263;paint-order:stroke markers fill;stop-color:#000000"/>
  <path transform="matrix(.9408 0 0 1.0629 -50.32 -155.9)" d="m57.16 160.05h5.6885v1.203h-2.0464v4.9692h-1.5916v-4.9692h-2.0505z" style="fill:url(#a);filter:url(#b);font-variant-caps:normal;font-variant-east-asian:normal;font-variant-ligatures:normal;font-variant-numeric:normal;opacity:.82444;paint-order:stroke markers fill;text-decoration-color:#000000;text-decoration-line:none"/>
  <path transform="matrix(.9408 0 0 1.0629 -50.32 -155.9)" d="m66.759 165.1h-2.4887l-0.39274 1.1245h-1.5999l2.2862-6.1722h1.8976l2.2862 6.1722h-1.5999zm-2.0919-1.1452h1.6909l-0.84336-2.4557z" style="fill:url(#a);filter:url(#b);font-variant-caps:normal;font-variant-east-asian:normal;font-variant-ligatures:normal;font-variant-numeric:normal;opacity:.82444;paint-order:stroke markers fill;text-decoration-color:#000000;text-decoration-line:none"/>
  <path transform="matrix(.9408 0 0 1.0629 -50.32 -155.9)" d="m69.566 160.05h2.6417q1.1782 0 1.8066 0.52503 0.63252 0.5209 0.63252 1.4883 0 0.97151-0.63252 1.4966-0.62839 0.52089-1.8066 0.52089h-1.0501v2.1415h-1.5916zm1.5916 1.1534v1.7239h0.88057q0.46302 0 0.7152-0.22325 0.25218-0.22737 0.25218-0.64078 0-0.41342-0.25218-0.63666-0.25218-0.22324-0.7152-0.22324z" style="fill:url(#a);filter:url(#b);font-variant-caps:normal;font-variant-east-asian:normal;font-variant-ligatures:normal;font-variant-numeric:normal;opacity:.82444;paint-order:stroke markers fill;text-decoration-color:#000000;text-decoration-line:none"/>
  <path transform="matrix(.9408 0 0 1.0629 -50.32 -155.9)" d="m78.719 160.05h4.2953v1.203h-2.7037v1.1493h2.5425v1.203h-2.5425v2.6169h-1.5916z" style="fill:url(#a);filter:url(#b);font-variant-caps:normal;font-variant-east-asian:normal;font-variant-ligatures:normal;font-variant-numeric:normal;opacity:.82444;paint-order:stroke markers fill;text-decoration-color:#000000;text-decoration-line:none"/>
  <path transform="matrix(.9408 0 0 1.0629 -50.32 -155.9)" d="m87.322 161.09q-0.7276 0-1.1286 0.53743-0.40101 0.53744-0.40101 1.5131 0 0.97152 0.40101 1.509 0.40101 0.53744 1.1286 0.53744 0.73174 0 1.1327-0.53744 0.40101-0.53743 0.40101-1.509 0-0.97565-0.40101-1.5131-0.40101-0.53743-1.1327-0.53743zm0-1.1534q1.4883 0 2.3316 0.85163 0.84336 0.85163 0.84336 2.3523 0 1.4966-0.84336 2.3482-0.84336 0.85163-2.3316 0.85163-1.4841 0-2.3316-0.85163-0.84336-0.85163-0.84336-2.3482 0-1.5007 0.84336-2.3523 0.84749-0.85163 2.3316-0.85163z" style="fill:url(#a);filter:url(#b);font-variant-caps:normal;font-variant-east-asian:normal;font-variant-ligatures:normal;font-variant-numeric:normal;opacity:.82444;paint-order:stroke markers fill;text-decoration-color:#000000;text-decoration-line:none"/>
  <path transform="matrix(.9408 0 0 1.0629 -50.32 -155.9)" d="m93.962 162.78q0.50023 0 0.7152-0.18604 0.21911-0.18604 0.21911-0.61185 0-0.42168-0.21911-0.60358-0.21497-0.1819-0.7152-0.1819h-0.66973v1.5834zm-0.66973 1.0997v2.3358h-1.5916v-6.1722h2.4309q1.2196 0 1.7859 0.40928 0.57051 0.40928 0.57051 1.294 0 0.61185-0.29766 1.0046-0.29352 0.39274-0.88884 0.57877 0.3266 0.0744 0.58291 0.339 0.26045 0.26045 0.52503 0.79375l0.86403 1.7529h-1.695l-0.75241-1.5338q-0.22738-0.46302-0.46302-0.63252-0.23151-0.1695-0.62012-0.1695z" style="fill:url(#a);filter:url(#b);font-variant-caps:normal;font-variant-east-asian:normal;font-variant-ligatures:normal;font-variant-numeric:normal;opacity:.82444;paint-order:stroke markers fill;text-decoration-color:#000000;text-decoration-line:none"/>
  <path d="m2.8763 13.58h5.3518v1.2787h-1.9252v5.2819h-1.4974v-5.2819h-1.9291z" style="font-variant-caps:normal;font-variant-east-asian:normal;font-variant-ligatures:normal;font-variant-numeric:normal;paint-order:stroke markers fill;text-decoration-color:#000000;text-decoration-line:none"/>
  <path d="m11.907 18.946h-2.3414l-0.36949 1.1952h-1.5052l2.1508-6.5606h1.7852l2.1508 6.5606h-1.5052zm-1.968-1.2172h1.5907l-0.79343-2.6102z" style="font-variant-caps:normal;font-variant-east-asian:normal;font-variant-ligatures:normal;font-variant-numeric:normal;paint-order:stroke markers fill;text-decoration-color:#000000;text-decoration-line:none"/>
  <path d="m14.548 13.58h2.4853q1.1085 0 1.6996 0.55807 0.59508 0.55368 0.59508 1.5819 0 1.0327-0.59508 1.5907-0.59118 0.55368-1.6996 0.55368h-0.9879v2.2762h-1.4974zm1.4974 1.226v1.8324h0.82844q0.43561 0 0.67286-0.23729 0.23725-0.24168 0.23725-0.68111t-0.23725-0.67672q-0.23725-0.23729-0.67286-0.23729z" style="font-variant-caps:normal;font-variant-east-asian:normal;font-variant-ligatures:normal;font-variant-numeric:normal;paint-order:stroke markers fill;text-decoration-color:#000000;text-decoration-line:none"/>
  <path d="m23.159 13.58h4.041v1.2787h-2.5436v1.2216h2.392v1.2787h-2.392v2.7816h-1.4974z" style="font-variant-caps:normal;font-variant-east-asian:normal;font-variant-ligatures:normal;font-variant-numeric:normal;paint-order:stroke markers fill;text-decoration-color:#000000;text-decoration-line:none"/>
  <path d="m31.253 14.688q-0.68453 0-1.0618 0.57126-0.37727 0.57126-0.37727 1.6083 0 1.0327 0.37727 1.6039 0.37727 0.57126 1.0618 0.57126 0.68842 0 1.0657-0.57126 0.37727-0.57126 0.37727-1.6039 0-1.037-0.37727-1.6083-0.37727-0.57126-1.0657-0.57126zm0-1.226q1.4002 0 2.1936 0.90522 0.79343 0.90522 0.79343 2.5003 0 1.5907-0.79343 2.4959-0.79343 0.90522-2.1936 0.90522-1.3963 0-2.1936-0.90522-0.79343-0.90522-0.79343-2.4959 0-1.5951 0.79343-2.5003 0.79732-0.90522 2.1936-0.90522z" style="font-variant-caps:normal;font-variant-east-asian:normal;font-variant-ligatures:normal;font-variant-numeric:normal;paint-order:stroke markers fill;text-decoration-color:#000000;text-decoration-line:none"/>
  <path d="m37.499 16.489q0.47061 0 0.67286-0.19774 0.20614-0.19774 0.20614-0.65035 0-0.44822-0.20614-0.64156-0.20224-0.19335-0.67286-0.19335h-0.63008v1.683zm-0.63008 1.1689v2.4828h-1.4974v-6.5606h2.2869q1.1474 0 1.6802 0.43503 0.53673 0.43503 0.53673 1.3754 0 0.65035-0.28003 1.0678-0.27615 0.41746-0.83621 0.6152 0.30726 0.0791 0.5484 0.36033 0.24503 0.27684 0.49395 0.8437l0.81288 1.8632h-1.5946l-0.70786-1.6303q-0.21391-0.49216-0.43561-0.67232-0.2178-0.18016-0.58341-0.18016z" style="font-variant-caps:normal;font-variant-east-asian:normal;font-variant-ligatures:normal;font-variant-numeric:normal;paint-order:stroke markers fill;text-decoration-color:#000000;text-decoration-line:none"/>
  <path transform="matrix(.9408 0 0 1.0629 -58.094 -147.6)" d="m59.487 161.25v3.7662h0.57051q0.97565 0 1.4883-0.48369 0.51676-0.4837 0.51676-1.4056 0-0.91778-0.51263-1.3973-0.51263-0.47956-1.4924-0.47956zm-1.5916-1.203h1.6785q1.4056 0 2.0919 0.20257 0.6904 0.19844 1.1824 0.678 0.43408 0.41754 0.64492 0.96325 0.21084 0.5457 0.21084 1.2361 0 0.69866-0.21084 1.2485-0.21084 0.5457-0.64492 0.96325-0.49609 0.47956-1.1906 0.68213-0.69453 0.19844-2.0836 0.19844h-1.6785z" style="fill:url(#a);filter:url(#b);font-variant-caps:normal;font-variant-east-asian:normal;font-variant-ligatures:normal;font-variant-numeric:normal;opacity:.82444;paint-order:stroke markers fill;text-decoration-color:#000000;text-decoration-line:none"/>
  <path transform="matrix(.9408 0 0 1.0629 -58.228 -147.67)" d="m64.924 160.05h1.5916v6.1722h-1.5916z" style="fill:url(#a);filter:url(#b);font-variant-caps:normal;font-variant-east-asian:normal;font-variant-ligatures:normal;font-variant-numeric:normal;opacity:.82444;paint-order:stroke markers fill;text-decoration-color:#000000;text-decoration-line:none"/>
  <path transform="matrix(.9408 0 0 1.0629 -58.094 -147.6)" d="m70.335 162.78q0.50023 0 0.7152-0.18604 0.21911-0.18604 0.21911-0.61185 0-0.42168-0.21911-0.60358-0.21497-0.1819-0.7152-0.1819h-0.66973v1.5834zm-0.66973 1.0997v2.3358h-1.5916v-6.1722h2.4309q1.2196 0 1.7859 0.40928 0.57051 0.40928 0.57051 1.294 0 0.61185-0.29766 1.0046-0.29352 0.39274-0.88884 0.57877 0.3266 0.0744 0.58291 0.339 0.26045 0.26045 0.52503 0.79375l0.86403 1.7529h-1.695l-0.75241-1.5338q-0.22738-0.46302-0.46302-0.63252-0.23151-0.1695-0.62012-0.1695z" style="fill:url(#a);filter:url(#b);font-variant-caps:normal;font-variant-east-asian:normal;font-variant-ligatures:normal;font-variant-numeric:normal;opacity:.82444;paint-order:stroke markers fill;text-decoration-color:#000000;text-decoration-line:none"/>
  <path transform="matrix(.9408 0 0 1.0629 -58.094 -147.6)" d="m74.593 160.05h4.2953v1.203h-2.7037v1.1493h2.5425v1.203h-2.5425v1.4139h2.7947v1.203h-4.3863z" style="fill:url(#a);filter:url(#b);font-variant-caps:normal;font-variant-east-asian:normal;font-variant-ligatures:normal;font-variant-numeric:normal;opacity:.82444;paint-order:stroke markers fill;text-decoration-color:#000000;text-decoration-line:none"/>
  <path transform="matrix(.9408 0 0 1.0629 -58.094 -147.6)" d="m85.272 165.88q-0.43822 0.22737-0.91364 0.34313-0.47542 0.11576-0.99219 0.11576-1.542 0-2.4433-0.8599-0.90124-0.86403-0.90124-2.3399 0-1.48 0.90124-2.3399 0.90124-0.86403 2.4433-0.86403 0.51676 0 0.99219 0.11575 0.47542 0.11576 0.91364 0.34314v1.2774q-0.44235-0.30179-0.8723-0.44235t-0.90537-0.14056q-0.85163 0-1.3395 0.5457-0.48783 0.5457-0.48783 1.5048 0 0.95498 0.48783 1.5007 0.48782 0.54571 1.3395 0.54571 0.47542 0 0.90537-0.14056t0.8723-0.44235z" style="fill:url(#a);filter:url(#b);font-variant-caps:normal;font-variant-east-asian:normal;font-variant-ligatures:normal;font-variant-numeric:normal;opacity:.82444;paint-order:stroke markers fill;text-decoration-color:#000000;text-decoration-line:none"/>
  <path transform="matrix(.9408 0 0 1.0629 -58.094 -147.6)" d="m85.855 160.05h5.6885v1.203h-2.0464v4.9692h-1.5916v-4.9692h-2.0505z" style="fill:url(#a);filter:url(#b);font-variant-caps:normal;font-variant-east-asian:normal;font-variant-ligatures:normal;font-variant-numeric:normal;opacity:.82444;paint-order:stroke markers fill;text-decoration-color:#000000;text-decoration-line:none"/>
  <path transform="matrix(.9408 0 0 1.0629 -58.094 -147.6)" d="m92.366 160.05h1.5916v6.1722h-1.5916z" style="fill:url(#a);filter:url(#b);font-variant-caps:normal;font-variant-east-asian:normal;font-variant-ligatures:normal;font-variant-numeric:normal;opacity:.82444;paint-order:stroke markers fill;text-decoration-color:#000000;text-decoration-line:none"/>
  <path transform="matrix(.9408 0 0 1.0629 -58.094 -147.6)" d="m98.335 161.09q-0.7276 0-1.1286 0.53743-0.40101 0.53744-0.40101 1.5131 0 0.97152 0.40101 1.509 0.40101 0.53744 1.1286 0.53744 0.73174 0 1.1327-0.53744 0.40101-0.53743 0.40101-1.509 0-0.97565-0.40101-1.5131-0.40101-0.53743-1.1327-0.53743zm0-1.1534q1.4883 0 2.3316 0.85163 0.84336 0.85163 0.84336 2.3523 0 1.4966-0.84336 2.3482-0.84336 0.85163-2.3316 0.85163-1.4841 0-2.3316-0.85163-0.84336-0.85163-0.84336-2.3482 0-1.5007 0.84336-2.3523 0.84749-0.85163 2.3316-0.85163z" style="fill:url(#a);filter:url(#b);font-variant-caps:normal;font-variant-east-asian:normal;font-variant-ligatures:normal;font-variant-numeric:normal;opacity:.82444;paint-order:stroke markers fill;text-decoration-color:#000000;text-decoration-line:none"/>
  <path transform="matrix(.9408 0 0 1.0629 -58.094 -147.6)" d="m102.71 160.05h1.7777l2.2448 4.2333v-4.2333h1.509v6.1722h-1.7777l-2.2448-4.2333v4.2333h-1.509z" style="fill:url(#a);filter:url(#b);font-variant-caps:normal;font-variant-east-asian:normal;font-variant-ligatures:normal;font-variant-numeric:normal;opacity:.82444;paint-order:stroke markers fill;text-decoration-color:#000000;text-decoration-line:none"/>
  <path transform="matrix(.9408 0 0 1.0629 -58.322 -147.63)" d="m114.09 160.24v1.3064q-0.5085-0.22737-0.99219-0.34313-0.48369-0.11575-0.91364-0.11575-0.57051 0-0.84336 0.15709-0.27285 0.1571-0.27285 0.48783 0 0.24805 0.1819 0.38861 0.18603 0.13642 0.66973 0.23564l0.67799 0.13643q1.0294 0.2067 1.4635 0.62838t0.43408 1.1989q0 1.0211-0.60771 1.5214-0.60359 0.4961-1.848 0.4961-0.58705 0-1.1782-0.11163-0.59118-0.11162-1.1824-0.33073v-1.3436q0.59118 0.31419 1.141 0.47542 0.55397 0.1571 1.0666 0.1571 0.5209 0 0.79789-0.17364 0.27698-0.17363 0.27698-0.49609 0-0.28939-0.19017-0.44648-0.18603-0.1571-0.74827-0.28112l-0.61598-0.13643q-0.92605-0.19844-1.356-0.63252-0.42582-0.43408-0.42582-1.17 0-0.92191 0.59531-1.418 0.59532-0.49609 1.7115-0.49609 0.50849 0 1.0459 0.0786 0.53743 0.0744 1.1121 0.22737z" style="fill:url(#a);filter:url(#b);font-variant-caps:normal;font-variant-east-asian:normal;font-variant-ligatures:normal;font-variant-numeric:normal;opacity:.82444;paint-order:stroke markers fill;text-decoration-color:#000000;text-decoration-line:none"/>
  <path transform="matrix(.9408 0 0 1.0629 -58.252 -147.56)" d="m116.31 160.05h1.4883v2.3688l-0.21084 1.7281h-1.0666l-0.21084-1.7281zm0 4.7005h1.4883v1.4718h-1.4883z" style="fill:url(#a);filter:url(#b);font-variant-caps:normal;font-variant-east-asian:normal;font-variant-ligatures:normal;font-variant-numeric:normal;opacity:.82444;paint-order:stroke markers fill;text-decoration-color:#000000;text-decoration-line:none"/>
  <path d="m-2.7306 23.244v4.0032h0.53673q0.91789 0 1.4002-0.51413 0.48617-0.51413 0.48617-1.4941 0-0.97553-0.48228-1.4853-0.48228-0.50974-1.4041-0.50974zm-1.4974-1.2787h1.5791q1.3224 0 1.968 0.21532 0.64952 0.21093 1.1124 0.72066 0.40838 0.44382 0.60674 1.0239 0.19836 0.58004 0.19836 1.3139 0 0.74263-0.19836 1.3271-0.19836 0.58004-0.60674 1.0239-0.46672 0.50974-1.1201 0.72506-0.65341 0.21092-1.9602 0.21092h-1.5791z" style="font-variant-caps:normal;font-variant-east-asian:normal;font-variant-ligatures:normal;font-variant-numeric:normal;paint-order:stroke markers fill;text-decoration-color:#000000;text-decoration-line:none"/>
  <path d="m2.3839 21.966h1.4974v6.5606h-1.4974z" style="font-variant-caps:normal;font-variant-east-asian:normal;font-variant-ligatures:normal;font-variant-numeric:normal;paint-order:stroke markers fill;text-decoration-color:#000000;text-decoration-line:none"/>
  <path d="m7.4751 24.875q0.47061 0 0.67286-0.19774 0.20613-0.19774 0.20613-0.65035 0-0.44822-0.20613-0.64156-0.20225-0.19335-0.67286-0.19335h-0.63008v1.683zm-0.63008 1.1689v2.4828h-1.4974v-6.5606h2.2869q1.1474 0 1.6802 0.43503 0.53673 0.43503 0.53673 1.3754 0 0.65035-0.28004 1.0678-0.27615 0.41746-0.83621 0.6152 0.30726 0.07909 0.5484 0.36033 0.24503 0.27684 0.49395 0.8437l0.81288 1.8632h-1.5946l-0.70786-1.6303q-0.21392-0.49216-0.43561-0.67232-0.2178-0.18016-0.5834-0.18016z" style="font-variant-caps:normal;font-variant-east-asian:normal;font-variant-ligatures:normal;font-variant-numeric:normal;paint-order:stroke markers fill;text-decoration-color:#000000;text-decoration-line:none"/>
  <path d="m11.481 21.966h4.041v1.2787h-2.5436v1.2216h2.392v1.2787h-2.392v1.5028h2.6292v1.2787h-4.1266z" style="font-variant-caps:normal;font-variant-east-asian:normal;font-variant-ligatures:normal;font-variant-numeric:normal;paint-order:stroke markers fill;text-decoration-color:#000000;text-decoration-line:none"/>
  <path d="m21.527 28.166q-0.41227 0.24168-0.85955 0.36472-0.44728 0.12304-0.93345 0.12304-1.4507 0-2.2986-0.91401-0.84788-0.9184-0.84788-2.4872 0-1.5731 0.84788-2.4872 0.84788-0.9184 2.2986-0.9184 0.48617 0 0.93345 0.12304 0.44728 0.12304 0.85955 0.36472v1.3578q-0.41616-0.32078-0.82066-0.47019t-0.85177-0.1494q-0.80121 0-1.2602 0.58004-0.45895 0.58004-0.45895 1.5995 0 1.0151 0.45895 1.5951 0.45894 0.58004 1.2602 0.58004 0.44728 0 0.85177-0.14941 0.4045-0.1494 0.82066-0.47019z" style="font-variant-caps:normal;font-variant-east-asian:normal;font-variant-ligatures:normal;font-variant-numeric:normal;paint-order:stroke markers fill;text-decoration-color:#000000;text-decoration-line:none"/>
  <path d="m22.076 21.966h5.3518v1.2787h-1.9252v5.2819h-1.4974v-5.2819h-1.9291z" style="font-variant-caps:normal;font-variant-east-asian:normal;font-variant-ligatures:normal;font-variant-numeric:normal;paint-order:stroke markers fill;text-decoration-color:#000000;text-decoration-line:none"/>
  <path d="m28.201 21.966h1.4974v6.5606h-1.4974z" style="font-variant-caps:normal;font-variant-east-asian:normal;font-variant-ligatures:normal;font-variant-numeric:normal;paint-order:stroke markers fill;text-decoration-color:#000000;text-decoration-line:none"/>
  <path d="m33.818 23.073q-0.68453 0-1.0618 0.57126-0.37727 0.57126-0.37727 1.6083 0 1.0327 0.37727 1.6039 0.37727 0.57126 1.0618 0.57126 0.68842 0 1.0657-0.57126 0.37727-0.57126 0.37727-1.6039 0-1.037-0.37727-1.6083-0.37727-0.57126-1.0657-0.57126zm0-1.226q1.4002 0 2.1936 0.90522t0.79343 2.5003q0 1.5907-0.79343 2.4959-0.79343 0.90522-2.1936 0.90522-1.3963 0-2.1936-0.90522-0.79343-0.90522-0.79343-2.4959 0-1.5951 0.79343-2.5003 0.79732-0.90522 2.1936-0.90522z" style="font-variant-caps:normal;font-variant-east-asian:normal;font-variant-ligatures:normal;font-variant-numeric:normal;paint-order:stroke markers fill;text-decoration-color:#000000;text-decoration-line:none"/>
  <path d="m37.937 21.966h1.6724l2.1119 4.4997v-4.4997h1.4196v6.5606h-1.6724l-2.1119-4.4997v4.4997h-1.4196z" style="font-variant-caps:normal;font-variant-east-asian:normal;font-variant-ligatures:normal;font-variant-numeric:normal;paint-order:stroke markers fill;text-decoration-color:#000000;text-decoration-line:none"/>
  <path d="m48.644 22.172v1.3886q-0.47839-0.24168-0.93345-0.36472-0.45506-0.12304-0.85955-0.12304-0.53673 0-0.79343 0.16698-0.2567 0.16698-0.2567 0.51852 0 0.26366 0.17113 0.41306 0.17502 0.14501 0.63008 0.25047l0.63786 0.14501q0.96845 0.21971 1.3768 0.66793 0.40838 0.44822 0.40838 1.2743 0 1.0854-0.57174 1.6171-0.56785 0.52731-1.7385 0.52731-0.55229 0-1.1085-0.11864-0.55618-0.11865-1.1124-0.35154v-1.4281q0.55618 0.33396 1.0735 0.50534 0.52117 0.16698 1.0035 0.16698 0.49006 0 0.75065-0.18456 0.26058-0.18456 0.26058-0.52731 0-0.3076-0.17891-0.47458-0.17502-0.16698-0.70398-0.29881l-0.57951-0.14501q-0.87122-0.21092-1.2757-0.67232-0.4006-0.4614-0.4006-1.2436 0-0.97992 0.56007-1.5072 0.56007-0.52731 1.6102-0.52731 0.47839 0 0.98401 0.08349 0.50562 0.07909 1.0462 0.24168z" style="font-variant-caps:normal;font-variant-east-asian:normal;font-variant-ligatures:normal;font-variant-numeric:normal;paint-order:stroke markers fill;text-decoration-color:#000000;text-decoration-line:none"/>
  <path d="m50.725 21.966h1.4002v2.5179l-0.19836 1.8368h-1.0035l-0.19836-1.8368zm0 4.9963h1.4002v1.5644h-1.4002z" style="font-variant-caps:normal;font-variant-east-asian:normal;font-variant-ligatures:normal;font-variant-numeric:normal;paint-order:stroke markers fill;text-decoration-color:#000000;text-decoration-line:none"/>
  <path d="m-15.193 11.983-0.04651 0.0065c-0.1184 0.01652-0.186 0.02901-0.27312 0.06821-0.01837-0.0053-0.03543-0.01544-0.05591-0.01842-0.05872-0.0085-0.1415-0.02264-0.24641 0.05925-0.0013 1e-3 -0.0015 0.0034-3e-3 0.0045l-0.10094-0.02439v0.14987c-0.01257 0.01509-0.02437 0.01552-0.03661 0.04083-0.02513 0.05195 0.0065 0.14323 0.03661 0.21958v5.0473l0.1905 0.04631c1.6744 0.40696 3.3488 0.81391 5.0231 1.2209v11.004l0.18852 0.0473c0.49792 0.12515 0.99585 0.25028 1.4938 0.37542v0.11153l0.22117-0.05577 0.22068 0.05527v-0.11103c0.30149-0.07584 0.60298-0.1517 0.90448-0.22754l0.18852-0.0473v-10.37l2.7486 0.66819v0.01642l0.05245-0.0034 0.44531 0.10804v-0.17128c0.11151-0.03409 0.21563-0.08491 0.2949-0.18024 0.12288-0.14778 0.14261-0.35018 0.10341-0.5472v-4.5032l-0.01385 0.02639c0.0025-0.02085-0.0023-0.03684-0.0039-0.05826l0.05739-0.03137-0.06036-0.01444c-0.0059-0.02645 0.0061-0.05896-5e-3 -0.07717-0.07086-0.11587-0.12134-0.11006-0.15735-0.12398-0.07201-0.02783-0.13207-0.03769-0.20187-0.05128-0.1396-0.02718-0.31955-0.06735-0.32508-0.06971l-0.0193-8e-3 -0.01979-5e-3c-0.96509-0.2346-1.9304-0.4694-2.8955-0.70404v-1.2532l-0.29935 0.06224c-0.09865 0.02055-0.21826 5.1e-4 -0.36912-0.04481-0.15085-0.04542-0.32452-0.11491-0.52794-0.1434l0.01831 3e-3c-0.1432-0.03094-0.31276-0.09532-0.50865-0.13444-0.18231-0.0364-0.40043-0.04114-0.61503 0.04979-0.10626 0.02773-0.21245 0.05541-0.31864 0.08315l0.0475-0.28181-0.46115 0.34804-0.07916-0.02041-0.03563 0.13493c-0.0091 0.01593-0.01761 0.0306-0.02771 0.05029l-0.14349 0.27982 0.08164 0.02091c-0.0023 0.01489 0.0068 0.03654 0.0055 0.05228-0.11836-0.02093-0.25112-0.04428-0.2469-0.04182l-0.03117-0.01792-0.03513-0.0085c-1.371-0.33318-2.7418-0.6666-4.1128-0.9998z" style="filter:url(#i);paint-order:stroke markers fill;stop-color:#000000"/>
  <g transform="translate(-22.692 7.9798)">
   <g transform="matrix(.034198 0 0 .025101 18.142 6.9172)" style="stroke-width:9.0306">
    <path d="m-179.78-101.07 49.538 17.491 32.181-11.362-49.538-17.491z" style="fill:#803300;stroke-linecap:round;stroke-width:18.061"/>
    <path transform="rotate(-90 -112.97 257.35)" d="m230.54 239.8h-696.66l11.362 33.379h696.66z" style="fill:#ffb380;filter:url(#k);stroke-linecap:round;stroke-width:18.056"/>
    <path transform="rotate(-90 -154.49 253.43)" d="m202.58 227.74-17.491 51.382h-696.66l17.491-51.382z" style="fill:#d45500;filter:url(#j);stroke-linecap:round;stroke-width:18.061"/>
    <path transform="matrix(1 .32737 0 1 -396.27 -205.86)" d="m54.548 68.474 341.43 0.59758 16.507-11.209-341.43-0.59758z" style="fill:#803300;filter:url(#c);stroke-linecap:round;stroke-width:18.061"/>
    <path transform="matrix(.8844 .32205 0 .98375 -350.63 -204.5)" d="m395.98 69.071v209.04l16.507-11.209v-209.04z" style="fill:#ffb380;filter:url(#c);stroke-linecap:round;stroke-width:19.363"/>
    <path transform="matrix(1 .32737 0 1 -393.96 -209.79)" d="m54.548 68.474 341.43 0.59758v209.04l-341.43-0.59758z" style="fill:#d45500;filter:url(#c);stroke-linecap:round;stroke-width:18.061"/>
   </g>
   <path transform="matrix(1 0 .19199 .9814 0 0)" d="m11.864 5.8346a0.25778 0.26012 0 0 1-0.25778 0.26012 0.25778 0.26012 0 0 1-0.25778-0.26012 0.25778 0.26012 0 0 1 0.25778-0.26012 0.25778 0.26012 0 0 1 0.25778 0.26012z" style="fill:url(#e)"/>
   <g transform="matrix(.034198 .0093055 0 .024253 38.385 10.436)" style="fill:#a40;filter:url(#l);stroke-width:9.0306">
    <path d="m-873.59 182.96-34.991-82.969 95.143 59.64 116.57 2.1791-16.316-68.518 99.466 96.22-97.007 73.567 14.995-58.837-117.55-0.19059-91.548 55.832z" style="fill:#000;filter:url(#c)"/>
   </g>
  </g>
  <path d="m-14.625 8.4291h66.291c2.2408 0 4.0447 1.2887 4.0447 2.8894v0.68039c0 1.6007-1.8039 2.8894-4.0447 2.8894h-66.291c-2.2408 0-4.0447-1.2887-4.0447-2.8894v-0.68039c0-1.6007 1.8039-2.8894 4.0447-2.8894z" style="fill:url(#h);opacity:.76263;paint-order:stroke markers fill;stop-color:#000000"/>
 </g>
</svg>
