<svg version="1.1" viewBox="0 0 547.53 510.3" xmlns="http://www.w3.org/2000/svg" xmlns:xlink="http://www.w3.org/1999/xlink">
  <defs>
    <linearGradient id="bq" x1="374.98" x2="1113.9" y1="884.03" y2="884.03" gradientTransform="matrix(.55019 0 0 .55019 -619.5 -366.69)" gradientUnits="userSpaceOnUse" xlink:href="#k"/>
    <linearGradient id="k" x1="374.98" x2="1113.9" y1="884.03" y2="884.03" gradientTransform="matrix(.55019 0 0 .55019 -483.6 -63.712)" gradientUnits="userSpaceOnUse" xlink:href="#j">
      <stop style="stop-color:#081b0a" offset="0"/>
      <stop style="stop-color:#386e3b" offset=".6075"/>
      <stop style="stop-color:#3b7a5c" offset="1"/>
    </linearGradient>
    <linearGradient id="j" x1="373.87" x2="1115.1" y1="804" y2="804" gradientTransform="matrix(.26458 0 0 .26458 -6.406 271.36)" gradientUnits="userSpaceOnUse">
      <stop style="stop-color:#232f2e" offset="0"/>
      <stop style="stop-color:#356456" offset="1"/>
    </linearGradient>
    <linearGradient id="bp" x1="-634.62" x2="-438.46" y1="179.3" y2="179.3" gradientTransform="matrix(2.0795 0 0 2.0795 905.82 -252.83)" gradientUnits="userSpaceOnUse" xlink:href="#i"/>
    <linearGradient id="i" x1="665.94" x2="901.72" y1="284.64" y2="284.64" gradientUnits="userSpaceOnUse">
      <stop style="stop-color:#0cb02b" offset="0"/>
      <stop style="stop-color:#376f49" offset=".6675"/>
      <stop style="stop-color:#0cb02b" offset="1"/>
    </linearGradient>
    <linearGradient id="af" x1="97.246" x2="280.59" y1="503.04" y2="459.53" gradientTransform="matrix(2.0795 0 0 2.0795 -606.18 -930.98)" gradientUnits="userSpaceOnUse">
      <stop style="stop-color:#d8ed9e" offset="0"/>
      <stop style="stop-color:#0cb02b" offset="1"/>
    </linearGradient>
    <linearGradient id="ah" x1="787.82" x2="1195.6" y1="378.64" y2="378.64" gradientTransform="translate(-1201.6 -302.98)" gradientUnits="userSpaceOnUse" xlink:href="#g"/>
    <linearGradient id="g" x1="637.3" x2="920.49" y1="505.83" y2="505.83" gradientUnits="userSpaceOnUse">
      <stop style="stop-color:#00ff3a" offset="0"/>
      <stop style="stop-color:#3b7a5c" offset=".1041"/>
      <stop style="stop-color:#62aa8d" offset=".2777"/>
      <stop style="stop-color:#00ff3a" offset=".4994"/>
      <stop style="stop-color:#d9e8ce" offset=".7575"/>
      <stop style="stop-color:#00ff3a" offset="1"/>
    </linearGradient>
    <radialGradient id="e" cx="-915.59" cy="255.82" r="5.3297" gradientTransform="matrix(2.2091 0 0 1.2774 2846.1 -11.189)" gradientUnits="userSpaceOnUse" xlink:href="#bu"/>
    <linearGradient id="bu">
      <stop style="stop-color:#66b379" offset="0"/>
      <stop style="stop-color:#a8e7bd" offset=".95608"/>
      <stop style="stop-color:#00ff3a;stop-opacity:.47013" offset="1"/>
    </linearGradient>
    <radialGradient id="d" cx="-915.6" cy="255.82" r="7.6234" gradientTransform="matrix(1.3677 0 0 .73727 202.36 67.212)" gradientUnits="userSpaceOnUse" xlink:href="#bs"/>
    <linearGradient id="bs">
      <stop style="stop-color:#fffffd" offset="0"/>
      <stop style="stop-color:#73f4af;stop-opacity:.65175" offset=".80916"/>
      <stop style="stop-color:#c1fbd6;stop-opacity:0" offset="1"/>
    </linearGradient>
    <radialGradient id="c" cx="-915.6" cy="255.82" r=".81783" gradientTransform="matrix(6.0538 0 0 3.5008 4492.9 -639.75)" gradientUnits="userSpaceOnUse" xlink:href="#bt"/>
    <linearGradient id="bt">
      <stop style="stop-color:#1b4635" offset="0"/>
      <stop style="stop-color:#1b4635;stop-opacity:0" offset="1"/>
    </linearGradient>
    <radialGradient id="b" cx="-915.6" cy="255.82" r=".81783" gradientTransform="matrix(8.8452 0 0 5.115 8922.2 -992.94)" gradientUnits="userSpaceOnUse" xlink:href="#br"/>
    <linearGradient id="br">
      <stop style="stop-color:#fffffd" offset="0"/>
      <stop style="stop-color:#fffffd" offset=".46028"/>
      <stop style="stop-color:#1b4635;stop-opacity:0" offset="1"/>
    </linearGradient>
    <linearGradient id="bo" x1="-916.57" x2="-916.32" y1="257.6" y2="156.71" gradientTransform="matrix(.93676 0 .0022814 .93675 497.93 -131.63)" gradientUnits="userSpaceOnUse" xlink:href="#f"/>
    <linearGradient id="f">
      <stop style="stop-color:#fffffd" offset="0"/>
      <stop style="stop-color:#d8ed9e" offset=".46028"/>
      <stop style="stop-color:#49e554;stop-opacity:.6547" offset=".87575"/>
      <stop style="stop-color:#def0da;stop-opacity:.18824" offset=".89667"/>
      <stop style="stop-color:#d8eed3;stop-opacity:0" offset="1"/>
    </linearGradient>
    <linearGradient id="ae" x1="-916.57" x2="-916.32" y1="257.6" y2="156.71" gradientTransform="matrix(.93676 0 .0022814 .93675 587.71 -80.846)" gradientUnits="userSpaceOnUse" xlink:href="#f"/>
    <linearGradient id="ag" x1="-916.57" x2="-916.32" y1="257.6" y2="156.71" gradientTransform="matrix(.93676 0 .0022814 .93675 542.56 -107.48)" gradientUnits="userSpaceOnUse" xlink:href="#f"/>
    <linearGradient id="bn" x1="-916.57" x2="-916.32" y1="257.6" y2="156.71" gradientTransform="matrix(.93676 0 .0022814 .93675 606.99 -196.28)" gradientUnits="userSpaceOnUse" xlink:href="#f"/>
    <linearGradient id="bm" x1="-916.57" x2="-916.32" y1="257.6" y2="156.71" gradientTransform="matrix(.93676 0 .0022814 .93675 696.77 -145.5)" gradientUnits="userSpaceOnUse" xlink:href="#f"/>
    <linearGradient id="bl" x1="-916.57" x2="-916.32" y1="257.6" y2="156.71" gradientTransform="matrix(.93676 0 .0022814 .93675 648.79 -172.87)" gradientUnits="userSpaceOnUse" xlink:href="#f"/>
    <linearGradient id="bk" x1="-916.57" x2="-916.32" y1="257.6" y2="156.71" gradientTransform="matrix(.93676 0 .0022814 .93675 688.01 -242.91)" gradientUnits="userSpaceOnUse" xlink:href="#f"/>
    <linearGradient id="bj" x1="-916.57" x2="-916.32" y1="257.6" y2="156.71" gradientTransform="matrix(.93676 0 .0022814 .93675 777.79 -192.13)" gradientUnits="userSpaceOnUse" xlink:href="#f"/>
    <linearGradient id="bi" x1="-916.57" x2="-916.32" y1="257.6" y2="156.71" gradientTransform="matrix(.93676 0 .0022814 .93675 729.81 -219.5)" gradientUnits="userSpaceOnUse" xlink:href="#f"/>
    <radialGradient id="w" cx="-931.62" cy="9.7037" r="17.5" gradientTransform="matrix(1 0 0 .75 896.33 196.89)" gradientUnits="userSpaceOnUse" xlink:href="#a"/>
    <linearGradient id="a" x1="665.86" x2="901.72" y1="389.87" y2="389.87" gradientTransform="matrix(.55019 0 0 .55019 -1361.7 288.11)" gradientUnits="userSpaceOnUse">
      <stop style="stop-color:#1e5024" offset="0"/>
      <stop style="stop-color:#386e3b" offset=".6075"/>
      <stop style="stop-color:#67d49c" offset="1"/>
    </linearGradient>
    <radialGradient id="v" cx="-949.17" cy="102.5" r="17.632" gradientTransform="translate(17.412 -15.251)" gradientUnits="userSpaceOnUse" xlink:href="#a"/>
    <linearGradient id="bh" x1="-966.8" x2="-931.54" y1="102.5" y2="102.5" gradientTransform="translate(17.412 -15.251)" gradientUnits="userSpaceOnUse" xlink:href="#h"/>
    <linearGradient id="h">
      <stop style="stop-color:#306133" offset="0"/>
      <stop style="stop-color:#306133;stop-opacity:0" offset="1"/>
    </linearGradient>
    <radialGradient id="u" cx="-908.06" cy="130.34" r="17.632" gradientTransform="matrix(.99243 0 0 .99243 11.078 -13.886)" gradientUnits="userSpaceOnUse" xlink:href="#a"/>
    <linearGradient id="bg" x1="-925.69" x2="-890.43" y1="130.34" y2="130.34" gradientTransform="matrix(.99243 0 0 .99243 11.078 -13.886)" gradientUnits="userSpaceOnUse" xlink:href="#h"/>
    <radialGradient id="t" cx="-898.3" cy="52.446" r="15" gradientTransform="matrix(1 0 0 1.3333 89.287 4.118)" gradientUnits="userSpaceOnUse" xlink:href="#a"/>
    <radialGradient id="s" cx="-860.74" cy="158.08" r="17.632" gradientTransform="matrix(1 0 0 .70536 18.086 31.835)" gradientUnits="userSpaceOnUse" xlink:href="#a"/>
    <linearGradient id="bf" x1="-878.38" x2="-843.11" y1="158.08" y2="158.08" gradientTransform="translate(18.086 -14.741)" gradientUnits="userSpaceOnUse" xlink:href="#h"/>
    <radialGradient id="r" cx="-1039.7" cy="155.47" r="15.445" gradientTransform="matrix(1 0 0 1.1416 816.72 135.61)" gradientUnits="userSpaceOnUse" xlink:href="#a"/>
    <linearGradient id="be" x1="-1055.2" x2="-1024.3" y1="155.47" y2="155.47" gradientTransform="translate(816.72 157.62)" gradientUnits="userSpaceOnUse" xlink:href="#h"/>
    <radialGradient id="q" cx="-995.66" cy="176.57" r="17.632" gradientTransform="translate(1.891 .50642)" gradientUnits="userSpaceOnUse" xlink:href="#a"/>
    <linearGradient id="bd" x1="-1013.3" x2="-978.03" y1="176.57" y2="176.57" gradientTransform="translate(1.891 .50642)" gradientUnits="userSpaceOnUse" xlink:href="#h"/>
    <radialGradient id="p" cx="-866.05" cy="108.78" r="17.5" gradientTransform="matrix(1 0 0 .99996 921.75 150.27)" gradientUnits="userSpaceOnUse" xlink:href="#a"/>
    <radialGradient id="o" cx="-951.51" cy="205.15" r="17.632" gradientTransform="translate(682.48 -145.36)" gradientUnits="userSpaceOnUse" xlink:href="#a"/>
    <linearGradient id="bc" x1="-969.14" x2="-933.88" y1="205.15" y2="205.15" gradientTransform="translate(682.48 -145.36)" gradientUnits="userSpaceOnUse" xlink:href="#h"/>
    <linearGradient id="ad" x1="-731.98" x2="-669.62" y1="519.51" y2="519.51" gradientTransform="matrix(4.2462 0 0 4.2074 4161.4 -1618)" gradientUnits="userSpaceOnUse" xlink:href="#i"/>
    <linearGradient id="ac" x1="-874.85" x2="-612.46" y1="502.69" y2="502.69" gradientTransform="translate(1928.7 125.19)" gradientUnits="userSpaceOnUse" xlink:href="#a"/>
    <linearGradient id="ab" x1="-876.4" x2="-611.12" y1="503.31" y2="503.31" gradientTransform="translate(1929.5 126.53)" gradientUnits="userSpaceOnUse" xlink:href="#g"/>
    <linearGradient id="y" x1="665.94" x2="901.72" y1="284.64" y2="284.64" gradientTransform="matrix(.55019 0 0 .55019 796.29 69.028)" gradientUnits="userSpaceOnUse" xlink:href="#i"/>
    <linearGradient id="ba" x1="664.69" x2="902.97" y1="284.64" y2="284.64" gradientTransform="matrix(.55019 0 0 .55019 796.67 68.368)" gradientUnits="userSpaceOnUse" xlink:href="#m"/>
    <linearGradient id="m" x1="664.69" x2="902.97" y1="284.64" y2="284.64" gradientTransform="matrix(.55019 0 0 .55019 -1091.7 -158.74)" gradientUnits="userSpaceOnUse">
      <stop style="stop-color:#c1fbd6" offset="0"/>
      <stop style="stop-color:#5db661" offset=".1675"/>
      <stop style="stop-color:#70cda3" offset=".5269"/>
      <stop style="stop-color:#d1fbd7" offset="1"/>
    </linearGradient>
    <linearGradient id="bb" x1="637.3" x2="920.49" y1="505.83" y2="505.83" gradientTransform="matrix(.55019 0 0 .55019 798.88 28.386)" gradientUnits="userSpaceOnUse" xlink:href="#g"/>
    <linearGradient id="aa" x1="665.86" x2="901.72" y1="389.87" y2="389.87" gradientTransform="matrix(.55019 0 0 .55019 796.29 69.028)" gradientUnits="userSpaceOnUse" xlink:href="#a"/>
    <linearGradient id="z" x1="664.61" x2="902.97" y1="390.5" y2="390.5" gradientTransform="matrix(.55019 0 0 .55019 796.29 69.028)" gradientUnits="userSpaceOnUse" xlink:href="#l"/>
    <linearGradient id="l" x1="664.61" x2="902.97" y1="390.5" y2="390.5" gradientTransform="matrix(.55019 0 0 .55019 -264.05 8.1616)" gradientUnits="userSpaceOnUse">
      <stop style="stop-color:#70cda3" offset="0"/>
      <stop style="stop-color:#00ff3a" offset=".1675"/>
      <stop style="stop-color:#c1fbd6" offset=".5269"/>
      <stop style="stop-color:#245739" offset="1"/>
    </linearGradient>
    <linearGradient id="az" x1="-662.69" x2="-587.71" y1="284.27" y2="284.27" gradientTransform="matrix(1.048 0 0 1.048 1756.3 -65.43)" gradientUnits="userSpaceOnUse" xlink:href="#g"/>
    <linearGradient id="ay" x1="1035.2" x2="1278.5" y1="582.65" y2="582.65" gradientUnits="userSpaceOnUse" xlink:href="#i"/>
    <linearGradient id="ax" x1="-655.55" x2="-591.13" y1="283.68" y2="283.68" gradientTransform="translate(1725.7 -47.877)" gradientUnits="userSpaceOnUse" xlink:href="#i"/>
    <linearGradient id="aw" x1="-655.65" x2="-591.02" y1="275.42" y2="275.42" gradientTransform="translate(1725.7 -47.877)" gradientUnits="userSpaceOnUse" xlink:href="#g"/>
    <linearGradient id="av" x1="-655.65" x2="-591.04" y1="283.73" y2="283.73" gradientTransform="translate(1725.6 -47.612)" gradientUnits="userSpaceOnUse" xlink:href="#g"/>
    <linearGradient id="x" x1="827.78" x2="827.78" y1="815.24" y2="150.72" gradientTransform="matrix(.55019 0 0 .55019 739.55 97.551)" gradientUnits="userSpaceOnUse">
      <stop style="stop-color:#d8ed9e" offset="0"/>
      <stop style="stop-color:#d8ed9e;stop-opacity:0" offset=".9861"/>
    </linearGradient>
    <clipPath id="bv">
      <path d="m11378 3792c4.4-3.77 9.4-7.04 14.9-9.48l271-122.05c32-14.39 69.6-0.1 84 31.94l5 10.92c14.4 32.04 0.1 69.7-31.9 84.08l-271 121.94c-4.5 2.05-9.1 3.48-13.7 4.4z"/>
    </clipPath>
    <linearGradient id="au" x2="1" gradientTransform="matrix(683.96 151.41 151.41 -683.96 11410 3749.5)" gradientUnits="userSpaceOnUse">
      <stop style="stop-color:#051f0b" offset="0"/>
      <stop style="stop-color:#245739" offset=".21343"/>
      <stop style="stop-color:#01064a" offset="1"/>
    </linearGradient>
    <clipPath id="cg">
      <path d="m12342 3401.9s-0.7-16.5 1.6-30.05c2.3-13.57 13.8-60.73-5.7-68.66-19.6-7.94-61.4-3.48-73.7-0.31-12.2 3.16-16.1 7.55-16.6 18.22-0.6 10.67 3.5 34.79 7.9 40.84 4.4 6.06 16.7 30.38 17.1 41.91l0.6 15.17 69.7-1.85z"/>
    </clipPath>
    <radialGradient id="n" cx="12548" cy="3158.5" r="50.759" gradientTransform="matrix(.20956 -1.5414e-6 8.7152e-6 1.1849 9918.2 -620.97)" gradientUnits="userSpaceOnUse">
      <stop style="stop-color:#decba2" offset="0"/>
      <stop style="stop-color:#dac691" offset=".53703"/>
      <stop style="stop-color:#decba2" offset="1"/>
    </radialGradient>
    <clipPath id="cf">
      <path d="m12333 4071.4s35.1-23.92 34.6-222.57c-0.5-198.64-12.7-386.36-9.2-438.04 0 0-52.4-1.32-92.5 2.59-30.4 2.94-29.5 566.04-29.5 566.04s11.8 139.24 96.6 91.98z"/>
    </clipPath>
    <linearGradient id="at" x2="1" gradientTransform="matrix(131.23 0 0 -131.23 12236 3745.9)" gradientUnits="userSpaceOnUse">
      <stop style="stop-color:#07140a" offset="0"/>
      <stop style="stop-color:#245739" offset=".79909"/>
      <stop style="stop-color:#031908" offset="1"/>
    </linearGradient>
    <clipPath id="ce">
      <path d="m12111 2152.6h-0.1c-2-7.97-5.2-14.28-10.4-17.72-44.1-22.92-104.7 7.97-104.7 7.97v10.29c-19 11.4-99.9 9.2-116.3 12.63-16.3 3.44-35.3 7.97-80.8 34.33-12.2 7-16.8 13.58-15.9 19.35 2 15.65 43.4 25.13 76.6 21.83 45.4-4.53 99.7 0 99.7 0 25.3 37.75 152.6 15.93 152.6 15.93s-0.7-10.44 0-29.66c0.7-14.41 5.5-51.48-0.7-74.95z"/>
    </clipPath>
    <linearGradient id="as" x2="1" gradientTransform="matrix(0 -80.551 -80.551 0 11949 2245)" gradientUnits="userSpaceOnUse">
      <stop style="stop-color:#e3fae1" offset="0"/>
      <stop style="stop-color:#232f2e" offset=".43296"/>
      <stop style="stop-color:#0c161f" offset="1"/>
    </linearGradient>
    <clipPath id="cd">
      <path d="m12111 2152.6c-2-7.97-5.2-14.28-10.4-17.72-44.1-22.92-104.7 7.97-104.7 7.97v10.29c-19 11.4-99.9 9.2-116.3 12.63-16.3 3.44-35.3 7.97-80.8 34.33-12.2 7-16.8 13.58-15.9 19.35 3.5-2.33 58.7-40.77 82.5-43.1 24.7-2.61 104.3-0.82 125.9-7.69 21.9-6.86 90.5-30.34 119.7-16.06z"/>
    </clipPath>
    <clipPath id="cc">
      <path d="m12325 2262.4h-0.2c-1.9-7.97-5.1-14.28-10.3-17.7-44.1-22.93-104.7 7.96-104.7 7.96v10.29c-19 11.4-99.9 9.2-116.3 12.63s-35.3 7.96-80.8 34.32c-12.3 7-16.8 13.6-15.9 19.36 2 15.64 43.4 25.12 76.6 21.82 45.4-4.53 99.7 0 99.7 0 25.3 37.76 152.6 15.93 152.6 15.93s-0.7-10.43 0-29.66c0.6-14.41 5.5-51.47-0.7-74.95z"/>
    </clipPath>
    <linearGradient id="ar" x2="1" gradientTransform="matrix(0 -89.513 -89.513 0 12163 2370.3)" gradientUnits="userSpaceOnUse">
      <stop style="stop-color:#b3d2b2" offset="0"/>
      <stop style="stop-color:#232f2e" offset=".43296"/>
      <stop style="stop-color:#0c161f" offset="1"/>
    </linearGradient>
    <clipPath id="cb">
      <path d="m12325 2262.4c-1.9-7.97-5.1-14.28-10.3-17.7-44.1-22.93-104.7 7.96-104.7 7.96v10.29c-19 11.4-99.9 9.2-116.3 12.63s-35.3 7.96-80.8 34.32c-12.3 7-16.8 13.6-15.9 19.36 3.5-2.34 58.7-40.77 82.5-43.11 24.7-2.61 104.3-0.82 125.9-7.68 21.9-6.87 90.5-30.35 119.6-16.07z"/>
    </clipPath>
    <linearGradient id="aq" x2="1" gradientTransform="matrix(328.13 0 0 -328.13 11997 2282.7)" gradientUnits="userSpaceOnUse" xlink:href="#linearGradient35631">
      <stop style="stop-color:#a3b99a" offset="0"/>
      <stop style="stop-color:#305e35" offset=".28764"/>
      <stop style="stop-color:#0c161f" offset="1"/>
    </linearGradient>
    <linearGradient id="ap" x2="1" gradientTransform="matrix(13.788 -.43771 .43771 13.788 1186.4 524.33)" gradientUnits="userSpaceOnUse">
      <stop style="stop-color:#3b7a5c" offset="0"/>
      <stop style="stop-color:#0c161f" offset=".21343"/>
      <stop style="stop-color:#1b4635" offset="1"/>
    </linearGradient>
    <linearGradient id="ao" x2=".55477" y2="-.023902" gradientTransform="matrix(17.879 0 0 17.879 1170.5 533.01)" gradientUnits="userSpaceOnUse">
      <stop style="stop-color:#70836a" offset="0"/>
      <stop style="stop-color:#376f49" offset=".28764"/>
      <stop style="stop-color:#0c161f" offset="1"/>
    </linearGradient>
    <clipPath id="ca">
      <path d="m12205 4092.1c-12.7-13.16-48.3-36.02-78.6-43.74-17-4.29-36.3-3.28-49.8-1.57-10.8 1.43-18 3.29-18 3.29s0.6 11.14-5.7 31.73c-3.2-2.58-27.8-2.01-51.1 4.86-23.4 6.85-37.3 83.61-42.8 88.75-5.7 5.29-1 31.74 2 47.6 3.2 15.72-9.6 17.29-16.8 34.88-12.8 36.02 10.2 96.34 10.2 96.34 146.5 110.05 242.3-193.39 239.3-207.97-3-14.73 11.3-54.17 11.3-54.17z"/>
    </clipPath>
    <linearGradient id="an" x2="1" gradientTransform="matrix(264.74 0 0 -264.74 11940 4211.8)" gradientUnits="userSpaceOnUse">
      <stop style="stop-color:#decba2" offset="0"/>
      <stop style="stop-color:#dac691" offset="1"/>
    </linearGradient>
    <clipPath id="bz">
      <path d="m12108 4117s-7.8-47.6-31.8-70.18c-10.8 1.43-18 3.29-18 3.29s0.6 11.14-5.7 31.73c0 0 35.8 9 55.5 35.16z"/>
    </clipPath>
    <clipPath id="by">
      <path d="m11950 4341.8s31.6-3.24 48.1-49.62c5.5-22.37 4.4-66.76 2.4-73.12l16.6-2.15s3.1 27.58 19.4 27.85c21.4 0.36 31.3-22.14 27.8-44.24-3.5-22.11 39.1-61.07 58.8-69.03 19.6-7.98 51.9-12.96 71.1-1.1 19.3 11.87 18 59.88 40.5 120.12 22.5 60.23 28.6 123.52-24.2 161.09-52.9 37.58-113.3 33.72-144.8 29.71s-61.5-28.98-121.6-18.83c-43.3 7.32-42-57.65 5.9-80.68z"/>
    </clipPath>
    <linearGradient id="am" x2="1" gradientTransform="matrix(171.94 -336.2 -336.2 -171.94 12039 4453.3)" gradientUnits="userSpaceOnUse">
      <stop style="stop-color:#61686e" offset="0"/>
      <stop style="stop-color:#0c161f" offset=".20091"/>
      <stop offset="1"/>
    </linearGradient>
    <linearGradient id="al" x2="1" gradientTransform="matrix(34.226 0 0 34.226 1168.1 466.76)" gradientUnits="userSpaceOnUse">
      <stop style="stop-color:#232f2e" offset="0"/>
      <stop style="stop-color:#245739" offset=".21343"/>
      <stop style="stop-color:#0c161f" offset="1"/>
    </linearGradient>
    <linearGradient id="ak" x1="11891" x2="12358" y1="3614.4" y2="3614.4" gradientTransform="matrix(.073358 0 0 -.073358 295.76 731.91)" gradientUnits="userSpaceOnUse">
      <stop style="stop-color:#232f2e" offset="0"/>
      <stop style="stop-color:#0c161f" offset=".6075"/>
      <stop style="stop-color:#0c161f" offset="1"/>
    </linearGradient>
    <clipPath id="bx">
      <path d="m11443 3896.8s-47.7 23.87-79.2 37.73c-31.4 13.85-48.6 22.49-52.1 8.61-3.6-13.87 35.3-34.57 52.3-48.77 0 0-31.8-17.48-21.1-69.46 15.4-18.25 56.8-33.43 56.8-33.43z"/>
    </clipPath>
    <linearGradient id="aj" x2="1" gradientTransform="matrix(131.62 0 0 -131.62 11312 3870.8)" gradientUnits="userSpaceOnUse">
      <stop style="stop-color:#dac691" offset="0"/>
      <stop style="stop-color:#decba2" offset=".92316"/>
      <stop style="stop-color:#decba2" offset="1"/>
    </linearGradient>
    <clipPath id="bw">
      <path d="m11737 3659.8 310.9 195.56c28.4 17.87 37 55.38 19.1 83.79l-10.7 17c-17.9 28.41-55.4 36.96-83.8 19.1l-310.9-195.58c-28.4-17.86-37-55.38-19.1-83.78l10.7-17.01c17.9-28.41 55.4-36.96 83.8-19.08z"/>
    </clipPath>
    <linearGradient id="ai" x1="-.1343" x2="1" y1=".38352" gradientTransform="matrix(687.42 152.18 152.18 -687.42 11414 3719.8)" gradientUnits="userSpaceOnUse">
      <stop style="stop-color:#232f2e" offset="0"/>
      <stop style="stop-color:#232f2e" offset=".28755"/>
      <stop style="stop-color:#225137" offset="1"/>
    </linearGradient>
  </defs>
  <g transform="translate(413.84 182.7)">
    <path d="m-72.982-123.85c0.9355 0 203.68 116.7 203.68 116.7l1.8375 111.95-91.149 65.168" style="fill:none;stroke-linecap:round;stroke-linejoin:round;stroke-width:2.3;stroke:#15b332"/>
    <path d="m-66.639-2.2533 97.591-61.825" style="fill:none;stroke-width:2.3;stroke:#15b332"/>
    <path d="m-85.112-122.9c0.9355 0 209.56 119.89 209.56 119.89l0.894 105.08-96.082 68.848" style="fill:none;stroke-linecap:round;stroke-linejoin:round;stroke-width:2.3;stroke:#15b332"/>
    <path d="m-72.487-5.3791 97.591-61.825" style="fill:none;stroke-width:2.3;stroke:#15b332"/>
    <path d="m-77.824-8.2054 97.591-61.825" style="fill:none;stroke-width:2.3;stroke:#15b332"/>
    <path d="m-15.837 20.584-99.639-57.495c-12.214-7.0424-31.911-7.0424-44.07 0l-244.56 142.11c-12.104 7.0424-12.049 18.486 0.1651 25.529l99.639 57.55c12.214 7.0424 31.911 7.0424 44.07 0l244.56-142.11c12.104-7.0974 12.049-18.541-0.1652-25.584z" fill="url(#SVGID_31_)" style="fill:#07140a;stroke-width:.26458"/>
    <path d="m-15.726 46.113-244.56 142.11c-12.104 7.0424-31.856 7.0424-44.07 0l-99.584-57.495c-6.1621-3.5212-9.1881-8.1978-9.1881-12.819l-0.055 12.379c0 4.6216 3.081 9.2982 9.1881 12.819l99.639 57.55c12.214 7.0424 31.911 7.0424 44.07 0l244.56-142.11c5.997-3.5212 9.0231-8.0877 9.0231-12.654l0.055-12.379c0 4.5115-3.0261 9.0781-9.0781 12.599z" fill="url(#k)" style="fill:url(#bq);stroke-width:.26458"/>
    <path d="m-282.29 206.55c-8.4179 0-16.396-1.9256-22.393-5.3918l-99.639-57.495c-6.1621-3.5762-9.5183-8.3078-9.5183-13.425l0.055-12.379h1.3205c0 4.6216 3.136 8.9681 8.858 12.269l99.639 57.55c5.832 3.3561 13.535 5.1717 21.732 5.1717s15.9-1.8706 21.677-5.1717l244.56-142.11c5.612-3.2461 8.693-7.5376 8.7481-12.104h1.3204l-0.055 12.379c0 5.0067-3.3561 9.7383-9.3532 13.204l-244.56 142.11c-6.052 3.5212-13.975 5.3918-22.393 5.3918zm-130.23-83.354v7.0424c0 4.6216 3.136 8.9681 8.858 12.269l99.639 57.55c5.832 3.3562 13.535 5.1718 21.732 5.1718s15.9-1.8707 21.677-5.1718l244.56-142.11c5.6119-3.2461 8.6929-7.5376 8.748-12.104v-7.0424c-1.4856 2.971-4.2365 5.6669-8.0878 7.9227l-244.56 142.11c-5.942 3.4661-13.865 5.3918-22.338 5.3918-8.4179 0-16.396-1.9257-22.393-5.3918l-99.584-57.55c-3.9613-2.2558-6.7673-5.0617-8.2528-8.0878z" fill="url(#SVGID_33_)" style="fill:url(#bp);stroke-width:.26458"/>
    <path d="m-22.604 42.152-244.56 142.11c-8.3629 4.8417-21.898 4.8417-30.315 0l-99.639-57.55c-8.4178-4.8416-8.4178-12.709-0.11-17.551l244.56-142.11c8.3629-4.8417 21.898-4.8417 30.315 0l10.729 6.1621c1.9807 1.1554 1.9807 3.026 0 4.1264-3.8513 2.2007-3.7963 5.832 0.055 8.0877l57.11 32.956c3.8513 2.2008 10.068 2.2008 13.92 0 1.9807-1.1554 5.1718-1.1554 7.1525 0l10.729 6.1621c8.3629 4.8967 8.4179 12.764 0.055 17.606z" fill="#313747" style="fill:#245739;stroke-width:.26458"/>
    <path d="m-22.714 24.6c8.4179 4.8417 8.4179 12.709 0.11 17.551l-244.56 142.11c-8.3629 4.8417-21.898 4.8417-30.315 0l-99.639-57.55c-8.4179-4.8416-8.4179-12.709-0.11-17.551l244.56-142.11c8.3629-4.8417 21.898-4.8417 30.315 0l10.729 6.1621c1.9807 1.1554 1.9807 3.026 0 4.1264-3.8513 2.2007-3.7963 5.832 0.055 8.0877l57.11 32.956c3.8513 2.2008 10.068 2.2008 13.92 0 1.9807-1.1554 5.1718-1.1554 7.1525 0z" fill="#6de0f5" style="fill:url(#af);stroke-width:.26458"/>
    <path d="m-282.24 194.17c-8.4179 0-16.396-1.9257-22.393-5.3919l-99.639-57.495c-6.1071-3.5212-9.5182-8.3079-9.5182-13.37s3.3011-9.7383 9.3531-13.26l244.56-142.11c5.942-3.4662 13.865-5.3918 22.338-5.3918 8.4179 0 16.396 1.9256 22.393 5.3918l99.639 57.55c6.107 3.5212 9.5182 8.3078 9.5182 13.37 0 5.0617-3.3011 9.7383-9.3532 13.26l-244.56 142.11c-5.997 3.4111-13.92 5.3368-22.338 5.3368zm144.7-235.76c-8.1978 0-15.9 1.8706-21.677 5.1718l-244.56 142.17c-5.612 3.3011-8.748 7.5926-8.748 12.159 0 4.6216 3.136 8.9681 8.858 12.269l99.639 57.55c5.832 3.3561 13.535 5.1717 21.732 5.1717s15.9-1.8706 21.677-5.1717l244.56-142.11c5.6119-3.3011 8.748-7.5926 8.748-12.159 0-4.6216-3.1361-8.9681-8.8581-12.214l-99.639-57.605c-5.832-3.3562-13.535-5.2268-21.732-5.2268z" fill="url(#j)" style="fill:url(#ah);stroke-width:.26458"/>
    <path d="m-53.965 9.5254c0.9903-0.6052 2.6409-0.6052 3.6312 0 0.9904 0.6052 0.9904 1.5405 0 2.0907-0.9903 0.6052-2.6409 0.6052-3.6312 0-0.9903-0.5502-1.0454-1.4855 0-2.0907z" fill="#6de0f5" style="fill:#70cda3;stroke-width:.26458"/>
    <path d="m-91.652-12.207c0.6602-0.3851 1.8156-0.3851 2.4759 0l30.535 17.606c0.7152 0.3851 0.7152 1.0453 0 1.4304-0.6602 0.3852-1.8156 0.3852-2.4758 0l-30.536-17.606c-0.6602-0.3851-0.6602-1.0453 0-1.4305z" fill="#6de0f5" style="fill:#70cda3;stroke-width:.26458"/>
    <g transform="translate(-993.37 -318.15)" fill="#b8edff">
      <path d="m831.78 310.79c-4.5686-2.6873-12.093-2.6873-16.661 0-4.5686 2.6873-4.5686 6.9871 0.09 9.5848 4.5683 2.6873 12.093 2.6873 16.661 0 4.5685-2.5977 4.4789-6.8975-0.09-9.5848z" style="fill:url(#e);stroke-width:.26458"/>
      <g transform="translate(1873.4 59.764)">
        <path d="m-1043.9 252.31c-3.3512-1.9713-8.8707-1.9713-12.222 0-3.3511 1.9713-3.3511 5.1253 0.066 7.0308 3.3512 1.9713 8.8707 1.9713 12.222 0 3.3511-1.9055 3.2854-5.0596-0.066-7.0308z" style="fill:url(#d);stroke-width:.26458"/>
        <path d="m-1046.5 253.81c-1.9213-1.1302-5.0856-1.1302-7.0069 0-1.9212 1.1301-1.9212 2.9384 0.036 4.0308 1.9213 1.1301 5.0856 1.1301 7.0068 0 1.9213-1.0924 1.8836-2.9007-0.036-4.0308z" style="fill:url(#c);stroke-width:.26458"/>
      </g>
      <path d="m828.58 312.64c-2.8072-1.6514-7.4306-1.6514-10.238 0-2.8073 1.6512-2.8073 4.2932 0.047 5.8894 2.807 1.6513 7.4304 1.6513 10.238 0 2.8071-1.5962 2.752-4.2381-0.047-5.8894z" style="fill:url(#b);stroke-width:.26458"/>
    </g>
    <g transform="translate(-951.36 -294.55)" fill="#b8edff">
      <path d="m831.78 310.79c-4.5686-2.6873-12.093-2.6873-16.661 0-4.5686 2.6873-4.5686 6.9871 0.09 9.5848 4.5683 2.6873 12.093 2.6873 16.661 0 4.5685-2.5977 4.4789-6.8975-0.09-9.5848z" style="fill:url(#e);stroke-width:.26458"/>
      <g transform="translate(1873.4 59.764)">
        <path d="m-1043.9 252.31c-3.3512-1.9713-8.8707-1.9713-12.222 0-3.3511 1.9713-3.3511 5.1253 0.066 7.0308 3.3512 1.9713 8.8707 1.9713 12.222 0 3.3511-1.9055 3.2854-5.0596-0.066-7.0308z" style="fill:url(#d);stroke-width:.26458"/>
        <path d="m-1046.5 253.81c-1.9213-1.1302-5.0856-1.1302-7.0069 0-1.9212 1.1301-1.9212 2.9384 0.036 4.0308 1.9213 1.1301 5.0856 1.1301 7.0068 0 1.9213-1.0924 1.8836-2.9007-0.036-4.0308z" style="fill:url(#c);stroke-width:.26458"/>
      </g>
      <path d="m828.58 312.64c-2.8072-1.6514-7.4306-1.6514-10.238 0-2.8073 1.6512-2.8073 4.2932 0.047 5.8894 2.807 1.6513 7.4304 1.6513 10.238 0 2.8071-1.5962 2.752-4.2381-0.047-5.8894z" style="fill:url(#b);stroke-width:.26458"/>
    </g>
    <g transform="translate(-903.37 -267.82)" fill="#b8edff">
      <path d="m831.78 310.79c-4.5686-2.6873-12.093-2.6873-16.661 0-4.5686 2.6873-4.5686 6.9871 0.09 9.5848 4.5683 2.6873 12.093 2.6873 16.661 0 4.5685-2.5977 4.4789-6.8975-0.09-9.5848z" style="fill:url(#e);stroke-width:.26458"/>
      <g transform="translate(1873.4 59.764)">
        <path d="m-1043.9 252.31c-3.3512-1.9713-8.8707-1.9713-12.222 0-3.3511 1.9713-3.3511 5.1253 0.066 7.0308 3.3512 1.9713 8.8707 1.9713 12.222 0 3.3511-1.9055 3.2854-5.0596-0.066-7.0308z" style="fill:url(#d);stroke-width:.26458"/>
        <path d="m-1046.5 253.81c-1.9213-1.1302-5.0856-1.1302-7.0069 0-1.9212 1.1301-1.9212 2.9384 0.036 4.0308 1.9213 1.1301 5.0856 1.1301 7.0068 0 1.9213-1.0924 1.8836-2.9007-0.036-4.0308z" style="fill:url(#c);stroke-width:.26458"/>
      </g>
      <path d="m828.58 312.64c-2.8072-1.6514-7.4306-1.6514-10.238 0-2.8073 1.6512-2.8073 4.2932 0.047 5.8894 2.807 1.6513 7.4304 1.6513 10.238 0 2.8071-1.5962 2.752-4.2381-0.047-5.8894z" style="fill:url(#b);stroke-width:.26458"/>
    </g>
    <g transform="translate(-1074.2 -271.51)" fill="#b8edff">
      <path d="m831.78 310.79c-4.5686-2.6873-12.093-2.6873-16.661 0-4.5686 2.6873-4.5686 6.9871 0.09 9.5848 4.5683 2.6873 12.093 2.6873 16.661 0 4.5685-2.5977 4.4789-6.8975-0.09-9.5848z" style="fill:url(#e);stroke-width:.26458"/>
      <g transform="translate(1873.4 59.764)">
        <path d="m-1043.9 252.31c-3.3512-1.9713-8.8707-1.9713-12.222 0-3.3511 1.9713-3.3511 5.1253 0.066 7.0308 3.3512 1.9713 8.8707 1.9713 12.222 0 3.3511-1.9055 3.2854-5.0596-0.066-7.0308z" style="fill:url(#d);stroke-width:.26458"/>
        <path d="m-1046.5 253.81c-1.9213-1.1302-5.0856-1.1302-7.0069 0-1.9212 1.1301-1.9212 2.9384 0.036 4.0308 1.9213 1.1301 5.0856 1.1301 7.0068 0 1.9213-1.0924 1.8836-2.9007-0.036-4.0308z" style="fill:url(#c);stroke-width:.26458"/>
      </g>
      <path d="m828.58 312.64c-2.8072-1.6514-7.4306-1.6514-10.238 0-2.8073 1.6512-2.8073 4.2932 0.047 5.8894 2.807 1.6513 7.4304 1.6513 10.238 0 2.8071-1.5962 2.752-4.2381-0.047-5.8894z" style="fill:url(#b);stroke-width:.26458"/>
    </g>
    <g transform="translate(-1032.4 -248.15)" fill="#b8edff">
      <path d="m831.78 310.79c-4.5686-2.6873-12.093-2.6873-16.661 0-4.5686 2.6873-4.5686 6.9871 0.09 9.5848 4.5683 2.6873 12.093 2.6873 16.661 0 4.5685-2.5977 4.4789-6.8975-0.09-9.5848z" style="fill:url(#e);stroke-width:.26458"/>
      <g transform="translate(1873.4 59.764)">
        <path d="m-1043.9 252.31c-3.3512-1.9713-8.8707-1.9713-12.222 0-3.3511 1.9713-3.3511 5.1253 0.066 7.0308 3.3512 1.9713 8.8707 1.9713 12.222 0 3.3511-1.9055 3.2854-5.0596-0.066-7.0308z" style="fill:url(#d);stroke-width:.26458"/>
        <path d="m-1046.5 253.81c-1.9213-1.1302-5.0856-1.1302-7.0069 0-1.9212 1.1301-1.9212 2.9384 0.036 4.0308 1.9213 1.1301 5.0856 1.1301 7.0068 0 1.9213-1.0924 1.8836-2.9007-0.036-4.0308z" style="fill:url(#c);stroke-width:.26458"/>
      </g>
      <path d="m828.58 312.64c-2.8072-1.6514-7.4306-1.6514-10.238 0-2.8073 1.6512-2.8073 4.2932 0.047 5.8894 2.807 1.6513 7.4304 1.6513 10.238 0 2.8071-1.5962 2.752-4.2381-0.047-5.8894z" style="fill:url(#b);stroke-width:.26458"/>
    </g>
    <g transform="translate(-984.52 -221.13)" fill="#b8edff">
      <path d="m831.78 310.79c-4.5686-2.6873-12.093-2.6873-16.661 0-4.5686 2.6873-4.5686 6.9871 0.09 9.5848 4.5683 2.6873 12.093 2.6873 16.661 0 4.5685-2.5977 4.4789-6.8975-0.09-9.5848z" style="fill:url(#e);stroke-width:.26458"/>
      <g transform="translate(1873.4 59.764)">
        <path d="m-1043.9 252.31c-3.3512-1.9713-8.8707-1.9713-12.222 0-3.3511 1.9713-3.3511 5.1253 0.066 7.0308 3.3512 1.9713 8.8707 1.9713 12.222 0 3.3511-1.9055 3.2854-5.0596-0.066-7.0308z" style="fill:url(#d);stroke-width:.26458"/>
        <path d="m-1046.5 253.81c-1.9213-1.1302-5.0856-1.1302-7.0069 0-1.9212 1.1301-1.9212 2.9384 0.036 4.0308 1.9213 1.1301 5.0856 1.1301 7.0068 0 1.9213-1.0924 1.8836-2.9007-0.036-4.0308z" style="fill:url(#c);stroke-width:.26458"/>
      </g>
      <path d="m828.58 312.64c-2.8072-1.6514-7.4306-1.6514-10.238 0-2.8073 1.6512-2.8073 4.2932 0.047 5.8894 2.807 1.6513 7.4304 1.6513 10.238 0 2.8071-1.5962 2.752-4.2381-0.047-5.8894z" style="fill:url(#b);stroke-width:.26458"/>
    </g>
    <g transform="translate(-1183.3 -206.83)" fill="#b8edff">
      <path d="m831.78 310.79c-4.5686-2.6873-12.093-2.6873-16.661 0-4.5686 2.6873-4.5686 6.9871 0.09 9.5848 4.5683 2.6873 12.093 2.6873 16.661 0 4.5685-2.5977 4.4789-6.8975-0.09-9.5848z" style="fill:url(#e);stroke-width:.26458"/>
      <g transform="translate(1873.4 59.764)">
        <path d="m-1043.9 252.31c-3.3512-1.9713-8.8707-1.9713-12.222 0-3.3511 1.9713-3.3511 5.1253 0.066 7.0308 3.3512 1.9713 8.8707 1.9713 12.222 0 3.3511-1.9055 3.2854-5.0596-0.066-7.0308z" style="fill:url(#d);stroke-width:.26458"/>
        <path d="m-1046.5 253.81c-1.9213-1.1302-5.0856-1.1302-7.0069 0-1.9212 1.1301-1.9212 2.9384 0.036 4.0308 1.9213 1.1301 5.0856 1.1301 7.0068 0 1.9213-1.0924 1.8836-2.9007-0.036-4.0308z" style="fill:url(#c);stroke-width:.26458"/>
      </g>
      <path d="m828.58 312.64c-2.8072-1.6514-7.4306-1.6514-10.238 0-2.8073 1.6512-2.8073 4.2932 0.047 5.8894 2.807 1.6513 7.4304 1.6513 10.238 0 2.8071-1.5962 2.752-4.2381-0.047-5.8894z" style="fill:url(#b);stroke-width:.26458"/>
    </g>
    <path d="m-360.07 16.56c1.8933 0 3.424 1.5719 3.4261 3.5244l0.094 87.699c0 1.9525-1.3988 2.2635-3.2921 2.2635s-3.1238-0.2431-3.135-2.1956l-0.5015-87.767c-0.011-1.9525 1.5156-3.5244 3.4088-3.5244z" style="fill-rule:evenodd;fill:url(#bo);paint-order:stroke markers fill;stop-color:#000000"/>
    <g transform="translate(-1093.4 -155.62)" fill="#b8edff">
      <path d="m831.78 310.79c-4.5686-2.6873-12.093-2.6873-16.661 0-4.5686 2.6873-4.5686 6.9871 0.09 9.5848 4.5683 2.6873 12.093 2.6873 16.661 0 4.5685-2.5977 4.4789-6.8975-0.09-9.5848z" style="fill:url(#e);stroke-width:.26458"/>
      <g transform="translate(1873.4 59.764)">
        <path d="m-1043.9 252.31c-3.3512-1.9713-8.8707-1.9713-12.222 0-3.3511 1.9713-3.3511 5.1253 0.066 7.0308 3.3512 1.9713 8.8707 1.9713 12.222 0 3.3511-1.9055 3.2854-5.0596-0.066-7.0308z" style="fill:url(#d);stroke-width:.26458"/>
        <path d="m-1046.5 253.81c-1.9213-1.1302-5.0856-1.1302-7.0069 0-1.9212 1.1301-1.9212 2.9384 0.036 4.0308 1.9213 1.1301 5.0856 1.1301 7.0068 0 1.9213-1.0924 1.8836-2.9007-0.036-4.0308z" style="fill:url(#c);stroke-width:.26458"/>
      </g>
      <path d="m828.58 312.64c-2.8072-1.6514-7.4306-1.6514-10.238 0-2.8073 1.6512-2.8073 4.2932 0.047 5.8894 2.807 1.6513 7.4304 1.6513 10.238 0 2.8071-1.5962 2.752-4.2381-0.047-5.8894z" style="fill:url(#b);stroke-width:.26458"/>
    </g>
    <path d="m-270.29 67.343c1.8933 0 3.424 1.5719 3.4261 3.5244l0.094 87.699c0 1.9525-1.3988 2.2635-3.2921 2.2635s-3.1238-0.2431-3.135-2.1956l-0.5015-87.767c-0.011-1.9525 1.5156-3.5244 3.4088-3.5244z" style="fill-rule:evenodd;fill:url(#ae);paint-order:stroke markers fill;stop-color:#000000"/>
    <g transform="translate(-1138.9 -181.64)" fill="#b8edff">
      <path d="m831.78 310.79c-4.5686-2.6873-12.093-2.6873-16.661 0-4.5686 2.6873-4.5686 6.9871 0.09 9.5848 4.5683 2.6873 12.093 2.6873 16.661 0 4.5685-2.5977 4.4789-6.8975-0.09-9.5848z" style="fill:url(#e);stroke-width:.26458"/>
      <g transform="translate(1873.4 59.764)">
        <path d="m-1043.9 252.31c-3.3512-1.9713-8.8707-1.9713-12.222 0-3.3511 1.9713-3.3511 5.1253 0.066 7.0308 3.3512 1.9713 8.8707 1.9713 12.222 0 3.3511-1.9055 3.2854-5.0596-0.066-7.0308z" style="fill:url(#d);stroke-width:.26458"/>
        <path d="m-1046.5 253.81c-1.9213-1.1302-5.0856-1.1302-7.0069 0-1.9212 1.1301-1.9212 2.9384 0.036 4.0308 1.9213 1.1301 5.0856 1.1301 7.0068 0 1.9213-1.0924 1.8836-2.9007-0.036-4.0308z" style="fill:url(#c);stroke-width:.26458"/>
      </g>
      <path d="m828.58 312.64c-2.8072-1.6514-7.4306-1.6514-10.238 0-2.8073 1.6512-2.8073 4.2932 0.047 5.8894 2.807 1.6513 7.4304 1.6513 10.238 0 2.8071-1.5962 2.752-4.2381-0.047-5.8894z" style="fill:url(#b);stroke-width:.26458"/>
    </g>
    <path d="m-315.45 40.71c1.8933 0 3.424 1.5719 3.4261 3.5245l0.094 87.699c0 1.9525-1.3988 2.2634-3.2921 2.2634s-3.1238-0.243-3.135-2.1955l-0.5015-87.767c-0.011-1.9525 1.5156-3.5245 3.4088-3.5245z" style="fill-rule:evenodd;fill:url(#ag);paint-order:stroke markers fill;stop-color:#000000"/>
    <path d="m-251.01-48.093c1.8933 0 3.424 1.5719 3.4261 3.5244l0.094 87.699c0 1.9526-1.3988 2.2635-3.2921 2.2635s-3.1238-0.2431-3.135-2.1956l-0.5015-87.767c-0.011-1.9525 1.5156-3.5244 3.4088-3.5244z" style="fill-rule:evenodd;fill:url(#bn);paint-order:stroke markers fill;stop-color:#000000"/>
    <path d="m-161.23 2.6899c1.8933 0 3.424 1.5719 3.4261 3.5244l0.094 87.699c0 1.9525-1.3988 2.2635-3.2921 2.2635s-3.1238-0.2431-3.135-2.1956l-0.5015-87.767c-0.011-1.9525 1.5156-3.5244 3.4088-3.5244z" style="fill-rule:evenodd;fill:url(#bm);paint-order:stroke markers fill;stop-color:#000000"/>
    <path d="m-209.21-24.682c1.8933 0 3.424 1.5718 3.4261 3.5244l0.094 87.699c0 1.9525-1.3988 2.2635-3.2921 2.2635s-3.1238-0.2431-3.135-2.1956l-0.5015-87.767c-0.011-1.9525 1.5156-3.5244 3.4088-3.5244z" style="fill-rule:evenodd;fill:url(#bl);paint-order:stroke markers fill;stop-color:#000000"/>
    <path d="m-169.99-94.722c1.8933 0 3.424 1.5719 3.4261 3.5244l0.094 87.699c0 1.9526-1.3988 2.2635-3.2921 2.2635s-3.1238-0.2431-3.135-2.1956l-0.5015-87.767c-0.011-1.9525 1.5156-3.5244 3.4088-3.5244z" style="fill-rule:evenodd;fill:url(#bk);paint-order:stroke markers fill;stop-color:#000000"/>
    <path d="m-80.211-43.939c1.8933 0 3.424 1.5719 3.4261 3.5244l0.094 87.699c0 1.9525-1.3988 2.2635-3.2921 2.2635s-3.1238-0.2431-3.135-2.1956l-0.5015-87.767c-0.011-1.9525 1.5156-3.5244 3.4088-3.5244z" style="fill-rule:evenodd;fill:url(#bj);paint-order:stroke markers fill;stop-color:#000000"/>
    <path d="m-128.19-71.311c1.8933 0 3.424 1.5719 3.4261 3.5244l0.094 87.699c0 1.9525-1.3988 2.2635-3.2921 2.2635s-3.1238-0.2431-3.135-2.1956l-0.5015-87.767c-0.011-1.9525 1.5156-3.5244 3.4088-3.5244z" style="fill-rule:evenodd;fill:url(#bi);paint-order:stroke markers fill;stop-color:#000000"/>
    <g transform="translate(-135.9 -302.98)">
      <rect x="-52.708" y="193.57" width="34.827" height="21.191" rx="0" ry="0" style="fill-rule:evenodd;fill:#00ff3a;paint-order:stroke markers fill;stop-color:#000000;stroke-linecap:round;stroke-linejoin:round;stroke-width:.265;stroke:#306133"/>
      <path d="m-18.458 199.71c0.2666-0.21192 0.6631-0.0137 0.6631 0.32129v13.979c0 1.8115-1.4697 3.2812-3.2812 3.2812h-28.438c-1.8116 0-3.2813-1.4697-3.2813-3.2812v-13.973c0-0.34179 0.3896-0.5332 0.6631-0.32129 1.5312 1.1895 3.5615 2.7002 10.534 7.7656 1.4424 1.0527 3.8759 3.2676 6.3027 3.2539 2.4404 0.0205 4.9219-2.2422 6.3096-3.2539 6.9726-5.0654 8.9961-6.583 10.527-7.7725zm-16.837 8.832c1.5859 0.0273 3.8692-1.9961 5.0176-2.8301 9.0713-6.583 9.7617-7.1572 11.854-8.7978 0.3965-0.30762 0.6289-0.78613 0.6289-1.292v-1.2988c0-1.8115-1.4697-3.2812-3.2812-3.2812h-28.438c-1.8116 0-3.2813 1.4697-3.2813 3.2812v1.2988c0 0.50586 0.2324 0.97754 0.6289 1.292 2.0918 1.6338 2.7822 2.2148 11.854 8.7978 1.1485 0.83398 3.4317 2.8574 5.0176 2.8301z" fill="currentColor" style="fill:url(#w);stroke-width:.26458"/>
    </g>
    <g transform="translate(680.82 -144.07)">
      <rect x="-946.68" y="73.6" width="31.275" height="31.045" rx="0" ry="0" style="fill-rule:evenodd;fill:#00ff3a;paint-order:stroke markers fill;stop-color:#000000;stroke-linecap:round;stroke-linejoin:round;stroke-width:.265;stroke:#306133"/>
      <path d="m-918.01 69.753h-27.5a3.75 3.75 0 0 0-3.75 3.75v27.5a3.75 3.75 0 0 0 3.75 3.75h10.723v-11.899h-4.9219v-5.6008h4.9219v-4.2688c0-4.8555 2.8906-7.5375 7.318-7.5375 2.1203 0 4.3375 0.37813 4.3375 0.37813v4.7656h-2.443c-2.407 0-3.1578 1.4938-3.1578 3.0258v3.6367h5.3734l-0.85939 5.6008h-4.514v11.899h10.723a3.75 3.75 0 0 0 3.75-3.75v-27.5a3.75 3.75 0 0 0-3.75-3.75z" fill="currentColor" style="fill:url(#v);stroke-width:.265;stroke:url(#bh)"/>
    </g>
    <g transform="translate(680.82 -145.36)">
      <rect x="-903.79" y="101.26" width="27.627" height="28.437" rx="0" ry="0" style="fill-rule:evenodd;fill:#00ff3a;paint-order:stroke markers fill;stop-color:#000000;stroke-linecap:round;stroke-linejoin:round;stroke-width:.265;stroke:#306133"/>
      <path d="m-890.1 111.33a4.1356 4.1356 0 1 0 4.1372 4.1356 4.1387 4.1387 0 0 0-4.1372-4.1356zm9.6692-3.1789a4.1868 4.1868 0 0 0-2.3578-2.3578c-1.6282-0.64277-5.5049-0.49856-7.3114-0.49856s-5.6793-0.14964-7.3122 0.49856a4.1868 4.1868 0 0 0-2.3578 2.3578c-0.642 1.6282-0.49855 5.5088-0.49855 7.3137 0 1.805-0.14345 5.6809 0.50164 7.3145a4.1868 4.1868 0 0 0 2.3578 2.3578c1.6282 0.64275 5.5049 0.49854 7.3122 0.49854 1.8073 0 5.6786 0.14964 7.3114-0.49854a4.1868 4.1868 0 0 0 2.3578-2.3578c0.64739-1.6282 0.49853-5.5087 0.49853-7.3137 0-1.805 0.14886-5.6801-0.49853-7.3137zm-9.6692 13.672a6.3577 6.3577 0 1 1 6.3578-6.3578 6.35 6.35 0 0 1-6.3578 6.3578zm6.6198-11.498a1.484 1.484 0 1 1 1.4832-1.484 1.4809 1.4809 0 0 1-1.4801 1.4871zm7.0261-12.227h-27.292a3.7216 3.7216 0 0 0-3.7216 3.7216v27.292a3.7216 3.7216 0 0 0 3.7216 3.7216h27.292a3.7216 3.7216 0 0 0 3.7216-3.7216v-27.292a3.7216 3.7216 0 0 0-3.7216-3.7216zm-1.3274 22.485c-0.1 1.9872-0.55359 3.748-2.0042 5.1948-1.4506 1.4468-3.2099 1.9096-5.1948 2.0042-2.0476 0.11555-8.1868 0.11555-10.234 0-1.9872-0.1-3.7418-0.55437-5.1947-2.0042-1.453-1.4499-1.9097-3.2114-2.0042-5.1948-0.11558-2.0484-0.11558-8.1883 0-10.234 0.1-1.9872 0.54816-3.748 2.0042-5.1947 1.4561-1.4468 3.2153-1.9042 5.1947-1.9988 2.0477-0.11555 8.1868-0.11555 10.234 0 1.9872 0.1 3.7472 0.55436 5.1948 2.0043 1.4475 1.4499 1.9096 3.2114 2.0042 5.1986 0.11558 2.0407 0.11558 8.1751 0 10.225z" fill="currentColor" style="fill:url(#u);stroke-width:.265;stroke:url(#bg)"/>
    </g>
    <g transform="translate(680.72 -145.54)">
      <circle cx="-809.01" cy="69.566" r="6.77" style="fill-rule:evenodd;fill:#00ff3a;paint-order:stroke markers fill;stop-color:#000000;stroke-linecap:round;stroke-linejoin:round;stroke-width:.265;stroke:#306133"/>
      <path d="m-810.55 93.239c-11.351-16.456-13.458-18.145-13.458-24.193 0-8.2843 6.7157-15 15-15s15 6.7157 15 15c0 6.0479-2.107 7.7368-13.458 24.193-0.74494 1.0761-2.3383 1.076-3.0831 0zm1.5416-17.943c3.4518 0 6.25-2.7982 6.25-6.25 0-3.4518-2.7982-6.25-6.25-6.25-3.4518 0-6.25 2.7982-6.25 6.25 0 3.4518 2.7981 6.25 6.25 6.25z" fill="currentColor" style="fill:url(#t);stroke-width:.26458"/>
    </g>
    <g transform="matrix(.99806 0 0 1.4115 681.39 -204.04)" style="stroke-width:.84253">
      <rect x="-856.69" y="131.88" width="28.06" height="22.912" rx="0" ry="0" style="fill-rule:evenodd;fill:#00ff3a;paint-order:stroke markers fill;stop-color:#000000;stroke-linecap:round;stroke-linejoin:round;stroke-width:.22327;stroke:#306133"/>
      <path d="m-825.89 134.88c-0.4025-1.5157-1.5885-2.7093-3.0943-3.1144-2.7295-0.7361-13.674-0.7361-13.674-0.7361s-10.945 0-13.674 0.7361c-1.5058 0.40516-2.6918 1.5988-3.0943 3.1144-0.7314 2.7472-0.7314 8.479-0.7314 8.479s0 5.7318 0.7314 8.479c0.4025 1.5156 1.5885 2.6596 3.0943 3.0647 2.7295 0.7361 13.674 0.7361 13.674 0.7361s10.945 0 13.674-0.7361c1.5058-0.4051 2.6918-1.549 3.0943-3.0647 0.7314-2.7472 0.7314-8.479 0.7314-8.479s0-5.7318-0.7314-8.479zm-20.348 13.683v-10.408l9.1477 5.2042z" fill="currentColor" style="fill:url(#s);stroke-width:.22327;stroke:url(#bf)"/>
    </g>
    <g transform="translate(-135.9 -302.98)">
      <rect x="-235.06" y="298.88" width="21.875" height="28.437" rx="0" ry="0" style="fill-rule:evenodd;fill:#00ff3a;paint-order:stroke markers fill;stop-color:#000000;stroke-linecap:round;stroke-linejoin:round;stroke-width:.265;stroke:#306133"/>
      <path d="m-208.53 306.53c0.4511 0 0.8203-0.36914 0.8203-0.82032v-2.7344c0-0.45117-0.3692-0.82031-0.8203-0.82031h-1.3672v-3.2812c0-1.8115-1.4697-3.2812-3.2813-3.2812h-21.875c-1.8115 0-3.2812 1.4697-3.2812 3.2812v28.438c0 1.8115 1.4697 3.2812 3.2812 3.2812h21.875c1.8116 0 3.2813-1.4697 3.2813-3.2812v-3.2812h1.3672c0.4511 0 0.8203-0.36914 0.8203-0.82032v-2.7344c0-0.45117-0.3692-0.82031-0.8203-0.82031h-1.3672v-4.375h1.3672c0.4511 0 0.8203-0.36915 0.8203-0.82032v-2.7344c0-0.45118-0.3692-0.82032-0.8203-0.82032h-1.3672v-4.375zm-4.6485 20.781h-21.875v-28.438h21.875zm-10.938-14.219c2.4131 0 4.375-1.9619 4.375-4.375 0-2.4131-1.9619-4.375-4.375-4.375-2.413 0-4.375 1.9619-4.375 4.375 0 2.4131 1.962 4.375 4.375 4.375zm-6.125 8.75h12.25c0.8477 0 1.5313-0.58789 1.5313-1.3125v-1.3125c0-2.1738-2.0576-3.9375-4.5938-3.9375-0.7382 0-1.2783 0.54687-3.0625 0.54687-1.8388 0-2.2832-0.54687-3.0625-0.54687-2.5361 0-4.5937 1.7637-4.5937 3.9375v1.3125c0 0.72461 0.6836 1.3125 1.5312 1.3125z" fill="currentColor" style="fill:url(#r);stroke-width:.265;stroke:url(#be)"/>
    </g>
    <g transform="translate(679.11 -143.2)">
      <rect x="-1009" y="162.69" width="29.48" height="28.437" rx="0" ry="0" style="fill-rule:evenodd;fill:#00ff3a;paint-order:stroke markers fill;stop-color:#000000;stroke-linecap:round;stroke-linejoin:round;stroke-width:.265;stroke:#306133"/>
      <path d="m-993.77 166.67c-5.6797 0-10.297 4.6172-10.305 10.297 0 1.9453 0.5469 3.8438 1.5781 5.4766l0.2422 0.39063-1.039 3.7969 3.8984-1.0234 0.375 0.22656c1.5781 0.9375 3.3906 1.4375 5.2422 1.4375h0.01c5.6719 0 10.414-4.6172 10.414-10.297 0-2.75-1.1875-5.3359-3.1328-7.2812-1.9531-1.9531-4.5312-3.0234-7.2812-3.0234zm6.0547 14.719c-0.2578 0.72656-1.4922 1.3828-2.0859 1.4688-0.9844 0.14843-1.7501 0.0703-3.711-0.77344-3.1016-1.3438-5.1328-4.4688-5.289-4.6719-0.1563-0.20313-1.2657-1.6797-1.2657-3.2031 0-1.5234 0.79694-2.2734 1.086-2.5859 0.2812-0.3125 0.6171-0.39062 0.8281-0.39062 0.2031 0 0.414 0 0.5937 8e-3 0.1875 8e-3 0.4454-0.0703 0.6953 0.53125 0.2579 0.61719 0.87509 2.1406 0.95319 2.2969 0.078 0.15625 0.1328 0.33594 0.023 0.53906-0.59369 1.1875-1.2265 1.1406-0.90619 1.6875 1.1953 2.0547 2.3906 2.7656 4.2109 3.6797 0.3125 0.15625 0.4922 0.13281 0.6719-0.0781 0.1797-0.20312 0.7734-0.90625 0.9765-1.2109 0.2032-0.3125 0.4141-0.25782 0.6954-0.15625 0.2812 0.10156 1.8047 0.85156 2.1171 1.0078 0.3126 0.15625 0.5157 0.23437 0.5938 0.35937 0.07 0.14844 0.07 0.77344-0.1875 1.4922zm7.6953-21.812h-27.5c-2.0703 0-3.75 1.6797-3.75 3.75v27.5c0 2.0703 1.6797 3.75 3.75 3.75h27.5c2.0703 0 3.75-1.6797 3.75-3.75v-27.5c0-2.0703-1.6797-3.75-3.75-3.75zm-13.758 29.781c-2.0781 0-4.1172-0.52344-5.9219-1.5078l-6.5703 1.7266 1.7578-6.4219c-1.0859-1.875-1.6562-4.0078-1.6562-6.1953 0.01-6.8281 5.5625-12.383 12.391-12.383 3.3125 0 6.4219 1.2891 8.7656 3.6328 2.336 2.3438 3.7422 5.4531 3.7422 8.7656 0 6.8281-5.6797 12.383-12.508 12.383z" fill="currentColor" style="fill:url(#q);stroke-width:.265;stroke:url(#bd)"/>
    </g>
    <g transform="translate(-135.9 -302.98)">
      <circle cx="55.693" cy="259.04" r="17.279" style="fill-rule:evenodd;fill:#00ff3a;paint-order:stroke markers fill;stop-color:#000000;stroke-linecap:round;stroke-linejoin:round;stroke-width:.265;stroke:#306133"/>
      <path d="m47.472 256.33-5.3912-8.2844c3.3589-4.1775 8.3973-6.4779 13.549-6.4991 2.9849-0.0212 6.0333 0.74094 8.8066 2.3428 3.0625 1.7782 5.3912 4.3327 6.873 7.2682l-14.487-0.76211c-4.0998-0.23992-8.0021 2.0676-9.3499 5.9346zm2.3216 2.7168c0 3.2601 2.6392 5.8993 5.8993 5.8993s5.8993-2.6392 5.8993-5.8993c0-3.2601-2.6392-5.8993-5.8993-5.8993s-5.8993 2.6321-5.8993 5.8993zm22.221-6.2944-9.858 0.50807c2.6744 3.1261 2.7168 7.6352 0.4657 11.093l-7.9104 12.166c3.2813 0.17641 6.6614-0.54336 9.724-2.3216 7.5787-4.3751 10.648-13.549 7.5787-21.445zm-24.388 9.6534-6.5837-12.949c-1.7994 2.752-2.8509 6.0545-2.8509 9.5898 0 8.7501 6.4074 15.997 14.784 17.282l4.495-8.8066c-4.0645 0.76211-7.988-1.4678-9.8439-5.116z" fill="currentColor" style="fill:url(#p);stroke-width:.26458"/>
    </g>
    <rect x="-286.44" y="45.579" width="34.827" height="28.437" rx="0" ry="0" style="fill-rule:evenodd;fill:#00ff3a;paint-order:stroke markers fill;stop-color:#000000;stroke-linecap:round;stroke-linejoin:round;stroke-width:.265;stroke:#306133"/>
    <path d="m-255.28 42.297h-27.5c-2.0703 0-3.75 1.6797-3.75 3.75v27.5c0 2.0704 1.6797 3.75 3.75 3.75h27.5c2.0703 0 3.75-1.6796 3.75-3.75v-27.5c0-2.0703-1.6797-3.75-3.75-3.75zm-0.5078 24.602c-0.2734 0.6328-1.414 1.0938-3.5 1.4219-0.1092 0.1484-0.1953 0.7656-0.3359 1.2422-0.085 0.289-0.2891 0.4609-0.6329 0.4609h-0.015c-0.4844 0-1-0.2266-2.0156-0.2266-1.3751 0-1.8516 0.3125-2.9219 1.0704-1.1329 0.8046-2.2188 1.4921-3.8437 1.4218-1.6407 0.125-3.0158-0.875-3.7891-1.4218-1.0782-0.7579-1.5469-1.0704-2.922-1.0704-0.9765 0-1.5937 0.2422-2.0156 0.2422-0.4218 0-0.5859-0.2578-0.6484-0.4687-0.1406-0.4766-0.2266-1.1016-0.3359-1.25-1.0781-0.1641-3.5-0.586-3.5547-1.6719-0.015-0.2812 0.1797-0.5312 0.461-0.5781 3.6172-0.5938 5.2421-4.3047 5.3124-4.461 0-0.01 0.014-0.015 0.015-0.023 0.1953-0.3906 0.2344-0.7187 0.1246-0.9765-0.2657-0.6172-1.3984-0.836-1.875-1.0313-1.2344-0.4844-1.4063-1.0468-1.3282-1.4297 0.1246-0.664 1.1251-1.0781 1.711-0.8047 0.461 0.2188 0.875 0.3282 1.2265 0.3282 0.2579 0 0.4297-0.062 0.5156-0.1094-0.1092-1.8671-0.3671-4.5312 0.297-6.0234 1.7578-3.9297 5.4765-4.2422 6.5703-4.2422 0.048 0 0.4766-0.01 0.5235-0.01 2.7108 0 5.3124 1.3906 6.5858 4.2422 0.6641 1.4922 0.4063 4.1484 0.2968 6.0234 0.085 0.047 0.2267 0.1015 0.4454 0.1094 0.336-0.016 0.7187-0.125 1.1484-0.3282 0.3126-0.1484 0.7501-0.125 1.0626 0 0.4921 0.1797 0.8046 0.5313 0.8124 0.9297 0.014 0.5078-0.4453 0.9453-1.3437 1.2969-0.1092 0.047-0.2422 0.086-0.3828 0.1329-0.5079 0.164-1.2812 0.4062-1.4844 0.8984-0.1092 0.2578-0.063 0.5859 0.1246 0.9766 0.014 0.01 0.014 0.015 0.015 0.023 0.07 0.1562 1.6954 3.8672 5.3126 4.4609 0.3125 0.078 0.5547 0.4297 0.3828 0.8438z" fill="currentColor" style="fill:url(#o);stroke-width:.265;stroke:url(#bc)"/>
    <text x="-147.18553" y="172.92096" style="fill-rule:evenodd;fill:#07140a;font-family:'FiraMono Nerd Font Mono';font-size:6.6023px;line-height:0.72;opacity:.70324;paint-order:stroke markers fill;stop-color:#000000;stroke-linecap:round;stroke-linejoin:round;stroke-width:.735;text-decoration-color:#000000;text-decoration-line:none" xml:space="preserve"><tspan x="-147.18553" y="172.92096" style="stroke-width:.735">     </tspan></text>
    <g transform="translate(-1196.2 -363.85)">
      <path d="m1310.4 557.23c10.224 5.7887 10.224 15.251 0.1125 21.151l-106.06 61.116c-10.111 5.7887-26.626 5.7887-36.738 0l-106.73-61.116c-10.224-5.7887-10.224-15.251-0.1125-21.151l106.06-61.116c10.111-5.7888 26.626-5.7888 36.738 0z" fill="url(#SVGID_23_)" style="fill:url(#ad);stroke-width:.26458"/>
      <path d="m1308.8 577.57-105.09 61.116c-10.019 5.7887-26.383 5.7887-36.402 0l-105.76-61.116c-5.1208-2.8943-7.5699-6.7906-7.5699-10.576l-0.1115 45.753c0 3.8963 2.5604 7.6812 7.5699 10.576l105.76 61.116c10.13 5.7888 26.383 5.7888 36.402 0l105.09-61.116c5.0095-2.8944 7.4585-6.6793 7.4585-10.464l0.1115-45.753c0 3.7849-2.449 7.5699-7.4585 10.464z" fill="url(#SVGID_24_)" style="fill:url(#ac);stroke-width:.26458"/>
      <path d="m1186.1 691.45c-7.1246 0-13.804-1.6698-18.925-4.5642l-105.76-61.116c-5.3435-3.117-8.3492-7.3472-8.3492-11.8l0.1115-45.753h2.783-0.2225 0.2225-2.5604 2.5604c0 3.451 2.4491 6.7906 6.902 9.351l105.76 61.116c4.6755 2.6717 10.91 4.2302 17.589 4.2302 6.6793 0 12.913-1.4472 17.478-4.2302l105.09-61.116c4.3415-2.5604 6.7906-5.7887 6.7906-9.2397h2.7831l-0.1115 45.753c0 4.4529-2.8944 8.5718-8.2379 11.689l-105.09 61.116c-4.8982 3.0057-11.689 4.5642-18.813 4.5642zm-130.14-115.89-0.1115 38.517c0 3.451 2.449 6.7906 6.902 9.4624l105.76 61.116c4.6755 2.6717 10.91 4.2303 17.589 4.2303s12.913-1.4472 17.478-4.2303l105.09-61.116c4.3416-2.5604 6.7906-5.7888 6.7906-9.2398l0.1115-38.517c-1.3358 1.6698-3.117 3.117-5.3434 4.4529l-105.09 61.116c-5.0095 2.8943-11.8 4.5642-18.925 4.5642-7.1247 0-13.804-1.6698-18.925-4.5642l-105.76-61.116c-2.3377-1.4472-4.2302-3.0057-5.566-4.6755z" fill="url(#SVGID_26_)" style="fill:url(#ab);stroke-width:.26458"/>
      <g fill="#6de0f5">
        <polygon transform="matrix(1.1132 0 0 1.1132 312.8 71.499)" points="683.5 476 683.5 493.8 677.2 490.2 677.2 472.3" style="fill:#d8ed9e;stroke-width:.23767"/>
        <polygon transform="matrix(1.1132 0 0 1.1132 312.8 71.499)" points="690.1 497.6 690.1 479.8 696.4 483.4 696.3 501.2" style="fill:#d8ed9e;stroke-width:.23767"/>
        <polygon transform="matrix(1.1132 0 0 1.1132 312.8 71.499)" points="709.3 490.9 709.2 508.7 703 505.1 703 487.2" style="fill:#d8ed9e;stroke-width:.23767"/>
        <polygon transform="matrix(1.1132 0 0 1.1132 312.8 71.499)" points="722.2 498.3 722.1 516.1 715.8 512.5 715.9 494.7" style="fill:#d8ed9e;stroke-width:.23767"/>
        <polygon transform="matrix(1.1132 0 0 1.1132 312.8 71.499)" points="735.1 505.7 735 523.6 728.7 519.9 728.8 502.1" style="fill:#d8ed9e;stroke-width:.23767"/>
        <polygon transform="matrix(1.1132 0 0 1.1132 312.8 71.499)" points="748 513.2 747.9 531 741.6 527.4 741.7 509.6" style="fill:#d8ed9e;stroke-width:.23767"/>
        <polygon transform="matrix(1.1132 0 0 1.1132 312.8 71.499)" points="760.9 520.6 760.8 538.5 754.5 534.8 754.6 517" style="fill:#d8ed9e;stroke-width:.23767"/>
        <polygon transform="matrix(1.1132 0 0 1.1132 312.8 71.499)" points="882.1 477.8 882.2 495.6 888.5 492 888.4 474.1" style="fill:#d8ed9e;stroke-width:.23767"/>
        <polygon transform="matrix(1.1132 0 0 1.1132 312.8 71.499)" points="869.3 485.2 869.3 503 875.6 499.4 875.5 481.6" style="fill:#d8ed9e;stroke-width:.23767"/>
        <polygon transform="matrix(1.1132 0 0 1.1132 312.8 71.499)" points="856.4 492.6 856.4 510.5 862.7 506.8 862.7 489" style="fill:#d8ed9e;stroke-width:.23767"/>
        <polygon transform="matrix(1.1132 0 0 1.1132 312.8 71.499)" points="843.5 500.1 843.5 517.9 849.8 514.3 849.8 496.5" style="fill:#d8ed9e;stroke-width:.23767"/>
        <polygon transform="matrix(1.1132 0 0 1.1132 312.8 71.499)" points="830.6 507.5 830.6 525.4 836.9 521.7 836.9 503.9" style="fill:#d8ed9e;stroke-width:.23767"/>
        <polygon transform="matrix(1.1132 0 0 1.1132 312.8 71.499)" points="817.7 515 817.7 532.8 824 529.2 824 511.3" style="fill:#d8ed9e;stroke-width:.23767"/>
        <polygon transform="matrix(1.1132 0 0 1.1132 312.8 71.499)" points="804.8 522.4 804.8 540.2 811.1 536.6 811.1 518.8" style="fill:#d8ed9e;stroke-width:.23767"/>
      </g>
      <path d="m1288.7 220.44c5.0067 2.861 5.0067 7.5376 0.055 10.454l-51.938 30.15c-4.9517 2.861-13.039 2.861-17.991 0l-52.268-30.205c-5.0067-2.861-5.0067-7.5376-0.055-10.454l51.938-30.205c4.9517-2.861 13.039-2.861 17.991 0z" fill="url(#SVGID_27_)" style="fill:url(#y)"/>
      <path d="m1228.1 263.24c-3.5212 0-6.8224-0.82528-9.3532-2.2558l-52.268-30.205c-2.6409-1.5405-4.1264-3.5762-4.1264-5.832 0-2.2008 1.4305-4.2915 4.0714-5.777l51.938-30.205c2.4759-1.4305 5.832-2.2558 9.3532-2.2558s6.8224 0.82528 9.3532 2.2558l52.268 30.205c2.6409 1.5405 4.1264 3.5762 4.1264 5.832 0 2.2008-1.4305 4.2915-4.0714 5.777l-51.938 30.205c-2.5309 1.4305-5.832 2.2558-9.3532 2.2558zm-0.4402-75.156c-3.3011 0-6.3822 0.71524-8.6379 2.0907l-51.938 30.205c-2.1457 1.2654-3.3561 2.916-3.3561 4.6216 0 1.7056 1.2104 3.3561 3.4111 4.6216l52.268 30.205c2.3108 1.3204 5.3918 2.0907 8.693 2.0907 3.3011 0 6.3821-0.71525 8.6379-2.0907l51.938-30.205c2.1457-1.2654 3.3561-2.916 3.3561-4.6216 0-1.7056-1.2104-3.3562-3.4112-4.6216l-52.268-30.205c-2.3108-1.3755-5.3919-2.0907-8.693-2.0907z" fill="url(#m)" style="fill:url(#ba)"/>
      <path d="m1227.7 352.06c-4.1815 0-8.0878-0.93532-11.059-2.6409l-62.336-35.982c-3.0811-1.7606-4.7866-4.1814-4.7866-6.7673s1.6505-4.9517 4.7316-6.7673l61.896-35.982c2.971-1.7056 6.8774-2.6409 11.059-2.6409s8.0878 0.93532 11.059 2.6409l62.281 35.982c3.081 1.7606 4.7866 4.1814 4.7866 6.7673s-1.6505 4.9517-4.7316 6.7673l-61.896 35.982c-2.971 1.7056-6.8773 2.6409-11.004 2.6409zm-0.5502-89.516c-3.9614 0-7.6476 0.8803-10.399 2.4758l-61.896 35.982c-2.6409 1.5405-4.0714 3.5212-4.0714 5.6669s1.4855 4.1264 4.1814 5.6669l62.281 35.982c2.8059 1.5955 6.4922 2.4758 10.454 2.4758 3.9613 0 7.6476-0.8803 10.398-2.4758l61.896-35.982c2.6409-1.5405 4.0714-3.5212 4.0714-5.6669s-1.4855-4.1264-4.1814-5.6669l-62.281-35.982c-2.8059-1.5955-6.4922-2.4758-10.454-2.4758z" fill="url(#g)" style="fill:url(#bb)"/>
      <path d="m1269.5 222.04c3.4112 1.9807 3.4662 5.1718 0.055 7.1524l-35.707 20.742c-3.4111 1.9807-8.968 1.9807-12.379 0l-35.927-20.742c-3.4112-1.9807-3.4662-5.1718-0.055-7.1524l35.707-20.742c3.4112-1.9807 8.9681-1.9807 12.379 0z" fill="#540b87" style="fill:#031908"/>
      <path d="m1258.6 222.97c2.5309 1.4855 2.5309 3.8513 0.055 5.2818l-26.409 15.35c-2.5309 1.4855-6.6023 1.4855-9.1882 0l-26.574-15.35c-2.5309-1.4855-2.5309-3.8513-0.055-5.2818l26.409-15.35c2.5308-1.4855 6.6022-1.4855 9.1881 0z" fill="#6de0f5" style="fill:#d8ed9e"/>
      <path d="m1288.7 230.84-51.938 30.205c-4.9517 2.861-13.04 2.861-17.991 0l-52.268-30.205c-2.5309-1.4305-3.7413-3.3561-3.7413-5.2268l-0.055 78.237c0 1.9256 1.2654 3.7963 3.7412 5.2268l52.268 30.205c5.0067 2.861 13.04 2.861 17.991 0l51.938-30.205c2.4759-1.4305 3.6863-3.3011 3.6863-5.1718l0.055-78.237c0 1.8706-1.2104 3.7413-3.6863 5.1718z" fill="url(#a)" style="fill:url(#aa)"/>
      <path d="m1227.7 342.14c-3.5212 0-6.8224-0.82529-9.3532-2.2558l-52.268-30.205c-2.6409-1.5405-4.1264-3.6312-4.1264-5.832l0.055-78.237h1.3755-0.11 0.11-1.2655 1.2655c0 1.7056 1.2104 3.3561 3.4111 4.6216l52.268 30.205c2.3108 1.3204 5.3918 2.0907 8.693 2.0907 3.3011 0 6.3821-0.71524 8.6379-2.0907l51.938-30.205c2.1457-1.2654 3.3561-2.861 3.3561-4.5666h1.3755l-0.055 78.237c0 2.2008-1.4305 4.2915-4.0714 5.777l-51.938 30.205c-2.4209 1.4855-5.777 2.2558-9.2982 2.2558zm-64.317-112.95-0.055 74.661c0 1.7056 1.2104 3.3561 3.4112 4.6766l52.268 30.205c2.3108 1.3204 5.3919 2.0907 8.693 2.0907s6.3822-0.71524 8.6379-2.0907l51.938-30.205c2.1457-1.2654 3.3561-2.861 3.3561-4.5666l0.055-74.661c-0.6602 0.82528-1.5405 1.5405-2.6409 2.2008l-51.938 30.205c-2.4759 1.4305-5.832 2.2558-9.3532 2.2558s-6.8224-0.82528-9.3532-2.2558l-52.268-30.205c-1.1554-0.71524-2.0907-1.4855-2.7509-2.3108z" fill="url(#l)" style="fill:url(#z)"/>
      <g fill="#6de0f5">
        <polygon transform="matrix(.55019 0 0 .55019 796.29 69.028)" points="690 423.8 683.7 420.1 683.8 325.7 690.1 329.3" style="fill:#d8ed9e;stroke-width:1.8176"/>
        <polygon transform="matrix(.55019 0 0 .55019 796.29 69.028)" points="702.9 431.2 696.6 427.6 696.7 333.1 703 336.7" style="fill:#d8ed9e;stroke-width:1.8176"/>
        <polygon transform="matrix(.55019 0 0 .55019 796.29 69.028)" points="715.8 438.7 709.5 435 709.6 340.6 715.8 344.2" style="fill:#d8ed9e;stroke-width:1.8176"/>
        <polygon transform="matrix(.55019 0 0 .55019 821.4 82.46)" points="683.7 420.1 683.8 325.7 690.1 329.3 690 423.8" style="fill:#d8ed9e;stroke-width:1.8176"/>
        <polygon transform="matrix(.55019 0 0 .55019 821.4 82.46)" points="696.6 427.6 696.7 333.1 703 336.7 702.9 431.2" style="fill:#d8ed9e;stroke-width:1.8176"/>
        <polygon transform="matrix(.55019 0 0 .55019 821.4 82.46)" points="709.5 435 709.6 340.6 715.8 344.2 715.8 438.7" style="fill:#d8ed9e;stroke-width:1.8176"/>
      </g>
      <path d="m1090.6 210.64c-3.1413-0.0227-5.534 2.3129-8.2034 3.6314-6.5813 3.8729-12.835 7.4112-19.356 11.374-1.1685 0.83514-1.2661 3.2569 0.1922 3.8493 13.916 8.0068 27.787 16.103 41.732 24.054 3.5346 1.4821 7.7753 0.83758 10.867 0.62742 3.4949-0.0376 6.432-2.7054 9.3921-4.211 4.6379-2.7514 9.3851-5.3389 13.955-8.1922 1.527-0.9313 1.5121-3.2662-0.026-4.1809-8.7387-5.2049-17.615-10.194-26.407-15.315-6.5133-3.7133-12.95-7.5718-19.512-11.194-0.848-0.30518-1.7374-0.41419-2.6345-0.44338zm0.4532 1.3183c2.9733-0.0155 5.2324 2.2038 7.768 3.4377 12.783 7.4133 25.633 14.722 38.375 22.2 1.3787 0.81991 1.3 2.8274-0.052 3.6251-6.1026 3.5841-12.209 7.1827-18.376 10.65-2.836 1.2589-5.372 1.0615-8.5293 1.2498-2.2826 0.0671-5.8327-0.83087-8.0331-2.3264-12.496-7.2391-25.036-14.409-37.504-21.691-1.0948-0.61965-1.1334-2.2534 0.01-2.8614 7.8178-4.6086 15.673-9.1804 23.547-13.693 0.8646-0.43279 1.84-0.55445 2.7952-0.59038z" style="fill:url(#az)"/>
      <polygon transform="matrix(.26458 0 0 .26458 796.32 73.382)" points="1035.4 565.4 1035.3 565.8 1035.2 566.2 1035.2 566.6 1035.2 567 1035.2 567.4 1035.2 567.8 1035.3 568.2 1035.3 568.3 1035.4 568.4 1035.4 568.5 1035.4 568.6 1035.5 568.7 1035.5 568.8 1035.5 568.9 1035.6 569 1035.8 569.5 1036.2 570.1 1036.6 570.6 1037 571.1 1037.5 571.6 1038.1 572.1 1038.7 572.5 1039.4 573 1167 646.6 1168.7 647.5 1170.5 648.2 1172.5 648.9 1174.6 649.4 1176.8 649.8 1179 650 1181.3 650.1 1183.6 650.1 1203.5 649 1205 648.9 1206.4 648.8 1207.8 648.5 1209.2 648.2 1210.6 647.9 1211.9 647.5 1213.1 647.1 1214.3 646.6 1214.6 646.5 1214.8 646.3 1215.1 646.2 1215.4 646.1 1215.6 646 1215.9 645.8 1216.1 645.7 1216.4 645.5 1273.4 612.4 1274.1 612 1274.7 611.5 1275.3 611 1275.9 610.6 1276.4 610.1 1276.8 609.6 1277.2 609 1277.6 608.5 1278.2 607.1 1278.5 605.7 1278.5 604.3 1278.1 602.8 1277.4 601.5 1276.4 600.1 1275 598.9 1273.3 597.7 1134.6 517.7 1132.3 516.6 1129.8 515.8 1127.1 515.4 1124.3 515.2 1121.5 515.4 1118.8 515.8 1116.3 516.6 1114 517.7 1039.4 561 1038.9 561.3 1038.5 561.6 1038.1 561.9 1037.7 562.2 1037.4 562.5 1037.1 562.8 1036.8 563.1 1036.5 563.4 1036.4 563.5 1036.3 563.6 1036.3 563.7 1036.2 563.8 1036.1 563.9 1036.1 564 1036 564.1 1036 564.2 1035.9 564.3 1035.8 564.4 1035.8 564.5 1035.7 564.6 1035.7 564.7 1035.6 564.8 1035.6 564.9 1035.6 565" fill="url(#SVGID_35_)" style="fill:url(#ay)"/>
      <path d="m1134.4 234.38c-0.2381 0.37041-0.6085 0.74083-1.1112 1.0319l-15.081 8.7577c-0.1587 0.10583-0.3439 0.18521-0.5291 0.26458-0.8203 0.37042-1.8257 0.58209-2.8575 0.635l-5.2652 0.26459c-1.6405 0.0794-3.228-0.26459-4.3921-0.92605l-33.787-19.42c-0.5292-0.29104-0.8467-0.66146-1.0319-1.0319-0.026-0.0794-0.053-0.13229-0.079-0.21166-0.027-0.10584-0.053-0.21167-0.053-0.34396v2.8046c0 0.10583 0.026 0.21167 0.053 0.34396 0.026 0.0794 0.053 0.13229 0.079 0.21167 0.1588 0.37041 0.5027 0.74083 1.0319 1.0319l33.734 19.473c1.1642 0.66146 2.7782 1.0054 4.3921 0.92605l5.2652-0.26459c1.0319-0.0529 2.0373-0.29104 2.8575-0.635 0.1852-0.0794 0.3705-0.18521 0.5292-0.26458l15.081-8.7577c0.5291-0.29104 0.8995-0.66146 1.1112-1.0319 0.1852-0.29105 0.2646-0.58209 0.2646-0.89959v-2.8046c0.053 0.26458-0.053 0.55562-0.2117 0.84667z" fill="url(#SVGID_36_)" style="fill:url(#ax);stroke-width:.26458"/>
      <path d="m1108.9 245.52-0.6085-0.0265-0.6085-0.0529-0.5821-0.10583-0.5556-0.1323-0.5292-0.1852-0.5027-0.21167-0.4763-0.23813-33.734-19.473-0.1852-0.10583-0.1853-0.13229-0.1587-0.1323-0.2646-0.26458-0.1058-0.15875-0.1059-0.15875-0.1587-0.39687-0.053-0.23813v-0.10583l0.027-0.23813 0.053-0.23812 0.3175-0.55563 0.2381-0.26458 0.3175-0.23813 0.2381-0.15875 19.738-11.483 0.6086-0.29104 0.6879-0.21167 0.7408-0.13229 0.7409-0.0529 0.7408 0.0529 0.7408 0.13229 0.688 0.21167 0.635 0.29104 36.698 21.193 0.4498 0.3175 0.3704 0.34396 0.291 0.37042 0.2117 0.42333 0.1058 0.39688v0.39687l-0.1058 0.42333-0.1588 0.37042-0.2116 0.3175-0.2646 0.29104-0.3175 0.26459-0.3704 0.23812-15.346 8.9165-0.291 0.13229-0.3175 0.13229-0.344 0.13229-0.3439 0.10584-0.3704 0.0794-0.3705 0.0794-0.3704 0.0529-0.3969 0.0529-0.3968 0.0265-5.2652 0.26458zm-15.081-35.692-0.7144 0.0529-0.6879 0.13229-0.6615 0.21167-0.582 0.29104-19.844 11.536-0.3175 0.21167-0.2381 0.23812-0.291 0.4498-0.053 0.1852-0.026 0.18521v0.10584l0.026 0.1852 0.079 0.29105 0.158 0.26458 0.1059 0.13229 0.1058 0.13229 0.1323 0.13229 0.1323 0.10584 0.1587 0.10583 0.1853 0.10583 33.734 19.473 0.4498 0.23812 0.4763 0.18521 0.5027 0.15875 0.5292 0.13229 0.5556 0.10584 0.582 0.0529 0.5821 0.0265h0.6086l5.6621-0.29104 0.7408-0.1058 0.3704-0.0794 0.344-0.0794 0.3439-0.10584 0.3175-0.10583 0.8467-0.39688 15.081-8.7577 0.344-0.23813 0.291-0.23812 0.2382-0.26459 0.1852-0.26458 0.1587-0.34396 0.079-0.34396v-0.34396l-0.079-0.34395-0.1852-0.34396-0.2646-0.3175-0.3439-0.3175-0.4498-0.29104-36.698-21.193-0.5821-0.29104-0.6615-0.18521-0.6879-0.10583z" fill="url(#SVGID_37_)" style="fill:url(#aw);stroke-width:.26458"/>
      <path d="m1108.9 248.59c-1.4817 0-2.9104-0.34396-3.9688-0.9525l-33.734-19.473c-0.5292-0.29104-0.8996-0.68791-1.0848-1.1112-0.026-0.0794-0.053-0.15875-0.079-0.23812-0.026-0.13229-0.053-0.23813-0.053-0.37042v-2.8046h0.2646c0 0.10583 0 0.21167 0.026 0.29104 0.026 0.0529 0.026 0.13229 0.053 0.18521 0.1588 0.37042 0.5028 0.71437 0.979 0.97896l33.734 19.473c1.1112 0.66146 2.7252 0.97896 4.3127 0.89958l5.2652-0.26458c1.0319-0.0529 1.9844-0.26458 2.8046-0.635 0.1852-0.0794 0.3704-0.18521 0.5292-0.26458l15.081-8.7577c0.4763-0.29104 0.8467-0.60854 1.0583-0.97896 0.1588-0.26458 0.2382-0.55562 0.2382-0.82021h0.2645v2.8046c0 0.3175-0.1058 0.66145-0.291 0.9525-0.2381 0.39687-0.635 0.76729-1.1642 1.0848l-15.081 8.7577c-0.1852 0.10583-0.3704 0.1852-0.5556 0.29104-0.8467 0.37041-1.8521 0.60854-2.9105 0.66146l-5.2652 0.26458c-0.1058 0.0265-0.2645 0.0265-0.4233 0.0265zm-38.656-24.077v1.9579c0 0.10583 0 0.21167 0.026 0.29104 0.026 0.0529 0.026 0.13229 0.053 0.18521 0.1587 0.37042 0.5027 0.71438 0.9789 0.97896l33.734 19.473c1.1112 0.66146 2.7252 0.97896 4.3127 0.89959l5.2652-0.26459c1.0319-0.0529 1.9844-0.26458 2.8046-0.635 0.1852-0.0794 0.3704-0.18521 0.5292-0.26458l15.081-8.7577c0.4763-0.29104 0.8467-0.60854 1.0583-0.97896 0.1588-0.26458 0.2382-0.55562 0.2382-0.82021v-1.8521 0.0265c-0.2382 0.39687-0.635 0.76729-1.1642 1.0848l-15.081 8.7577c-0.1853 0.10583-0.3705 0.18521-0.5557 0.29104-0.8466 0.37042-1.8521 0.60854-2.9104 0.66146l-5.2652 0.26458c-1.6669 0.0794-3.2808-0.26458-4.4715-0.92604l-33.734-19.473c-0.3704-0.29104-0.6879-0.58209-0.8996-0.89959z" fill="url(#SVGID_38_)" style="fill:url(#av);stroke-width:.26458"/>
      <polygon transform="matrix(.26458 0 0 .26458 796.32 73.382)" points="1182.2 582.4 1151.4 600.3 1110.2 592.7 1074.6 572.1 1079.4 558.8 1110.2 540.9 1153.4 549.6 1167 557.5" fill="#284ca3" style="fill:#031908"/>
      <g transform="matrix(.26458 0 0 .26458 796.32 73.382)" fill="#3adef6" style="fill:#d8ed9e">
        <path d="m1141.9 558.1 0.3-0.9c0.1-0.3 0.4-0.6 0.8-0.8l10.7-6.2 12.2 7.1-10.7 6.2c-0.4 0.2-0.9 0.4-1.4 0.4l-1.5 0.2c-0.9 0.1-1.9 0-2.6-0.4l-7-4.1c-0.7-0.4-1-1-0.8-1.5z" style="fill:#d8ed9e"/>
        <path d="m1137.7 556.7-27.4-15.8 7-4.1c3.8-2.2 10.1-2.2 13.9 0l22.2 12.8-11 6.4c-0.5 0.3-0.9 0.7-1 1.1l-0.3 0.9c-0.1 0.2-0.1 0.4-0.1 0.6z" style="fill:#d8ed9e"/>
        <path d="m1121.9 563.8v1.2l-26.7-15.4 14.4-8.3 26.7 15.4h-2.1c-1.4 0-2.7 0.3-3.7 0.9l-7.1 4.1c-1 0.5-1.6 1.3-1.5 2.1z" style="fill:#d8ed9e"/>
        <path d="m1079.4 558.8 9.1 5.3-13.9 8.1-2.1-1.2c-3.9-2.2-3.9-5.8 0-8.1z" style="fill:#d8ed9e"/>
      </g>
      <path d="m1092.4 223.14h0.7937l4.3921 2.54 0.026 0.47625c0 0.15875-0.1058 0.34396-0.3175 0.4498l-1.8785 1.0848c-0.2117 0.13229-0.5027 0.18521-0.7938 0.18521h-0.8202l-4.3656-2.54v-0.47625c0-0.15875 0.1058-0.34396 0.3175-0.4498l1.8785-1.0848c0.1852-0.13229 0.4763-0.18521 0.7673-0.18521z" fill="#3adef6" style="fill:#d8ed9e;stroke-width:.26458"/>
      <path d="m1089.2 224.86v0.34395l-7.0908-4.101 3.81-2.196 7.0643 4.0746h-0.5291c-0.3704 0-0.7144 0.0794-0.979 0.23813l-1.8785 1.0848c-0.2382 0.15875-0.3969 0.34396-0.3969 0.55563z" fill="#3adef6" style="fill:#d8ed9e;stroke-width:.26458"/>
      <g transform="matrix(.26458 0 0 .26458 796.32 73.382)" fill="#3adef6" style="fill:#d8ed9e">
        <path d="m1145.6 574.5c-0.8 0.5-1.9 0.7-3 0.7h-3.1l-16.5-9.6v-1.8c0-0.6 0.4-1.3 1.2-1.7l7.1-4.1c0.8-0.5 1.9-0.7 3-0.7h3.1l16.5 9.6 0.1 1.8c0 0.6-0.4 1.3-1.2 1.7z" style="fill:#d8ed9e"/>
        <path d="m1189.2 570.3c3.9 2.2 3.9 5.8 0.1 8.1l-7 4.1-27.4-15.8-3.2-1.9c0.3 0 0.6 0 1-0.1l1.5-0.2c0.7-0.1 1.4-0.3 1.9-0.6l11-6.4z" style="fill:#d8ed9e"/>
        <polygon points="1089.2 564.4 1106.6 574.5 1092.7 582.6 1075.3 572.5" style="fill:#d8ed9e"/>
        <path d="m1154.8 568.6v-1.2l26.7 15.4-14.4 8.3-26.7-15.4h2.1c1.4 0 2.7-0.3 3.7-0.9l7.1-4.1c1-0.5 1.6-1.3 1.5-2.1z" style="fill:#d8ed9e"/>
        <path d="m1139.8 577.3v-1.2l26.7 15.4-14.4 8.3-26.8-15.5h2.2c1.4 0 2.7-0.3 3.7-0.9l7.1-4.1c1-0.4 1.5-1.1 1.5-2z" style="fill:#d8ed9e"/>
        <path d="m1110.2 592.7 13.9-8.1 27.2 15.7-7 4.1c-3.8 2.2-10.1 2.2-13.9 0z" style="fill:#d8ed9e"/>
        <polygon points="1107.3 574.9 1123.4 584.2 1109.5 592.3 1093.4 583" style="fill:#d8ed9e"/>
      </g>
      <g transform="translate(2026.4 377.6)">
        <rect transform="matrix(.86832 -.496 0 1 0 0)" x="-1133" y="-524.82" width="161.19" height="102.72" style="fill-rule:evenodd;fill:#081b0a;font-variation-settings:'wght' 600;opacity:.70324;paint-order:stroke markers fill;stop-color:#000000;stroke-linecap:round;stroke-linejoin:round;stroke-width:.78876;stroke:#1a3425"/>
      </g>
      <text transform="skewY(-29.416)" x="1050.751" y="1016.182" style="fill-rule:evenodd;fill:#04a35c;font-family:'Josefin Sans';font-size:6.6023px;font-variation-settings:'wght' 600;letter-spacing:0px;line-height:1.42;opacity:.70324;paint-order:stroke markers fill;stop-color:#000000;stroke-linecap:round;stroke-linejoin:round;stroke-width:.735;stroke:#01064a;text-decoration-color:#000000;text-decoration-line:none;word-spacing:0px" xml:space="preserve"><tspan x="1050.751" y="1016.182" style="fill:#49e554;font-family:'FiraMono Nerd Font Mono';stroke-width:.735;stroke:none">const root = 0x1b3c11a0c</tspan><tspan x="1050.751" y="1025.7883" style="fill:#49e554;font-family:'FiraMono Nerd Font Mono';stroke-width:.735;stroke:none">const key = `0110010001001001</tspan><tspan x="1050.751" y="1035.3945" style="fill:#49e554;font-family:'FiraMono Nerd Font Mono';stroke-width:.735;stroke:none">0100010010010010011100100111000</tspan><tspan x="1050.751" y="1045.0009" style="fill:#49e554;font-family:'FiraMono Nerd Font Mono';stroke-width:.735;stroke:none">0001011100010010011001001010100`</tspan><tspan x="1050.751" y="1054.6072" style="fill:#49e554;font-family:'FiraMono Nerd Font Mono';stroke-width:.735;stroke:none">const decrypt = (root, key) =&gt; {</tspan><tspan x="1050.751" y="1064.2135" style="fill:#49e554;font-family:'FiraMono Nerd Font Mono';stroke-width:.735;stroke:none">     const algo = </tspan><tspan x="1050.751" y="1073.8197" style="fill:#49e554;font-family:'FiraMono Nerd Font Mono';stroke-width:.735;stroke:none">      Math.floor(Math.cos(root)) </tspan><tspan x="1050.751" y="1083.426" style="fill:#49e554;font-family:'FiraMono Nerd Font Mono';stroke-width:.735;stroke:none">          % key</tspan><tspan x="1050.751" y="1093.0323" style="fill:#49e554;font-family:'FiraMono Nerd Font Mono';stroke-width:.735;stroke:none">       crypto.verify( key,algo)} </tspan><tspan x="1050.751" y="1102.6385" style="fill:#49e554;font-family:'FiraMono Nerd Font Mono';stroke-width:.735;stroke:none">  </tspan><tspan x="1050.751" y="1112.0138" style="fill:#49e554;font-family:'FiraMono Nerd Font Mono';stroke:none"/></text>
    </g>
    <g transform="matrix(1.3682 .19991 0 1.3682 -363.89 -567.26)" style="stroke-width:.73088">
      <g transform="matrix(1 -1.068 -1.2268e-6 1 .00052291 227.7)" style="stroke-width:.73088">
        <g style="stroke-width:.73088">
          <path d="m208.87 396.6c-4.7266-0.0761-8.4753 3.0006-9.6408 7.6225-0.65389 2.5135-0.58447 5.3665-0.54522 8.2024l4.3838 1.6334c-4e-3 -0.66846 0.0222-1.8801 0.0222-1.8801s-0.0829-3.8135 0.42183-5.4439c1.0877-4.2431 5.2257-6.8405 10.036-4.7125 5.0482 2.1439 8.8165 8.4253 9.3446 13.592 0.27298 1.3286-0.0589 2.7596 0.11751 3.894v4.9482c-6.1264-2.2576-12.253-4.516-18.379-6.7737l-3e-3 9e-3c-1.983-0.73962-3.9661-1.4791-5.9492-2.2185-1.7e-4 6e-3 1.7e-4 0.0129 0 0.0186-0.0686-0.0347-0.1381-0.0653-0.20759-0.0961l-0.43069-0.16103c-1.2968-0.39791-2.5872-0.0306-2.7223 1.3622-0.033 7.8209-4e-3 15.666-0.0143 23.496-0.25831 1.5031 0.81314 3.5901 2.4453 4.2708 10.215 3.7953 20.432 7.532 30.648 11.307 1.2017 0.46283 2.4112 0.055 2.6684-1.1015 0.12781-3.4887 0.0197-7.0809 0.0555-10.61-0.036-4.8212 0.0725-9.5994-0.0555-14.448-0.3462-1.8766-2.184-3.0609-3.6746-3.4397-0.11037-3.8596 0.33738-7.5771-0.5452-11.651-1.4857-7.022-7.214-14.639-13.811-16.98-1.4415-0.55102-2.8417-0.81942-4.1651-0.84073zm0.1581 1.2921c0.74639 0 1.5253 0.0886 2.3315 0.27335 5.7371 1.1679 11.406 7.2346 13.546 13.454 1.7506 4.5285 1.2079 8.6165 1.301 12.789 0.0539 0.80709-0.10694 1.7579 0.0805 2.4756 1.239 0.57308 3.0874 0.65694 3.6177 2.4438 0.0729 7.5182 0.0114 14.995 0.0317 22.497-0.0237 1.1522 0.31163 3.0368-1.2293 2.7105-9.5205-3.4422-19.046-7.0088-28.569-10.499-1.239-0.57307-3.0879-0.65712-3.6184-2.4438-0.073-7.6469-0.01-15.252-0.031-22.882-0.10979-1.2118-6e-3 -2.876 1.5388-2.2392 8.9516 3.2985 18.417 6.7865 26.167 9.6423v-1.9821c-0.10708-3.4461 0.31877-6.6924-0.50532-10.323-1.2339-5.6233-5.894-11.835-11.228-13.405-1.0267-0.32404-2.0097-0.46078-2.9336-0.43514-4.0035 0.11108-6.9007 3.2711-7.4755 7.4548-0.15426 1.5791-0.18734 3.2145-0.18691 4.8677l-2.0006-0.74616c3e-3 -1.2545 0.0114-2.5053 0.0369-3.7433 0.26929-5.6177 3.9012-9.9137 9.1259-9.9098zm2.1956 28.289c-1.0758 9e-3 -2.0246 0.38744-2.6477 1.2167-1.7216 1.9789 0.11594 6.2787 2.89 8.0495v8.4839c1.3422 0.49463 2.684 0.98956 4.0262 1.4842v-8.5467c2.3449 0.10736 4.0577-2.0486 3.1279-4.8832-1.0707-3.4389-4.6471-5.8276-7.3965-5.8044zm0.32653 1.3128c2.0411-0.0716 4.7609 1.5176 5.7934 4.0418 1.177 2.7009-0.82392 4.4929-3.0363 3.9893v7.59c0.30387 1.2141-1.047 0.10235-1.6563 0.0333v-8.2032c-1.8868-0.96801-3.7917-3.3429-3.5298-5.3715 0.22463-1.3959 1.2044-2.0367 2.429-2.0796z" style="fill:#00ff3a"/>
        </g>
      </g>
    </g>
    <g transform="translate(-1208.1 -317.55)">
      <path d="m1131 134.85v377.54c0.055 9.4632 6.3272 18.981 18.872 26.189 25.034 14.47 65.582 14.47 90.506 0 12.434-7.2075 18.651-16.726 18.596-26.189v-377.54z" fill="url(#SVGID_50_)" opacity=".5" style="fill:url(#x);stroke-width:.26458"/>
      <path d="m1240 485.99c-25.034-14.47-65.582-14.47-90.506 0-24.924 14.47-24.758 37.963 0.2751 52.433 25.034 14.47 65.582 14.47 90.506 0 24.924-14.525 24.813-37.963-0.2751-52.433z" fill="#b8edff" style="fill:#d8ed9e;stroke-width:.26458"/>
    </g>
    <g transform="translate(-1196.2 -363.85)">
      <g transform="matrix(.073358 0 0 -.073358 295.76 731.91)" style="stroke-width:.4809">
        <g clip-path="url(#bv)" style="stroke-width:.4809">
          <path d="m11378 3792c4.4-3.77 9.4-7.04 14.9-9.48l271-122.05c32-14.39 69.6-0.1 84 31.94l5 10.92c14.4 32.04 0.1 69.7-31.9 84.08l-271 121.94c-4.5 2.05-9.1 3.48-13.7 4.4l-58.3-121.75" style="fill:url(#au)"/>
        </g>
        <g clip-path="url(#cg)" style="stroke-width:.4809">
          <path d="m12342 3401.9s-0.7-16.5 1.6-30.05c2.3-13.57 13.8-60.73-5.7-68.66-19.6-7.94-61.4-3.48-73.7-0.31-12.2 3.16-16.1 7.55-16.6 18.22-0.6 10.67 3.5 34.79 7.9 40.84 4.4 6.06 16.7 30.38 17.1 41.91l0.6 15.17 69.7-1.85-0.9-15.27" style="fill:url(#n)"/>
        </g>
      </g>
      <path d="m1201.6 481.18-0.1686 1.3806s-3.4479 0.35725-5.744-0.0697l0.059-1.1876s2.927-0.41009 5.854-0.12331" style="fill:#fffffd"/>
      <g transform="matrix(.073358 0 0 -.073358 295.76 731.91)" style="stroke-width:.4809">
        <g clip-path="url(#cf)" style="stroke-width:.4809">
          <path d="m12333 4071.4s35.1-23.92 34.6-222.57c-0.5-198.64-12.7-386.36-9.2-438.04 0 0-52.4-1.32-92.5 2.59-30.4 2.94-29.5 566.04-29.5 566.04s11.8 139.24 96.6 91.98" style="fill:url(#at)"/>
        </g>
        <g clip-path="url(#ce)" style="stroke-width:.4809">
          <path d="m12111 2152.6h-0.1c-2-7.97-5.2-14.28-10.4-17.72-44.1-22.92-104.7 7.97-104.7 7.97v10.29c-19 11.4-99.9 9.2-116.3 12.63-16.3 3.44-35.3 7.97-80.8 34.33-12.2 7-16.8 13.58-15.9 19.35 2 15.65 43.4 25.13 76.6 21.83 45.4-4.53 99.7 0 99.7 0 25.3 37.75 152.6 15.93 152.6 15.93s-0.7-10.44 0-29.66c0.7-14.41 5.5-51.48-0.7-74.95" style="fill:url(#as)"/>
        </g>
      </g>
      <g transform="matrix(.073358 0 0 -.073358 295.76 731.15)" style="stroke-width:.4809">
        <g clip-path="url(#cd)" style="stroke-width:.4809">
          <path d="m12111 2152.6c-2-7.97-5.2-14.28-10.4-17.72-44.1-22.92-104.7 7.97-104.7 7.97v10.29c-19 11.4-99.9 9.2-116.3 12.63-16.3 3.44-35.3 7.97-80.8 34.33-12.2 7-16.8 13.58-15.9 19.35 3.5-2.33 58.7-40.77 82.5-43.1 24.7-2.61 104.3-0.82 125.9-7.69 21.9-6.86 90.5-30.34 119.7-16.06" style="fill:#0c161f"/>
        </g>
      </g>
      <g transform="matrix(.073358 0 0 -.073358 295.76 731.91)" style="stroke-width:.4809">
        <g clip-path="url(#cc)" style="stroke-width:.4809">
          <path d="m12325 2262.4h-0.2c-1.9-7.97-5.1-14.28-10.3-17.7-44.1-22.93-104.7 7.96-104.7 7.96v10.29c-19 11.4-99.9 9.2-116.3 12.63s-35.3 7.96-80.8 34.32c-12.3 7-16.8 13.6-15.9 19.36 2 15.64 43.4 25.12 76.6 21.82 45.4-4.53 99.7 0 99.7 0 25.3 37.76 152.6 15.93 152.6 15.93s-0.7-10.43 0-29.66c0.6-14.41 5.5-51.47-0.7-74.95" style="fill:url(#ar)"/>
        </g>
      </g>
      <g transform="matrix(.073358 0 0 -.073358 295.76 732.66)" style="stroke-width:.4809">
        <g clip-path="url(#cb)" style="stroke-width:.4809">
          <path d="m12325 2262.4c-1.9-7.97-5.1-14.28-10.3-17.7-44.1-22.93-104.7 7.96-104.7 7.96v10.29c-19 11.4-99.9 9.2-116.3 12.63s-35.3 7.96-80.8 34.32c-12.3 7-16.8 13.6-15.9 19.36 3.5-2.34 58.7-40.77 82.5-43.11 24.7-2.61 104.3-0.82 125.9-7.68 21.9-6.87 90.5-30.35 119.6-16.07" style="fill:url(#aq)"/>
        </g>
      </g>
      <path d="m1200.4 558.94c-2.3915 1.5934-4.8636 1.7503-6.9323 1.3623-2.9197-0.51351-5.0251-2.065-5.0251-2.065-0.1981-7.864-1.3571-21.663-2.1201-29.002-0.7776-7.3395-3.5505-31.686-1.9293-36.174 0.7263-2.0445 2.3035-3.3452 4.0494-4.1521 2.1201-0.99621 4.5042-1.2691 5.986-1.2691 2.6996 0 3.6606 2.9674 3.6606 5.9457 0 2.9674-0.1907 30.406 0.7703 36.341 0.3994 2.4711 0.053 5.4292 0.4881 8.0982 1.0082 6.1809 0.1955 6.0552 4.8879 18.141" style="fill:url(#ap)"/>
      <path d="m1186.1 515.25c-0.7703 5.5994-2.3108 14.511-1.7313 22.019 0.5795 7.5178 2.1787 25.397 2.1787 29.412-1.6506 2.1494-6.4555 2.2011-8.847 2.127-2.6922-0.0734-7.0565-1.6991-7.4746-2.3395-0.7703-1.2155 1.9801-33.74 1.9801-33.74l-1.6652-32.157c-0.1248-2.5588 3.037-3.3239 6.7489-3.3657 5.0618-0.0528 11.128 1.2684 11.128 1.2684 0 2.9784-1.5405 11.188-2.3181 16.776" style="fill:url(#ao)"/>
      <g transform="matrix(.073358 0 0 -.073358 295.76 731.91)" style="stroke-width:.4809">
        <g clip-path="url(#ca)" style="stroke-width:.4809">
          <path d="m12205 4092.1c-12.7-13.16-48.3-36.02-78.6-43.74-17-4.29-36.3-3.28-49.8-1.57-10.8 1.43-18 3.29-18 3.29s0.6 11.14-5.7 31.73c-3.2-2.58-27.8-2.01-51.1 4.86-23.4 6.85-37.3 83.61-42.8 88.75-5.7 5.29-1 31.74 2 47.6 3.2 15.72-9.6 17.29-16.8 34.88-12.8 36.02 10.2 96.34 10.2 96.34 146.5 110.05 242.3-193.39 239.3-207.97-3-14.73 11.3-54.17 11.3-54.17" style="fill:url(#an)"/>
        </g>
        <g clip-path="url(#bz)" style="stroke-width:.4809">
          <path d="m12108 4117s-7.8-47.6-31.8-70.18c-10.8 1.43-18 3.29-18 3.29s0.6 11.14-5.7 31.73c0 0 35.8 9 55.5 35.16" style="fill:#986c46"/>
        </g>
        <g clip-path="url(#by)" style="stroke-width:.4809">
          <path d="m11950 4341.8s31.6-3.24 48.1-49.62c5.5-22.37 4.4-66.76 2.4-73.12l16.6-2.15s3.1 27.58 19.4 27.85c21.4 0.36 31.3-22.14 27.8-44.24-3.5-22.11 39.1-61.07 58.8-69.03 19.6-7.98 51.9-12.96 71.1-1.1 19.3 11.87 18 59.88 40.5 120.12 22.5 60.23 28.6 123.52-24.2 161.09-52.9 37.58-113.3 33.72-144.8 29.71s-61.5-28.98-121.6-18.83c-43.3 7.32-42-57.65 5.9-80.68" style="fill:url(#am)"/>
        </g>
      </g>
      <path d="m1199.1 476.37c1.4452 11.795 5.9783 23.457 8.0131 35.375 1.2657 7.4133 6.3623 20.839 2.599 22.412l-19.004-42.321 11.256 42.872s-7.2584-5.5958-21.178-6.999c-14.268-1.4383-35.246 1.3109-38.67 0.96971 0 0 9.8153-13.329 13.702-20.604 2.4859-4.6533 6.0822-14.612 6.0822-14.612s6.0451-20.109 6.3239-36.06c0.1247-6.8744 0.3301-12.013 0.6822-12.646 1.1591-2.0951 3.5653-4.2995 7.9081-6.9206 0.5585 0 2.4234-1.1393 3.2438-2.3198 0.4945-0.71144-0.2256-2.8289-0.2256-2.8289 3.5472-0.49366 7.4968-1.7129 10.431-3.6277 0 0 2.0098 1.4859 2.9292 2.3288 1.5606 1.4306 5.0766-0.19499 6.7639 1.3685 2.0902 1.9367 2.1754 2.6416 2.3278 8.2254 0.2861 10.746-4.6289 23.592-3.1837 35.387" style="fill:url(#al);stroke-width:.035278;stroke:url(#ak)"/>
      <g transform="matrix(.073358 0 0 -.073358 295.76 731.91)" style="stroke-width:.4809">
        <g clip-path="url(#bx)" style="stroke-width:.4809">
          <path d="m11443 3896.8s-47.7 23.87-79.2 37.73c-31.4 13.85-48.6 22.49-52.1 8.61-3.6-13.87 35.3-34.57 52.3-48.77 0 0-31.8-17.48-21.1-69.46 15.4-18.25 56.8-33.43 56.8-33.43l43.3 105.32" style="fill:url(#aj)"/>
        </g>
        <g clip-path="url(#bw)" style="stroke-width:.4809">
          <path d="m11737 3659.8 310.9 195.56c28.4 17.87 37 55.38 19.1 83.79l-10.7 17c-17.9 28.41-55.4 36.96-83.8 19.1l-310.9-195.58c-28.4-17.86-37-55.38-19.1-83.78l10.7-17.01c17.9-28.41 55.4-36.96 83.8-19.08" style="fill:url(#ai)"/>
        </g>
      </g>
      <path d="m1176 421.04c-0.044 0.31784-0.095 0.76868-0.3452 1.0314-0.5875 0.61771-1.5831 1.2308-2.3816 0.93203-1.4404-0.5389-1.0657-2.3135-1.0462-2.5192 0.03-0.31939 1.0075-0.41313 1.9639-0.3223 0.9564 0.0908 1.9063 0.171 1.8627 0.48865z" style="fill-rule:evenodd;paint-order:stroke markers fill;stop-color:#000000"/>
      <path d="m1175.6 420.64 2.3302 0.12622" style="fill:none;stroke-width:.26458px;stroke:#000"/>
      <text x="1219.4757" y="458.24356" style="font-family:Cantarell;letter-spacing:.082021px;line-height:0%;stroke-width:.26458;word-spacing:-.29104px" xml:space="preserve"><tspan x="1219.4757" y="458.24356" style="font-size:7.0556px;line-height:0;stroke-width:.26458"></tspan></text>
    </g>
  </g>
</svg>
