<svg id="svg1291" version="1.1" viewBox="0 0 748.12 329.11" xmlns="http://www.w3.org/2000/svg">
 <g id="layer4" transform="translate(-7.9069 -2.2777)">
  <g id="g2051">
   <path id="path1338" d="m375.61 112.14h152.37c8.5344 0 15.405 6.5891 15.405 14.774v80.415c0 8.1846-6.8707 14.774-15.405 14.774l-54.504-0.59707-3.421 24.68-15.272-24.688-79.168 0.60507c-8.5342 0.0652-15.405-6.5891-15.405-14.774v-80.415c0-8.1846 6.8707-14.774 15.405-14.774z" style="fill:#d8ed9e;paint-order:stroke markers fill;stop-color:#000000"/>
   <path id="path1336" d="m375.86 118.77c5.2279 16.896 8.3831 45.098-32.626 72.294l-19.396 36.559-21.643-27.008c-36.479 0.55307-52.377-20.967-58.436-35.644-12.862-31.158 6.0245-65.626 42.117-80.241 37.203-15.065 80.046 1.9197 89.985 34.04z" style="fill-opacity:.73333;fill:#d7ed9e;paint-order:stroke markers fill;stop-color:#000000"/>
   <circle id="path1317" cx="229.7" cy="23.316" r="13.601" style="fill:#8fd300;paint-order:stroke markers fill;stop-color:#000000"/>
   <circle id="circle1319" cx="348.54" cy="19.305" r="13.601" style="fill:#8fd300;paint-order:stroke markers fill;stop-color:#000000"/>
   <circle id="circle1321" cx="369.5" cy="49.448" r="13.601" style="fill:#0cb02b;paint-order:stroke markers fill;stop-color:#000000"/>
   <circle id="circle1323" cx="499.5" cy="49.283" r="13.601" style="fill:#0cb02b;paint-order:stroke markers fill;stop-color:#000000"/>
   <path id="path1325" d="m319.29 61.112 23.788-33.873" style="fill:none;stroke-width:8.6929;stroke:#8fd300"/>
   <path id="path1327" d="m259.28 65.129-23.788-33.873" style="fill:none;stroke-width:8.6929;stroke:#8fd300"/>
   <path id="path1329" d="m399.74 92.566-23.788-33.873" style="fill:none;stroke-width:8.6929;stroke:#0cb02b"/>
   <path id="path1331" d="m469.76 91.917 23.788-33.873" style="fill:none;stroke-width:8.6929;stroke:#0cb02b"/>
   <path id="rect1333" d="m352.89 97.363h167.77c9.3974 0 16.963 7.5655 16.963 16.963v92.331c0 9.3975-7.5655 16.963-16.963 16.963h-41.047l-22.494 48.811-22.096-48.811h-82.137c-9.3975 0-16.963-7.5655-16.963-16.963v-92.331c0-9.3975 7.5655-16.963 16.963-16.963z" style="fill:none;paint-order:stroke markers fill;stop-color:#000000;stroke-linecap:round;stroke-linejoin:round;stroke-width:17.008;stroke:#0cb02b"/>
   <g id="text1536" transform="translate(-541.75 -128.28)" style="fill:#0cb02b;font-variant-caps:normal;font-variant-east-asian:normal;font-variant-ligatures:normal;font-variant-numeric:normal;paint-order:stroke markers fill;stop-color:#000000;stroke-linecap:round;stroke-linejoin:round;stroke-width:17.008;stroke:#8fd300;text-decoration-color:#000000;text-decoration-line:none" aria-label="G">
    <path id="path1784" d="m575.13 454.59q-5.5664 0-9.7266-1.582-4.1309-1.582-6.8848-4.4824-2.7539-2.9004-4.1016-6.9727-1.3476-4.0723-1.3476-9.0234 0-4.8633 1.4355-8.9062 1.4356-4.043 4.248-6.9434t7.002-4.5117q4.1895-1.6113 9.6973-1.6113 3.75 0 6.5332 0.55664 2.8125 0.52735 4.6875 1.4648 1.9043 0.9375 2.8418 2.2266 0.9375 1.2598 0.9375 2.7246 0 1.0547-0.49805 1.9922-0.49804 0.90821-1.4941 1.6113-0.99609 0.70313-2.4316 1.1133-1.4356 0.38086-3.3398 0.38086 0-1.8164-0.43946-3.3398-0.43945-1.5234-1.377-2.6074-0.9082-1.084-2.3144-1.6699-1.4062-0.61524-3.3106-0.61524-3.2812 0-5.5957 1.2012-2.2852 1.2012-3.75 3.5156-1.4356 2.3144-2.1094 5.7129-0.64453 3.3691-0.64453 7.7051 0 4.3359 0.67383 7.7051 0.70313 3.3398 2.2266 5.625 1.5527 2.2852 3.9844 3.4863 2.4609 1.1719 6.0059 1.1719 1.1133 0 2.2266-0.0879t2.168-0.32227v-8.8184q0-2.4023-1.084-3.3398-1.084-0.9375-3.1934-0.9375h-0.79101v-3.1641h18.867v3.1641h-0.79102q-0.9082 0-1.582 0.23437-0.67383 0.20508-1.1133 0.73243-0.43945 0.52734-0.64453 1.4062-0.20508 0.84961-0.20508 2.1387v9.8438q-3.5156 1.6113-7.0898 2.4316-3.5742 0.79101-7.6758 0.79101z" style="fill:#0cb02b;font-variant-caps:normal;font-variant-east-asian:normal;font-variant-ligatures:normal;font-variant-numeric:normal;stroke:none"/>
   </g>
   <path id="path1787" d="m88.233 295.39h-2.0052q-0.47851 0-0.91146 0.11393-0.43294 0.0912-0.77474 0.41016-0.31901 0.31901-0.5013 0.91146t-0.18229 1.595v18.206q0 2.347-0.6836 4.2155-0.6608 1.8685-2.0964 3.1673-1.4128 1.2988-3.623 2.0052-2.2103 0.6836-5.2637 0.6836-3.0534 0-5.4688-0.56966-2.3926-0.59245-4.056-1.8685-1.6634-1.276-2.5521-3.2812-0.86588-2.028-0.86588-4.8991v-17.842q0-0.93424-0.20508-1.4811-0.18229-0.56966-0.52409-0.86588-0.31901-0.29623-0.75195-0.38738-0.41016-0.11393-0.88868-0.11393h-2.0052v-2.4609h16.087v2.4609h-1.9596q-0.47852 0-0.91146 0.11393-0.43294 0.0912-0.77474 0.41016-0.31901 0.31901-0.5013 0.91146-0.1823 0.59245-0.1823 1.595v18.024q0 1.9596 0.47852 3.304 0.5013 1.3216 1.4128 2.1419 0.91146 0.79753 2.1875 1.1621 1.276 0.3418 2.8711 0.3418 1.5495 0 2.8027-0.38737 1.2533-0.41016 2.1192-1.2533 0.88867-0.8431 1.3672-2.1419 0.47851-1.2988 0.47851-3.0762v-18.298q0-0.93424-0.18229-1.4811-0.18229-0.56966-0.52409-0.86588-0.31901-0.29623-0.75195-0.38738-0.43295-0.11393-0.91146-0.11393h-1.9596v-2.4609h12.214z" style="fill:#0cb02b;font-variant-caps:normal;font-variant-east-asian:normal;font-variant-ligatures:normal;font-variant-numeric:normal;paint-order:stroke markers fill;text-decoration-color:#000000;text-decoration-line:none"/>
   <path id="path1789" d="m90.284 326.24v-2.4837h1.9596q0.52409 0 0.95703-0.0911 0.43294-0.11394 0.75196-0.43295 0.31901-0.31901 0.5013-0.91146 0.18229-0.59244 0.18229-1.595v-22.308q0-1.0026-0.18229-1.595t-0.5013-0.91146q-0.31902-0.31901-0.75196-0.41016-0.43294-0.11393-0.95703-0.11393h-1.9596v-2.4609h16.11v2.4609h-1.9596q-0.47851 0-0.93424 0.11393-0.43295 0.0912-0.75196 0.38738-0.31901 0.29622-0.52408 0.86588-0.1823 0.54688-0.1823 1.4811v25.156h8.6816q1.6406 0 2.5521-1.0254 0.91146-1.0482 1.3216-3.0306l0.75195-3.5091h2.6204l-0.3418 10.413z" style="fill:#0cb02b;font-variant-caps:normal;font-variant-east-asian:normal;font-variant-ligatures:normal;font-variant-numeric:normal;paint-order:stroke markers fill;text-decoration-color:#000000;text-decoration-line:none"/>
   <path id="path1791" d="m143.63 301.52-0.22787-2.2559q-0.22786-1.8457-1.1393-2.666-0.88868-0.82032-2.3242-0.82032h-7.4284v12.738h11.074v2.7572h-11.074v9.4564q0 1.0026 0.18229 1.595 0.20508 0.59245 0.52409 0.91146t0.77474 0.43295q0.45573 0.0911 0.95703 0.0911h2.8939v2.4837h-17.044v-2.4837h1.9596q0.5013 0 0.93424-0.0911t0.75195-0.36459q0.3418-0.29622 0.52409-0.8431 0.18229-0.56966 0.18229-1.4811v-22.741q0-0.93424-0.18229-1.4811-0.18229-0.56966-0.52409-0.86588-0.31901-0.29623-0.75195-0.38738-0.43294-0.11393-0.93424-0.11393h-1.9596v-2.4609h25.863l0.22786 8.5905z" style="fill:#0cb02b;font-variant-caps:normal;font-variant-east-asian:normal;font-variant-ligatures:normal;font-variant-numeric:normal;paint-order:stroke markers fill;text-decoration-color:#000000;text-decoration-line:none"/>
   <g id="text1544" transform="translate(-631.09 -128.52)" style="fill:#0cb02b;font-variant-caps:normal;font-variant-east-asian:normal;font-variant-ligatures:normal;font-variant-numeric:normal;paint-order:stroke markers fill;stop-color:#000000;stroke-linecap:round;stroke-linejoin:round;stroke-width:17.008;stroke:#8fd300;text-decoration-color:#000000;text-decoration-line:none" aria-label="P">
    <path id="path1794" d="m1026.7 424.43q0 2.6953-0.9375 5.1856t-3.0468 4.3945q-2.1094 1.9043-5.4786 3.0469-3.3691 1.1133-8.2324 1.1133h-2.0508v9.6094q0 1.1719 0.2637 1.9043 0.2637 0.70312 0.7031 1.084 0.4395 0.35157 1.0254 0.46875 0.586 0.11719 1.2012 0.11719h3.6621v3.1934h-21.914v-3.1934h2.5195q0.67383 0 1.2305-0.11719 0.55664-0.14648 0.9668-0.55664 0.41015-0.41015 0.64453-1.1719 0.23437-0.76172 0.23437-2.0508v-28.916q0-1.2012-0.23437-1.9043-0.23438-0.73242-0.67383-1.1133-0.41015-0.38086-0.9668-0.49804-0.55664-0.14649-1.2012-0.14649h-2.5195v-3.1641h18.428q4.1601 0 7.2363 0.87891 3.0762 0.8789 5.0977 2.5488 2.0508 1.6406 3.0468 3.9844 0.9961 2.3438 0.9961 5.3027zm-19.746 10.254h1.4649q2.2266 0 3.7793-0.55664t2.5195-1.7578q0.9961-1.2012 1.4356-3.1055 0.4687-1.9043 0.4687-4.5996 0-2.4024-0.4101-4.1602-0.3809-1.7871-1.2598-2.9297-0.8496-1.1719-2.2559-1.7285-1.3769-0.58594-3.3984-0.58594h-2.3438z" style="fill:#0cb02b;font-variant-caps:normal;font-variant-east-asian:normal;font-variant-ligatures:normal;font-variant-numeric:normal;stroke:none"/>
   </g>
   <path id="path1797" d="m417.37 326.07v-2.4837h2.0052q0.5013 0 0.9343-0.0911 0.4329-0.11393 0.7519-0.43295 0.3418-0.31901 0.5241-0.91145 0.1823-0.59245 0.1823-1.5951v-10.436h-12.191v10.436q0 1.0026 0.1823 1.5951 0.2051 0.59244 0.5241 0.91145 0.319 0.31902 0.752 0.43295 0.4329 0.0911 0.9342 0.0911h2.0052v2.4837h-16.11v-2.4837h1.9596q0.5013 0 0.9343-0.0911 0.4329-0.11393 0.7519-0.43295 0.3418-0.31901 0.5241-0.91145 0.1823-0.59245 0.1823-1.5951v-22.467q0-0.93425-0.2051-1.4811-0.1823-0.56966-0.5241-0.86589-0.319-0.29622-0.7519-0.38737-0.4329-0.11393-0.9115-0.11393h-1.9596v-2.4837h16.11v2.4837h-2.0052q-0.5013 0-0.9342 0.11393-0.433 0.0911-0.752 0.41016-0.319 0.31901-0.5241 0.91146-0.1823 0.59245-0.1823 1.595v9.0007h12.191v-9.0007q0-1.0026-0.1823-1.595t-0.5241-0.91146q-0.319-0.31901-0.7519-0.41016-0.433-0.11393-0.9343-0.11393h-2.0052v-2.4837h16.11v2.4837h-1.9597q-0.4785 0-0.9114 0.11393-0.433 0.0911-0.7748 0.41016-0.319 0.31901-0.5013 0.91146t-0.1823 1.595v22.536q0 0.91146 0.1823 1.4811 0.2051 0.54688 0.5241 0.8431 0.3418 0.27344 0.752 0.36459 0.4329 0.0911 0.9114 0.0911h1.9597v2.4837z" style="fill:#0cb02b;font-variant-caps:normal;font-variant-east-asian:normal;font-variant-ligatures:normal;font-variant-numeric:normal;paint-order:stroke markers fill;text-decoration-color:#000000;text-decoration-line:none"/>
   <path id="path1799" d="m468.93 309.36q0 3.8509-1.0482 7.0182-1.0254 3.1673-3.0534 5.4232-2.0052 2.2559-4.9446 3.4863-2.9167 1.2305-6.722 1.2305-3.9877 0-6.9727-1.2305-2.9622-1.2305-4.9219-3.4863-1.9596-2.2559-2.9394-5.4232-0.9798-3.1901-0.9798-7.0638t0.9798-7.0182q0.9798-3.1673 2.9394-5.4004 1.9825-2.2331 4.9447-3.4408 2.985-1.2305 6.9954-1.2305 3.7826 0 6.6993 1.2305 2.9394 1.2077 4.9446 3.4635 2.0052 2.2331 3.0306 5.4004 1.0482 3.1445 1.0482 7.041zm-23.744 0q0 3.3496 0.4329 5.9701 0.433 2.6204 1.39 4.4434 0.9571 1.8001 2.461 2.7572 1.5267 0.95703 3.6914 0.95703 2.1875 0 3.6914-0.95703 1.5267-0.95704 2.4609-2.7572 0.9343-1.8229 1.3444-4.4434 0.433-2.6204 0.433-5.9701 0-3.3496-0.433-5.97-0.4101-2.6204-1.3444-4.4206-0.9342-1.8229-2.4381-2.7572-1.5039-0.95703-3.6687-0.95703-2.1875 0-3.7141 0.95703-1.5267 0.93424-2.4838 2.7572-0.957 1.8001-1.39 4.4206-0.4329 2.6204-0.4329 5.97z" style="fill:#0cb02b;font-variant-caps:normal;font-variant-east-asian:normal;font-variant-ligatures:normal;font-variant-numeric:normal;paint-order:stroke markers fill;text-decoration-color:#000000;text-decoration-line:none"/>
   <path id="path1801" d="m498.85 326.07-18.206-25.703v20.189q0 1.0026 0.1823 1.5951 0.205 0.59244 0.524 0.91145 0.3191 0.31902 0.752 0.43295 0.4557 0.0911 0.9342 0.0911h1.9597v2.4837h-12.191v-2.4837h1.9597q0.5013 0 0.9342-0.0911 0.4329-0.11393 0.752-0.43295 0.3418-0.31901 0.524-0.91145 0.1823-0.59245 0.1823-1.5951v-22.49q0-0.93424-0.205-1.4811-0.1823-0.56966-0.5241-0.86588-0.319-0.29623-0.752-0.38737-0.4329-0.11394-0.9114-0.11394h-1.9597v-2.4609h10.368l16.475 23.288v-17.979q0-0.93424-0.2051-1.4811-0.1823-0.56966-0.5241-0.86588-0.319-0.29623-0.7519-0.38737-0.433-0.11394-0.9115-0.11394h-1.9596v-2.4609h12.191v2.4609h-1.9596q-0.4785 0-0.9115 0.11394-0.4329 0.0911-0.7747 0.41015-0.319 0.31901-0.5013 0.91146t-0.1823 1.595v27.822z" style="fill:#0cb02b;font-variant-caps:normal;font-variant-east-asian:normal;font-variant-ligatures:normal;font-variant-numeric:normal;paint-order:stroke markers fill;text-decoration-color:#000000;text-decoration-line:none"/>
   <path id="path1803" d="m521.34 323.22h9.3425q0.7063 0 1.2076-0.25065 0.5013-0.27344 0.8659-0.75195 0.3646-0.47852 0.5697-1.1165 0.2279-0.66081 0.3418-1.4356l0.3646-2.1875h3.2356l-0.3417 8.5905h-27.344v-2.4837h1.9596q0.5013 0 0.9343-0.0911 0.4329-0.0912 0.7519-0.36459 0.3418-0.29622 0.5241-0.8431 0.1823-0.56966 0.1823-1.4811v-22.559q0-1.0026-0.1823-1.595t-0.5013-0.91146-0.7519-0.41015q-0.433-0.11394-0.9571-0.11394h-1.9596v-2.4609h25.908l0.1823 8.5905h-3.2585l-0.2278-2.2103q-0.1823-1.709-0.8659-2.6204t-2.1192-0.91146h-7.8613v11.667h11.074v2.8027h-11.074z" style="fill:#0cb02b;font-variant-caps:normal;font-variant-east-asian:normal;font-variant-ligatures:normal;font-variant-numeric:normal;paint-order:stroke markers fill;text-decoration-color:#000000;text-decoration-line:none"/>
   <g id="text1552" transform="translate(-645.31 -128.77)" style="fill:#0cb02b;font-variant-caps:normal;font-variant-east-asian:normal;font-variant-ligatures:normal;font-variant-numeric:normal;paint-order:stroke markers fill;stop-color:#000000;stroke-linecap:round;stroke-linejoin:round;stroke-width:17.008;stroke:#8fd300;text-decoration-color:#000000;text-decoration-line:none" aria-label="R">
    <path id="path1806" d="m1208.9 451.45h2.5196q0.6152 0 1.1718-0.11719 0.5567-0.11718 0.9668-0.46875 0.4395-0.38086 0.6739-1.084 0.2636-0.73242 0.2636-1.9043v-29.238q0-1.2012-0.2636-1.9043-0.2344-0.73242-0.6739-1.1133-0.4101-0.38086-0.9668-0.49804-0.5566-0.14649-1.1718-0.14649h-2.5196v-3.1641h19.336q8.4961 0 12.451 2.8418 3.9844 2.8418 3.9844 8.2617 0 2.373-0.7031 4.2188-0.7031 1.8457-1.875 3.2227-1.1426 1.377-2.6074 2.3438-1.4649 0.9375-2.9883 1.5527l7.1484 12.305q0.7617 1.2891 1.4649 2.2266 0.7324 0.90821 1.4355 1.5234 0.7324 0.58594 1.4942 0.87891 0.7617 0.26367 1.6113 0.26367h0.2344v3.1934h-1.9629q-2.6953 0-4.7168-0.20508-1.9922-0.20508-3.5157-0.79101-1.4941-0.61524-2.6074-1.6699-1.084-1.0547-2.0215-2.7246l-7.1191-13.213h-3.9844v11.836q0 1.1719 0.2344 1.9043 0.2637 0.70312 0.6738 1.084 0.4395 0.35157 0.9961 0.46875 0.5567 0.11719 1.1719 0.11719h2.5781v3.1934h-20.713zm15.059-18.896h3.3692q2.08 0 3.457-0.55664 1.4062-0.55665 2.2266-1.6406 0.8496-1.1133 1.2011-2.7539 0.3809-1.6699 0.3809-3.8672 0-2.2852-0.4102-3.8672-0.4101-1.582-1.289-2.5781-0.8789-1.0254-2.2852-1.4648-1.4062-0.46875-3.3984-0.46875h-3.252z" style="fill:#0cb02b;font-variant-caps:normal;font-variant-east-asian:normal;font-variant-ligatures:normal;font-variant-numeric:normal;stroke:none"/>
   </g>
   <path id="path1809" d="m619.05 322.95h9.3424q0.7064 0 1.2077-0.25065 0.5013-0.27344 0.8659-0.75195 0.3646-0.47852 0.5697-1.1165 0.2278-0.66081 0.3418-1.4356l0.3645-2.1875h3.2357l-0.3418 8.5905h-27.344v-2.4837h1.9596q0.5013 0 0.9342-0.0911 0.433-0.0911 0.752-0.36458 0.3418-0.29623 0.5241-0.8431 0.1823-0.56967 0.1823-1.4811v-22.559q0-1.0026-0.1823-1.5951t-0.5013-0.91146-0.752-0.41015q-0.4329-0.11394-0.957-0.11394h-1.9596v-2.4609h25.908l0.1823 8.5905h-3.2585l-0.2279-2.2103q-0.1823-1.709-0.8658-2.6204-0.6836-0.91146-2.1192-0.91146h-7.8613v11.667h11.074v2.8027h-11.074z" style="fill:#0cb02b;font-variant-caps:normal;font-variant-east-asian:normal;font-variant-ligatures:normal;font-variant-numeric:normal;paint-order:stroke markers fill;text-decoration-color:#000000;text-decoration-line:none"/>
   <path id="path1811" d="m664.83 302.37q0 2.0964-0.7292 4.0332-0.7291 1.9368-2.3698 3.418-1.6406 1.4811-4.261 2.3698-2.6205 0.86588-6.403 0.86588h-1.5951v7.474q0 0.91146 0.2051 1.4811 0.2051 0.54687 0.5469 0.8431 0.3418 0.27343 0.7975 0.36458 0.4557 0.0911 0.9342 0.0911h2.8484v2.4837h-17.044v-2.4837h1.9596q0.5241 0 0.957-0.0911 0.433-0.11393 0.752-0.43294t0.5013-0.91146 0.1823-1.5951v-22.49q0-0.93424-0.1823-1.4811-0.1823-0.56966-0.5241-0.86588-0.319-0.29623-0.7519-0.38737-0.433-0.11394-0.9343-0.11394h-1.9596v-2.4609h14.333q3.2356 0 5.6282 0.68359t3.9649 1.9824q1.595 1.276 2.3698 3.099 0.7747 1.8229 0.7747 4.1244zm-15.358 7.9753h1.1393q1.7318 0 2.9395-0.43294t1.9596-1.3672q0.7748-0.93425 1.1166-2.4154 0.3646-1.4811 0.3646-3.5775 0-1.8685-0.3191-3.2357-0.2962-1.39-0.9798-2.2786-0.6608-0.91146-1.7545-1.3444-1.071-0.45573-2.6433-0.45573h-1.8229z" style="fill:#0cb02b;font-variant-caps:normal;font-variant-east-asian:normal;font-variant-ligatures:normal;font-variant-numeric:normal;paint-order:stroke markers fill;text-decoration-color:#000000;text-decoration-line:none"/>
   <path id="path1813" d="m674.08 314.84-1.3444 4.0104q-0.1823 0.56966-0.3874 1.3444-0.1822 0.75195-0.1822 1.3216 0 0.45573 0.1822 0.79753 0.1823 0.3418 0.4786 0.56966 0.2962 0.20508 0.6608 0.31901 0.3873 0.11393 0.7975 0.11393h1.9596v2.4837h-12.145v-2.4837h0.5697q0.6152 0 1.1165-0.13671 0.5241-0.13672 0.9571-0.50131 0.4557-0.38737 0.8431-1.0482 0.4101-0.66081 0.8203-1.709l10.117-27.435h6.403l9.7526 27.48q0.3418 0.97982 0.7064 1.6406 0.3873 0.63802 0.8203 1.0254 0.4557 0.36458 0.957 0.52409 0.5013 0.1595 1.0482 0.1595h0.8431v2.4837h-15.404v-2.4837h1.823q0.3417 0 0.7063-0.0911 0.3646-0.11393 0.6381-0.31901 0.2962-0.22787 0.4785-0.56966 0.1823-0.3418 0.1823-0.82032 0-0.56966-0.1368-1.0938-0.1367-0.52409-0.2734-0.91146l-1.6406-4.6712zm7.9525-10.505q-0.2507-0.79752-0.5241-1.6634-0.2506-0.88867-0.5241-1.8001-0.2506-0.91146-0.5013-1.8001-0.2279-0.91146-0.4101-1.7318-0.2051 0.70639-0.4786 1.5495-0.2734 0.8431-0.5924 1.7318-0.2962 0.88867-0.6152 1.7773-0.2963 0.88867-0.5697 1.709l-2.7572 7.8841h9.4336z" style="fill:#0cb02b;font-variant-caps:normal;font-variant-east-asian:normal;font-variant-ligatures:normal;font-variant-numeric:normal;paint-order:stroke markers fill;text-decoration-color:#000000;text-decoration-line:none"/>
   <path id="path1815" d="m700.35 325.8v-2.4837h1.9597q0.524 0 0.957-0.0911 0.4329-0.11393 0.7519-0.43294 0.3191-0.31901 0.5013-0.91146 0.1823-0.59245 0.1823-1.5951v-22.285q0-1.0026-0.1823-1.595-0.1822-0.59245-0.5013-0.91146-0.319-0.31901-0.7519-0.41016-0.433-0.11393-0.957-0.11393h-1.9597v-2.4837h16.11v2.4837h-1.9597q-0.5013 0-0.957 0.11393-0.433 0.0912-0.752 0.41016-0.319 0.31901-0.5013 0.91146t-0.1823 1.595v22.285q0 1.0026 0.1823 1.5951t0.5013 0.91146 0.752 0.43294q0.4557 0.0911 0.957 0.0911h1.9597v2.4837z" style="fill:#0cb02b;font-variant-caps:normal;font-variant-east-asian:normal;font-variant-ligatures:normal;font-variant-numeric:normal;paint-order:stroke markers fill;text-decoration-color:#000000;text-decoration-line:none"/>
   <path id="path1817" d="m719.06 323.32h1.9596q0.4786 0 0.9115-0.0911 0.433-0.0911 0.752-0.36458 0.3418-0.29623 0.5241-0.8431 0.205-0.56967 0.205-1.4811v-22.741q0-0.93424-0.205-1.4811-0.1823-0.56966-0.5241-0.86588-0.319-0.29623-0.752-0.38737-0.4329-0.11394-0.9115-0.11394h-1.9596v-2.4609h15.039q6.6081 0 9.6842 2.2103 3.099 2.2103 3.099 6.4258 0 1.8457-0.5469 3.2812t-1.4583 2.5065q-0.8887 1.071-2.028 1.8229-1.1393 0.72917-2.3242 1.2077l5.5599 9.5703q0.5924 1.0026 1.1393 1.7318 0.5697 0.70638 1.1165 1.1849 0.5697 0.45573 1.1621 0.6836 0.5925 0.20507 1.2533 0.20507h0.1823v2.4837h-1.5267q-2.0964 0-3.6686-0.1595-1.5495-0.15951-2.7344-0.61524-1.1621-0.47852-2.028-1.2988-0.8431-0.82031-1.5723-2.1191l-5.5371-10.277h-3.0989v9.2057q0 0.91146 0.1823 1.4811 0.205 0.54687 0.524 0.8431 0.3418 0.27343 0.7748 0.36458 0.4329 0.0911 0.9114 0.0911h2.0052v2.4837h-16.11zm11.712-14.697h2.6204q1.6178 0 2.6888-0.43294 1.0938-0.43295 1.7318-1.276 0.6608-0.86588 0.9342-2.1419 0.2962-1.2988 0.2962-3.0078 0-1.7773-0.319-3.0078t-1.0026-2.0052q-0.6836-0.79753-1.7773-1.1393-1.0938-0.36458-2.6432-0.36458h-2.5293z" style="fill:#0cb02b;font-variant-caps:normal;font-variant-east-asian:normal;font-variant-ligatures:normal;font-variant-numeric:normal;paint-order:stroke markers fill;text-decoration-color:#000000;text-decoration-line:none"/>
   <g id="text1548" transform="translate(-546.76 -128.52)" style="fill:#0cb02b;font-variant-caps:normal;font-variant-east-asian:normal;font-variant-ligatures:normal;font-variant-numeric:normal;paint-order:stroke markers fill;stop-color:#000000;stroke-linecap:round;stroke-linejoin:round;stroke-width:17.008;stroke:#8fd300;text-decoration-color:#000000;text-decoration-line:none" aria-label="C">
    <path id="path1820" d="m742.04 449.83q2.1973 0 3.8965-0.49804 1.7285-0.52735 3.0762-1.3477 1.3476-0.82031 2.3438-1.8457 1.0254-1.0254 1.7871-2.0215 0.46875 0.35157 0.73242 1.084 0.29297 0.73242 0.29297 1.4941 0 1.2598-0.67383 2.666-0.67383 1.377-2.2559 2.5488-1.582 1.1719-4.1894 1.9336-2.6074 0.76171-6.4453 0.76171-5.2148 0-9.1113-1.582-3.8965-1.582-6.4746-4.4824-2.5781-2.9004-3.8672-6.9727-1.2891-4.0723-1.2891-9.0234 0-4.8633 1.3184-8.9062t3.8965-6.9434q2.6074-2.9004 6.4746-4.5117 3.8965-1.6113 8.9941-1.6113 3.457 0 6.0059 0.55664 2.5781 0.52735 4.2773 1.4648t2.5488 2.2266q0.84961 1.2598 0.84961 2.7246 0 1.1133-0.49805 2.0801-0.46875 0.9375-1.4355 1.6406-0.9375 0.70313-2.3438 1.1133-1.4062 0.38086-3.2227 0.38086 0-1.4941-0.32226-2.959-0.32227-1.4941-1.1133-2.6953-0.76171-1.2012-2.0215-1.9336-1.2598-0.76172-3.1348-0.76172-2.8418 0-4.8047 1.2012-1.9629 1.2012-3.1641 3.5156-1.1719 2.3144-1.6992 5.7129-0.52735 3.3691-0.52735 7.7051 0 4.3359 0.64453 7.5879 0.64453 3.252 2.0801 5.4199 1.4356 2.1387 3.7207 3.2227 2.3145 1.0547 5.6543 1.0547z" style="fill:#0cb02b;font-variant-caps:normal;font-variant-east-asian:normal;font-variant-ligatures:normal;font-variant-numeric:normal;stroke:none"/>
   </g>
   <path id="path1823" d="m241.19 309.36q0 3.8509-1.0482 7.0182-1.0254 3.1673-3.0534 5.4232-2.0052 2.2559-4.9447 3.4863-2.9167 1.2305-6.722 1.2305-3.9876 0-6.9727-1.2305-2.9622-1.2305-4.9219-3.4863t-2.9395-5.4232q-0.97981-3.1901-0.97981-7.0638t0.97981-7.0182q0.97982-3.1673 2.9395-5.4004 1.9824-2.2331 4.9447-3.4408 2.985-1.2305 6.9954-1.2305 3.7826 0 6.6992 1.2305 2.9395 1.2077 4.9447 3.4635 2.0052 2.2331 3.0306 5.4004 1.0482 3.1445 1.0482 7.041zm-23.744 0q0 3.3496 0.43295 5.97 0.43294 2.6204 1.39 4.4434 0.95703 1.8001 2.4609 2.7572 1.5267 0.95703 3.6914 0.95703 2.1875 0 3.6914-0.95703 1.5267-0.95703 2.4609-2.7572 0.93424-1.8229 1.3444-4.4434 0.43294-2.6204 0.43294-5.97 0-3.3496-0.43294-5.9701-0.41016-2.6204-1.3444-4.4206-0.93425-1.8229-2.4382-2.7572-1.5039-0.95703-3.6686-0.95703-2.1875 0-3.7142 0.95703-1.5267 0.93425-2.4837 2.7572-0.95703 1.8001-1.39 4.4206-0.43295 2.6204-0.43295 5.9701z" style="fill:#0cb02b;font-variant-caps:normal;font-variant-east-asian:normal;font-variant-ligatures:normal;font-variant-numeric:normal;paint-order:stroke markers fill;text-decoration-color:#000000;text-decoration-line:none"/>
   <path id="path1825" d="m252.99 315.1-1.3444 4.0104q-0.18229 0.56966-0.38737 1.3444-0.18229 0.75195-0.18229 1.3216 0 0.45573 0.18229 0.79753t0.47852 0.56966q0.29622 0.20508 0.6608 0.31901 0.38737 0.11393 0.79753 0.11393h1.9596v2.4837h-12.145v-2.4837h0.56966q0.61523 0 1.1165-0.13671 0.52408-0.13672 0.95703-0.50131 0.45573-0.38737 0.8431-1.0482 0.41015-0.66081 0.82031-1.709l10.117-27.435h6.403l9.7526 27.48q0.3418 0.97982 0.70638 1.6406 0.38737 0.63802 0.82032 1.0254 0.45573 0.36458 0.95703 0.52409 0.5013 0.1595 1.0482 0.1595h0.8431v2.4837h-15.404v-2.4837h1.8229q0.3418 0 0.70638-0.0911 0.36458-0.11393 0.63802-0.31901 0.29622-0.22787 0.47852-0.56966 0.18229-0.3418 0.18229-0.82032 0-0.56966-0.13672-1.0938t-0.27344-0.91146l-1.6406-4.6712zm7.9525-10.505q-0.25065-0.79752-0.52409-1.6634-0.25065-0.88867-0.52409-1.8001-0.25065-0.91146-0.5013-1.8001-0.22786-0.91146-0.41016-1.7318-0.20507 0.70639-0.47851 1.5495-0.27344 0.8431-0.59245 1.7318-0.29622 0.88867-0.61523 1.7773-0.29623 0.88867-0.56967 1.709l-2.7572 7.8841h9.4336z" style="fill:#0cb02b;font-variant-caps:normal;font-variant-east-asian:normal;font-variant-ligatures:normal;font-variant-numeric:normal;paint-order:stroke markers fill;text-decoration-color:#000000;text-decoration-line:none"/>
   <path id="path1827" d="m290.29 326.52q-3.1445 0-5.2409-0.59245-2.0964-0.59245-3.3724-1.5267-1.2533-0.93425-1.8001-2.0964-0.52409-1.1621-0.52409-2.3014 0-1.2077 0.43295-2.028 0.45573-0.82031 1.1849-1.3444 0.75196-0.52409 1.6862-0.75195 0.95704-0.22787 1.9824-0.22787 0 2.0052 0.47851 3.5319 0.47852 1.5039 1.3216 2.5293 0.8431 1.0026 2.0052 1.5267 1.1849 0.5013 2.5749 0.5013 1.3672 0 2.4382-0.38737 1.071-0.38737 1.8229-1.071 0.75195-0.6836 1.1393-1.5951 0.38737-0.93424 0.38737-2.0052 0-1.1849-0.47851-2.0964-0.47852-0.93425-1.4583-1.709-0.95703-0.79752-2.4382-1.5039-1.4583-0.72916-3.418-1.5495-2.4382-1.0026-4.1244-2.0508-1.6634-1.071-2.6888-2.3014-1.0254-1.2305-1.4811-2.666-0.43294-1.4356-0.43294-3.1445 0-2.1419 0.86589-3.8737 0.86588-1.7318 2.3926-2.9622 1.5267-1.2305 3.623-1.8913 2.0964-0.66081 4.5573-0.66081 2.5749 0 4.4434 0.43294 1.8685 0.41016 3.0762 1.1393 1.2305 0.72916 1.8229 1.7318 0.59245 0.97982 0.59245 2.1191 0 0.82031-0.36458 1.5267-0.3418 0.70639-1.071 1.2305-0.70638 0.52409-1.8001 0.82032-1.071 0.29622-2.5065 0.29622 0-0.97982-0.27344-2.0964-0.25065-1.1393-0.8431-2.0964-0.59244-0.97982-1.5495-1.6178-0.93424-0.63802-2.2786-0.63802-0.93425 0-1.7774 0.27344-0.8431 0.27343-1.4811 0.82031-0.61523 0.54688-0.97982 1.3672-0.36458 0.79752-0.36458 1.8457 0 0.97982 0.31901 1.8457 0.31901 0.86588 1.1621 1.709 0.86589 0.82032 2.347 1.6634 1.5039 0.82031 3.8737 1.7773 2.3926 0.97982 4.0788 2.0052 1.6862 1.0254 2.7572 2.2103 1.0938 1.1621 1.5723 2.5749 0.5013 1.39 0.5013 3.099 0 2.2559-0.88867 4.1471-0.88868 1.8685-2.5521 3.2129t-4.0104 2.0964q-2.3242 0.75195-5.2409 0.75195z" style="fill:#0cb02b;font-variant-caps:normal;font-variant-east-asian:normal;font-variant-ligatures:normal;font-variant-numeric:normal;paint-order:stroke markers fill;text-decoration-color:#000000;text-decoration-line:none"/>
   <path id="path1829" d="m323.31 320.55q0 1.0026 0.18229 1.5951t0.5013 0.91146q0.3418 0.31901 0.77474 0.43294 0.43294 0.0911 0.93424 0.0911h1.9596v2.4837h-16.11v-2.4837h1.9596q0.52409 0 0.95703-0.0911 0.43295-0.11393 0.75196-0.43294t0.5013-0.91146 0.18229-1.5951v-24.951h-3.737q-1.0482 0-1.7546 0.22787-0.70638 0.22786-1.1621 0.66081-0.43294 0.41015-0.66081 1.0254-0.20508 0.61523-0.29622 1.39l-0.31901 2.8939h-3.1445l0.25066-9.0462h29.076l0.22786 9.0462h-3.1218l-0.34179-2.8939q-0.0911-0.77474-0.31901-1.39-0.20508-0.61524-0.66081-1.0254-0.43294-0.43295-1.1393-0.66081-0.70639-0.22787-1.7546-0.22787h-3.737z" style="fill:#0cb02b;font-variant-caps:normal;font-variant-east-asian:normal;font-variant-ligatures:normal;font-variant-numeric:normal;paint-order:stroke markers fill;text-decoration-color:#000000;text-decoration-line:none"/>
   <path id="path1307" d="m369.97 110.52c5.0365 19.658 7.2057 52.284-40.025 82.258l-13.327 58.5-33.083-48.871c-40.87-0.5932-57.63-25.943-63.704-43.072-12.894-36.361 8.2537-76.188 51.035-91.102 42.781-14.914 89.529 4.9146 99.104 42.287z" style="fill:none;paint-order:stroke markers fill;stop-color:#000000;stroke-linecap:round;stroke-linejoin:round;stroke-width:17.008;stroke:#8fd300"/>
   <path id="path1678" d="m537.62 144.33v62.325c0 9.3975-7.5655 16.963-16.963 16.963h-41.047l-22.494 48.811-22.096-48.811h-82.137c-9.3975 0-16.963-7.5655-16.963-16.963v-62.325" style="fill:none;paint-order:stroke markers fill;stop-color:#000000;stroke-linecap:round;stroke-linejoin:round;stroke-width:17.008;stroke:#0cb02b"/>
  </g>
 </g>
</svg>
